STARTFONT 2.3
FONT -FontForge-Lobster-Book-R-Normal--14-140-72-72-P-81-ISO10646-1
SIZE 14 72 72  4
FONTBOUNDINGBOX 29 22 -7 -7
COMMENT "Generated by fontforge, http://fontforge.sourceforge.net"
COMMENT "Copyright 2010 The Lobster Project Authors (https://github.com/impallari/The-Lobster-Font), with Reserved Font Name "Lobster"."
STARTPROPERTIES 41
FOUNDRY "FontForge"
FAMILY_NAME "Lobster"
WEIGHT_NAME "Book"
SLANT "R"
SETWIDTH_NAME "Normal"
ADD_STYLE_NAME ""
PIXEL_SIZE 14
POINT_SIZE 140
RESOLUTION_X 72
RESOLUTION_Y 72
SPACING "P"
AVERAGE_WIDTH 81
CHARSET_REGISTRY "ISO10646"
CHARSET_ENCODING "1"
FONTNAME_REGISTRY ""
CHARSET_COLLECTIONS "ISO8859-2 ISO8859-5 ISO8859-9 ISO8859-4 ISO10646-1"
BITS_PER_PIXEL 4
FONT_NAME "Lobster-Regular"
FACE_NAME "Lobster Regular"
COPYRIGHT "Copyright 2010 The Lobster Project Authors (https://github.com/impallari/The-Lobster-Font), with Reserved Font Name "Lobster"."
FONT_VERSION "2.100"
FONT_ASCENT 11
FONT_DESCENT 3
UNDERLINE_POSITION -1
UNDERLINE_THICKNESS 1
X_HEIGHT 6
CAP_HEIGHT 9
DEFAULT_CHAR 1
RAW_ASCENT 800
RAW_DESCENT 200
NORM_SPACE 3
RELATIVE_WEIGHT 40
RELATIVE_SETWIDTH 50
SUPERSCRIPT_X 0
SUPERSCRIPT_Y 4
SUPERSCRIPT_SIZE 8
SUBSCRIPT_X 0
SUBSCRIPT_Y 1
SUBSCRIPT_SIZE 8
AVG_LOWERCASE_WIDTH 64
AVG_UPPERCASE_WIDTH 85
ENDPROPERTIES
CHARS 1148
STARTCHAR NULL.dup1
ENCODING 0
SWIDTH 600 0
DWIDTH 8 0
BBX 1 1 0 0
BITMAP
00
ENDCHAR
STARTCHAR nonmarkingreturn
ENCODING 13
SWIDTH 600 0
DWIDTH 8 0
BBX 1 1 0 0
BITMAP
00
ENDCHAR
STARTCHAR space
ENCODING 32
SWIDTH 217 0
DWIDTH 3 0
BBX 1 1 0 0
BITMAP
00
ENDCHAR
STARTCHAR exclam
ENCODING 33
SWIDTH 257 0
DWIDTH 4 0
BBX 5 11 0 0
BITMAP
004850
00BF40
00DE00
00FA00
02F600
05F200
07D000
045000
020000
6F8000
5E6000
ENDCHAR
STARTCHAR quotedbl
ENCODING 34
SWIDTH 353 0
DWIDTH 5 0
BBX 5 3 1 7
BITMAP
1E6C90
5D3F20
B58800
ENDCHAR
STARTCHAR numbersign
ENCODING 35
SWIDTH 659 0
DWIDTH 9 0
BBX 9 10 0 0
BITMAP
0004606400
000960C400
000C30E100
06DFDEED20
003C06A000
006A097000
1DEEDFD800
00C30E1000
01E03C0000
0140230000
ENDCHAR
STARTCHAR dollar
ENCODING 36
SWIDTH 548 0
DWIDTH 8 0
BBX 8 14 0 -2
BITMAP
00000B00
00000B00
002ACD90
00DC65E6
01FD94E4
00BFD000
002EF600
0006FF40
5E998FA0
BC0A2FB0
9C298F40
19EEC400
00920000
00B00000
ENDCHAR
STARTCHAR percent
ENCODING 37
SWIDTH 796 0
DWIDTH 11 0
BBX 11 10 0 0
BITMAP
01AE9002D100
0AA2F10A5000
2F43F24B0000
4F15E0C30000
3F1C7792BE70
0AD81D1C85E0
0000964F15F0
0003C06E08C0
000B406D1D60
005A001CD700
ENDCHAR
STARTCHAR ampersand
ENCODING 38
SWIDTH 682 0
DWIDTH 10 0
BBX 10 10 0 0
BITMAP
0008ED7000
009F33F200
00EC06F200
00DD011000
008F900061
0AFA08DFF2
7FD04EBB30
BFA0128200
9FD1078000
1AEEB60000
ENDCHAR
STARTCHAR quotesingle
ENCODING 39
SWIDTH 196 0
DWIDTH 3 0
BBX 3 3 1 7
BITMAP
1E60
5D00
A500
ENDCHAR
STARTCHAR parenleft
ENCODING 40
SWIDTH 437 0
DWIDTH 6 0
BBX 6 15 2 -4
BITMAP
000033
0008A0
008B00
05F200
0DA000
5F4000
9F1000
CD0000
DB0000
DB0000
BC0000
6E0000
1E2000
068000
001000
ENDCHAR
STARTCHAR parenright
ENCODING 41
SWIDTH 413 0
DWIDTH 6 0
BBX 6 15 -1 -4
BITMAP
001500
000D20
0008A0
0005F1
0004F4
0003F5
0004F5
0006F3
0009E0
000EA0
005F30
00D800
08A000
880000
100000
ENDCHAR
STARTCHAR asterisk
ENCODING 42
SWIDTH 515 0
DWIDTH 7 0
BBX 5 5 1 5
BITMAP
87DAD0
4BFC50
8EEE90
54E590
01E200
ENDCHAR
STARTCHAR plus
ENCODING 43
SWIDTH 442 0
DWIDTH 6 0
BBX 6 5 0 2
BITMAP
003D00
007A00
9EFFE7
12E521
02E000
ENDCHAR
STARTCHAR comma
ENCODING 44
SWIDTH 216 0
DWIDTH 3 0
BBX 3 4 0 -2
BITMAP
6E30
8F50
0C00
5300
ENDCHAR
STARTCHAR hyphen
ENCODING 45
SWIDTH 290 0
DWIDTH 4 0
BBX 4 1 0 3
BITMAP
8DD2
ENDCHAR
STARTCHAR period
ENCODING 46
SWIDTH 263 0
DWIDTH 4 0
BBX 3 3 0 0
BITMAP
0200
6F70
5E60
ENDCHAR
STARTCHAR slash
ENCODING 47
SWIDTH 311 0
DWIDTH 4 0
BBX 4 13 0 -3
BITMAP
000E
003C
0078
00A5
00E1
02D0
05A0
0960
0C30
1E00
4B00
8700
B400
ENDCHAR
STARTCHAR zero
ENCODING 48
SWIDTH 546 0
DWIDTH 8 0
BBX 8 10 0 0
BITMAP
0019DD80
01DE25F6
0AF602FA
2FF103FB
6FB004F9
9F8007F6
AF600BF2
9F602FA0
5F90BE20
08DEB200
ENDCHAR
STARTCHAR one
ENCODING 49
SWIDTH 317 0
DWIDTH 4 0
BBX 5 10 0 0
BITMAP
002750
1EFF30
00FE00
03FB00
07F800
0AF500
0EF100
2FD000
5FA000
9F6000
ENDCHAR
STARTCHAR two
ENCODING 50
SWIDTH 492 0
DWIDTH 7 0
BBX 8 10 -1 0
BITMAP
002BDE80
00D80BF6
00F808F9
00670BF4
00006F70
0005E500
006C2000
05D20021
1EFFFDF3
2A79DE90
ENDCHAR
STARTCHAR three
ENCODING 51
SWIDTH 514 0
DWIDTH 7 0
BBX 7 10 0 0
BITMAP
008DEC30
06F21ED0
07F30ED0
00417F60
000AF800
0001DF50
5D807FB0
DD006FA0
CC01DE20
3BDEA200
ENDCHAR
STARTCHAR four
ENCODING 52
SWIDTH 476 0
DWIDTH 7 0
BBX 7 10 0 0
BITMAP
000EA000
001FD000
006F5910
01D72E00
0A608A20
8EEDEF90
978CFD30
0008F100
000DD000
003FA000
ENDCHAR
STARTCHAR five
ENCODING 53
SWIDTH 517 0
DWIDTH 7 0
BBX 7 11 0 0
BITMAP
00210140
00EFFFE0
03F8BC60
06C00000
09DCD800
0611CF60
03306FA0
6FA05FA0
BD008F70
AE13ED10
2BEE9100
ENDCHAR
STARTCHAR six
ENCODING 54
SWIDTH 500 0
DWIDTH 7 0
BBX 8 10 0 0
BITMAP
0019DE80
02DD24F1
0BF405A0
3FD00000
8FBADB10
AFA04F90
BF501FB0
BF403F80
7F80AD10
09EDA200
ENDCHAR
STARTCHAR seven
ENCODING 55
SWIDTH 464 0
DWIDTH 7 0
BBX 8 10 0 0
BITMAP
09EFFFF2
2FDFFF90
13003D10
0001D400
001CA000
00AF2000
04F90000
0CF40000
0EF30000
08E40000
ENDCHAR
STARTCHAR eight
ENCODING 56
SWIDTH 499 0
DWIDTH 7 0
BBX 7 10 0 0
BITMAP
006DDC40
05F909E0
09F709D0
05FE6E40
00AFF400
19CAFE20
AF20BFA0
FD005FB0
CF20AF40
2AEDB400
ENDCHAR
STARTCHAR nine
ENCODING 57
SWIDTH 489 0
DWIDTH 7 0
BBX 7 10 0 0
BITMAP
018DEA10
0CD15F80
6F602FC0
9F303FD0
7F50AFC0
1ADB9FA0
0000AF50
5801FD00
C81BE300
5DEB3000
ENDCHAR
STARTCHAR colon
ENCODING 58
SWIDTH 267 0
DWIDTH 4 0
BBX 4 6 0 1
BITMAP
0010
08F5
07E4
0100
4F90
3E80
ENDCHAR
STARTCHAR semicolon
ENCODING 59
SWIDTH 276 0
DWIDTH 4 0
BBX 4 8 0 -2
BITMAP
0020
08F6
07E5
0000
2E70
3F90
0930
2500
ENDCHAR
STARTCHAR less
ENCODING 60
SWIDTH 358 0
DWIDTH 5 0
BBX 5 6 0 1
BITMAP
000010
0018C0
18E810
BE4000
07E910
001910
ENDCHAR
STARTCHAR equal
ENCODING 61
SWIDTH 515 0
DWIDTH 7 0
BBX 7 5 0 1
BITMAP
09DDDD60
0DFFFF50
00000000
4DDDDB00
7FFFFA00
ENDCHAR
STARTCHAR greater
ENCODING 62
SWIDTH 362 0
DWIDTH 5 0
BBX 5 6 0 1
BITMAP
010000
2E7000
03BD50
017E90
6DA200
820000
ENDCHAR
STARTCHAR question
ENCODING 63
SWIDTH 441 0
DWIDTH 6 0
BBX 6 10 0 0
BITMAP
04CED5
2F41FE
3F60ED
0428E3
006C20
02D100
067000
010000
3FB000
2E9000
ENDCHAR
STARTCHAR at
ENCODING 64
SWIDTH 688 0
DWIDTH 10 0
BBX 11 10 -1 -1
BITMAP
00006BDC7000
002CC301B900
00CB4DBA3F00
07E3E6A83F10
0C88D0E46D00
0F4AA4F2E500
2F35D7AD6000
0F4000130000
0AC202B70000
017CDB600000
ENDCHAR
STARTCHAR A
ENCODING 65
SWIDTH 668 0
DWIDTH 9 0
BBX 10 12 0 -2
BITMAP
0000003BE8
000003BBF6
00003D1DF3
0001C61FE0
2ADEF97FB0
CC2F61AF70
44AE00BF40
02F900EF10
07F403FC00
0BF106F900
0BD0000000
0260000000
ENDCHAR
STARTCHAR B
ENCODING 66
SWIDTH 641 0
DWIDTH 9 0
BBX 9 10 0 0
BITMAP
005BDEC500
0AB6727F20
7D1DF24F20
C82FD2D900
775FFFF900
009F70CF50
00CF308F70
01FF009F40
04FB11DC00
07F8BEB200
ENDCHAR
STARTCHAR C
ENCODING 67
SWIDTH 497 0
DWIDTH 7 0
BBX 8 10 0 0
BITMAP
001AEDA1
01DF60B6
09FB01E5
2FF40030
6FE00000
9FB00000
BFA00000
AFA00001
6FD10281
08DEB710
ENDCHAR
STARTCHAR D
ENCODING 68
SWIDTH 663 0
DWIDTH 9 0
BBX 9 10 0 0
BITMAP
005BDED600
1BB6628F50
9C0EF10FC0
D73FD00EF0
866F900FE0
00AF602FC0
00DF206F80
02FE00CF20
05FB07F800
09FCCE7000
ENDCHAR
STARTCHAR E
ENCODING 69
SWIDTH 459 0
DWIDTH 6 0
BBX 7 10 0 0
BITMAP
0019ED50
00BE24D0
01FA07A0
01FC0100
00AF7000
0CF90000
8FD00000
DF900010
BFB00540
3CED9300
ENDCHAR
STARTCHAR F
ENCODING 70
SWIDTH 459 0
DWIDTH 6 0
BBX 9 10 0 0
BITMAP
028CFFFF30
3C1EF12100
A82FD00000
D75FB00000
659FFF8000
00CF400000
00FF100000
03FC000000
07F9000000
0AF5000000
ENDCHAR
STARTCHAR G
ENCODING 71
SWIDTH 578 0
DWIDTH 8 0
BBX 8 13 0 -3
BITMAP
003ADDC4
05FE408D
2EF400BB
8FB00000
AF7001A5
AF7007F6
5FB03EF3
07DC8FE0
00003FB0
03CA6F70
0D52AF20
0E52EA00
04CD9100
ENDCHAR
STARTCHAR H
ENCODING 72
SWIDTH 665 0
DWIDTH 9 0
BBX 10 10 0 0
BITMAP
005AE806F9
0A6BF50AF6
8B0EF10DF2
C82FD01FE0
566FFFFFB0
009F608F70
00CF30BF40
01FE00EF10
04FB03FC00
07F806F900
ENDCHAR
STARTCHAR I
ENCODING 73
SWIDTH 375 0
DWIDTH 5 0
BBX 6 10 0 0
BITMAP
006BE7
1B5CF3
9A1FF0
D64FC0
657F80
00AF50
00EF20
02FD00
05FA00
09F700
ENDCHAR
STARTCHAR J
ENCODING 74
SWIDTH 536 0
DWIDTH 8 0
BBX 8 13 0 -3
BITMAP
000029DE
0005C6FB
002E47F8
005F0AF5
001A0EF2
00002FD0
00006FA0
00009F70
0000DF30
2BC3FF00
A916FA00
A90BF300
2BDB4000
ENDCHAR
STARTCHAR K
ENCODING 75
SWIDTH 601 0
DWIDTH 8 0
BBX 10 10 0 0
BITMAP
006CE709C1
1C7CF36C10
AA0FE3D200
D63FDC2000
447FEDB300
00AF55F900
00EF16F800
02FD0AF400
05FA0DF100
09F70CF200
ENDCHAR
STARTCHAR L
ENCODING 76
SWIDTH 379 0
DWIDTH 5 0
BBX 10 13 0 -3
BITMAP
006BE70000
1C8CF30000
AA0FF00000
D74FC00000
547F800000
00AF500000
00EF100000
02FD000000
06F9000000
09FB200000
0039FB4100
00004DFFF2
0000019EA0
ENDCHAR
STARTCHAR M
ENCODING 77
SWIDTH 787 0
DWIDTH 11 0
BBX 11 10 1 0
BITMAP
017BF701EF30
2C3DF606FF00
B73FF60DFD00
F59FF54FFB00
54ECF4BCF900
05CAF6E9F700
0B6BFB8BF400
2E1CFF2DF200
790CFA0FF000
D40DF42FD000
ENDCHAR
STARTCHAR N
ENCODING 78
SWIDTH 668 0
DWIDTH 9 0
BBX 10 10 0 0
BITMAP
029CF7006E
2D4CFB00AB
B90FFF00D7
D74FEF31F4
787E8F74F1
00AB4FB7C0
00E71FEB80
02F30CFF50
06E008FF20
09B004FD00
ENDCHAR
STARTCHAR O
ENCODING 79
SWIDTH 665 0
DWIDTH 9 0
BBX 10 10 0 0
BITMAP
0029CDDA10
07D5772EB0
6E2CE20BF1
B97F900BF2
66DF300CF1
03FD001FD0
06FA006F80
07F901DE10
04FC3BF400
008EEB3000
ENDCHAR
STARTCHAR P
ENCODING 80
SWIDTH 573 0
DWIDTH 8 0
BBX 9 10 0 0
BITMAP
005BDDB300
1BA562AE10
9C0EF14F40
D73FC06F20
766F90CA00
00AF8BA100
00DF520000
02FE000000
05FA000000
09F7000000
ENDCHAR
STARTCHAR Q
ENCODING 81
SWIDTH 665 0
DWIDTH 9 0
BBX 10 12 0 -2
BITMAP
0028CDDA10
06D6772EB0
5E2BF30BF1
BA7FA00BF2
88DF400CF1
03FE000FD0
06FB005F90
07F900BF20
04FC89F600
008EDEC000
000006FD40
0000005500
ENDCHAR
STARTCHAR R
ENCODING 82
SWIDTH 601 0
DWIDTH 8 0
BBX 9 10 0 0
BITMAP
006BDDC400
1CA6728E10
AB0EF16F10
D73FB3E800
546FEFE300
00AF56F900
00DF25F800
02FD09F400
05FA0DF100
09F70CF200
ENDCHAR
STARTCHAR S
ENCODING 83
SWIDTH 570 0
DWIDTH 8 0
BBX 8 10 0 0
BITMAP
0019EDB2
00AF50BA
00DF30D8
008FC110
000BFB00
0131DF90
2ED43FF1
7F200EF2
5F506FB0
07DFD810
ENDCHAR
STARTCHAR T
ENCODING 84
SWIDTH 481 0
DWIDTH 7 0
BBX 10 10 0 0
BITMAP
04ACEFACDA
5E30EE0000
C803FB0000
C606F80000
1109F50000
000CF20000
001FE00000
004FB00000
007F800000
00AF500000
ENDCHAR
STARTCHAR U
ENCODING 85
SWIDTH 716 0
DWIDTH 10 0
BBX 11 10 0 0
BITMAP
017BEC006F80
2D66F900AF50
C80AF500DF20
F40EF102FD00
653FB005FA00
007F7009F700
00AF300DF200
00CF103FC000
009F75DE3000
001AEEB30000
ENDCHAR
STARTCHAR V
ENCODING 86
SWIDTH 615 0
DWIDTH 9 0
BBX 10 10 0 0
BITMAP
006BE80086
1B88F900D1
9B07F904A0
D707F90940
6507F90C00
0006FA5700
0006FAA100
0005FBA000
0005FF5000
0005FD0000
ENDCHAR
STARTCHAR W
ENCODING 87
SWIDTH 962 0
DWIDTH 13 0
BBX 15 10 0 0
BITMAP
006BE8008F600B40
1B88F900EF601D00
9B07F904FF706700
D707F909DF70B200
6507F90C9F72A000
0006FA579F775000
0006FAA28F8B0000
0005FBA08FB80000
0005FF507FF20000
0005FE007FB00000
ENDCHAR
STARTCHAR X
ENCODING 88
SWIDTH 620 0
DWIDTH 9 0
BBX 9 10 0 0
BITMAP
006BEA0870
1B87FD2C00
9B03FFB400
D700EFA000
6500BF8000
00009FB000
0001EFE000
00095FF300
003A0DF600
00B109F900
ENDCHAR
STARTCHAR Y
ENCODING 89
SWIDTH 620 0
DWIDTH 9 0
BBX 10 10 0 0
BITMAP
006BEA0068
1B86FE00B1
9B02FF3390
D700DF6920
65009FBA00
00005FF300
00005FE000
00008FA000
0000CF7000
0000FF4000
ENDCHAR
STARTCHAR Z
ENCODING 90
SWIDTH 542 0
DWIDTH 8 0
BBX 8 10 0 0
BITMAP
05EDDFF7
0BA04FE1
0220CF60
0006FD00
000DF500
007FC000
01EF4000
08FB0130
1EF307E0
9FFDDD60
ENDCHAR
STARTCHAR bracketleft
ENCODING 91
SWIDTH 400 0
DWIDTH 6 0
BBX 6 13 0 -3
BITMAP
004FDA
007E00
00BB00
00E700
03F400
06F100
09C000
0D9000
1F5000
5F2000
8D0000
BA0000
EEC000
ENDCHAR
STARTCHAR backslash
ENCODING 92
SWIDTH 362 0
DWIDTH 5 0
BBX 5 13 0 -3
BITMAP
4B0000
1E0000
0D2000
096000
069000
02D000
00E100
00A500
007800
004B00
000E00
000C30
000870
ENDCHAR
STARTCHAR bracketright
ENCODING 93
SWIDTH 400 0
DWIDTH 6 0
BBX 6 13 -1 -3
BITMAP
000DEE
0000AB
0000D8
0002F5
0005F1
0009D0
000C90
001F60
004F30
008E00
00BB00
00E700
ADF400
ENDCHAR
STARTCHAR asciicircum
ENCODING 94
SWIDTH 421 0
DWIDTH 6 0
BBX 5 3 0 8
BITMAP
000500
008F40
187380
ENDCHAR
STARTCHAR underscore
ENCODING 95
SWIDTH 444 0
DWIDTH 6 0
BBX 6 1 0 0
BITMAP
5DDDD7
ENDCHAR
STARTCHAR grave
ENCODING 96
SWIDTH 201 0
DWIDTH 3 0
BBX 3 3 0 8
BITMAP
6B00
2F00
0B20
ENDCHAR
STARTCHAR a
ENCODING 97
SWIDTH 526 0
DWIDTH 7 0
BBX 9 7 -1 0
BITMAP
004CECF900
03ED1AF600
0AF50CF300
1FF11FE000
2FE04FC050
1FF5BFC670
08EC3CE800
ENDCHAR
STARTCHAR b
ENCODING 98
SWIDTH 444 0
DWIDTH 6 0
BBX 7 10 -1 0
BITMAP
00485000
00BF4000
00EF1000
02FFCD30
05FA0D90
09F70BA0
0CF40D80
0FF11F40
1FE08B00
08ED9100
ENDCHAR
STARTCHAR c
ENCODING 99
SWIDTH 384 0
DWIDTH 5 0
BBX 7 7 -1 0
BITMAP
003CEB00
02ED1F10
0AF60500
0EF10000
2FE00020
1FE10640
07EDA300
ENDCHAR
STARTCHAR d
ENCODING 100
SWIDTH 525 0
DWIDTH 7 0
BBX 9 10 -1 0
BITMAP
0000006920
000000EF10
000003FD00
004CECFA00
03ED1AF700
0AF60CF400
1FF20FF100
2FE03FD010
1FE08FA180
08EC6DE800
ENDCHAR
STARTCHAR e
ENCODING 101
SWIDTH 384 0
DWIDTH 5 0
BBX 7 7 -1 0
BITMAP
003CEC00
02EB1F10
0AF49A00
0FFD8100
2FE00050
1FF10720
07ED9200
ENDCHAR
STARTCHAR f
ENCODING 102
SWIDTH 267 0
DWIDTH 4 0
BBX 9 13 -3 -3
BITMAP
00001AEC20
00008F6340
0000DF1000
0002FFC000
0005FB0000
0008F70000
000CF40000
001FF10000
004FC00000
019F800000
5BCF500000
C1EE100000
7DD4000000
ENDCHAR
STARTCHAR g
ENCODING 103
SWIDTH 507 0
DWIDTH 7 0
BBX 9 10 -1 -3
BITMAP
004CECF900
03ED1AF600
0AF60CF300
1FF20FF000
2FE03FC010
1FE09F8350
08ECDFA600
0027EF2000
00B4FC0000
00BEC20000
ENDCHAR
STARTCHAR h
ENCODING 104
SWIDTH 505 0
DWIDTH 7 0
BBX 9 10 -1 0
BITMAP
0048500000
00AF400000
00EF100000
02FEBE8000
05FC1FE000
08F61FE000
0CF34FB000
0FF07F7020
3FC08F6440
6F903DD600
ENDCHAR
STARTCHAR i
ENCODING 105
SWIDTH 267 0
DWIDTH 4 0
BBX 6 10 -1 0
BITMAP
008E30
009F40
000100
02FD00
06FA00
09F600
0CF300
0FF032
1FF6A0
0AEB20
ENDCHAR
STARTCHAR j
ENCODING 106
SWIDTH 240 0
DWIDTH 3 0
BBX 7 13 -3 -3
BITMAP
00009E20
0000BF30
00000100
0002FD00
0006FA00
0009F700
000CF300
001FF060
004FC450
008FB500
3CEF5000
B2EE1000
7ED40000
ENDCHAR
STARTCHAR k
ENCODING 107
SWIDTH 518 0
DWIDTH 7 0
BBX 9 10 -1 0
BITMAP
0049500000
00BF400000
00EF100000
02FD06B200
05FA980000
09FFFF6000
0CF76FC000
0FF15FA040
3FC07FB760
6F902DE800
ENDCHAR
STARTCHAR l
ENCODING 108
SWIDTH 267 0
DWIDTH 4 0
BBX 6 10 -1 0
BITMAP
003850
00AF40
00EF10
02FD00
05FA00
09F600
0CF300
0FF032
1FF8B0
0AEB20
ENDCHAR
STARTCHAR m
ENCODING 109
SWIDTH 752 0
DWIDTH 11 0
BBX 12 7 -1 0
BITMAP
02FEBFB8ED20
06FC1FF49F60
09F63FD0AF60
0CF36FA0DF30
0FF09F71FE02
3FC0CF42FD08
6F90EF10AEA1
ENDCHAR
STARTCHAR n
ENCODING 110
SWIDTH 505 0
DWIDTH 7 0
BBX 9 7 -1 0
BITMAP
02FEBE8000
06FC1FE000
09F61FE000
0CF34FB000
0FF07F7020
3FC08F6440
6F903DD600
ENDCHAR
STARTCHAR o
ENCODING 111
SWIDTH 439 0
DWIDTH 6 0
BBX 9 7 -1 0
BITMAP
003BEB1000
02ED1C5040
0AF61FB820
1FF20D4000
2FE02F1000
1FE0980000
07ED800000
ENDCHAR
STARTCHAR p
ENCODING 112
SWIDTH 468 0
DWIDTH 7 0
BBX 9 12 -2 -4
BITMAP
0007700000
002FEBE900
006FB0CF20
009F60CF30
00CF30EF10
01FF04FC00
03FE4CF500
07FDED6000
0AF5000000
0DF2000000
1FE0000000
1300000000
ENDCHAR
STARTCHAR q
ENCODING 113
SWIDTH 486 0
DWIDTH 7 0
BBX 8 11 -1 -4
BITMAP
004CECF9
03ED1AF6
0AF60CF2
1FF20FE0
2FE03FB0
1FE09F80
08EBDF50
0000EF10
0002FD00
0005FA00
00022000
ENDCHAR
STARTCHAR r
ENCODING 114
SWIDTH 376 0
DWIDTH 5 0
BBX 7 7 -1 0
BITMAP
02FEAE40
06FC4F40
09F60000
0CF30000
0FF00000
3FC00000
6F900000
ENDCHAR
STARTCHAR s
ENCODING 115
SWIDTH 382 0
DWIDTH 5 0
BBX 7 8 -1 0
BITMAP
00024000
003FF200
008EF300
019CF400
073BF500
3E2AF740
660CFB10
1ADD6000
ENDCHAR
STARTCHAR t
ENCODING 116
SWIDTH 267 0
DWIDTH 4 0
BBX 6 10 -1 0
BITMAP
000110
00AF40
00EF10
08FFA0
05FB00
08F700
0BF400
0FF131
1FF5A0
0AEB20
ENDCHAR
STARTCHAR u
ENCODING 117
SWIDTH 505 0
DWIDTH 7 0
BBX 9 7 -1 0
BITMAP
02FD0BF500
06FA0EF200
09F62FD000
0CF35FA000
0FF09F7140
1FF6EFA930
0AEA4ED500
ENDCHAR
STARTCHAR v
ENCODING 118
SWIDTH 414 0
DWIDTH 6 0
BBX 7 7 -1 0
BITMAP
02FD1C60
06FA0480
09F60770
0CF30C30
0FF04C00
1FE6D300
0AEC4000
ENDCHAR
STARTCHAR w
ENCODING 119
SWIDTH 661 0
DWIDTH 9 0
BBX 10 7 -1 0
BITMAP
02FD0BF57C
06FA0EF20C
09F62FD01D
0CF35FA05A
0FF09F70C4
1FF6EF9AA0
0AFA5EE910
ENDCHAR
STARTCHAR x
ENCODING 120
SWIDTH 522 0
DWIDTH 7 0
BBX 8 7 0 0
BITMAP
02BE57B0
082FC2D0
530EEC40
800DF400
604FF202
04B8F527
3B11CD70
ENDCHAR
STARTCHAR y
ENCODING 121
SWIDTH 486 0
DWIDTH 7 0
BBX 9 10 -1 -3
BITMAP
02FD0BF500
06FA0EF100
09F62FD000
0CF35FA000
0FF09F7220
1FF7FF4800
0AEBFF7200
007BFC0000
059AF70000
02DE900000
ENDCHAR
STARTCHAR z
ENCODING 122
SWIDTH 428 0
DWIDTH 6 0
BBX 6 7 0 0
BITMAP
0ADEFB
2F1CF2
016F90
01EE10
08F700
2FD0C5
BFEDB1
ENDCHAR
STARTCHAR braceleft
ENCODING 123
SWIDTH 352 0
DWIDTH 5 0
BBX 6 13 0 -3
BITMAP
0009E7
005F40
009E00
00BC00
00CA00
01E700
4EA000
06F000
09D000
0D9000
3F6000
5F6000
1BD100
ENDCHAR
STARTCHAR bar
ENCODING 124
SWIDTH 532 0
DWIDTH 7 0
BBX 2 13 3 -3
BITMAP
E6
E6
E6
E6
E6
E6
E6
E6
E6
E6
E6
E6
E6
ENDCHAR
STARTCHAR braceright
ENCODING 125
SWIDTH 352 0
DWIDTH 5 0
BBX 5 13 -1 -3
BITMAP
005E80
000BF0
000AD0
000D90
003F40
004F20
001ED0
00CB00
00F800
01F600
04F400
08E100
BD5000
ENDCHAR
STARTCHAR asciitilde
ENCODING 126
SWIDTH 431 0
DWIDTH 6 0
BBX 7 2 0 8
BITMAP
02663110
17AEE800
ENDCHAR
STARTCHAR uni00A0
ENCODING 160
SWIDTH 217 0
DWIDTH 3 0
BBX 1 1 0 0
BITMAP
00
ENDCHAR
STARTCHAR exclamdown
ENCODING 161
SWIDTH 219 0
DWIDTH 3 0
BBX 5 11 -1 -4
BITMAP
00AD10
00CF20
000100
00C400
04F200
08F000
0CC000
1FA000
5F8000
AF5000
320000
ENDCHAR
STARTCHAR cent
ENCODING 162
SWIDTH 384 0
DWIDTH 5 0
BBX 6 11 0 -1
BITMAP
000470
003BA2
08DD9C
5F4B67
BE3700
DC7400
AEB140
1AEC50
037000
065000
010000
ENDCHAR
STARTCHAR sterling
ENCODING 163
SWIDTH 455 0
DWIDTH 6 0
BBX 8 10 0 0
BITMAP
0005CEB1
003FA4F2
009F4140
00DE0000
6DFFDA00
05F90000
08F50000
0CD10040
4FEEDED0
6117DE50
ENDCHAR
STARTCHAR currency
ENCODING 164
SWIDTH 500 0
DWIDTH 7 0
BBX 5 7 1 1
BITMAP
200020
ABDBB0
770680
9302A0
780770
BADAB0
100010
ENDCHAR
STARTCHAR yen
ENCODING 165
SWIDTH 558 0
DWIDTH 8 0
BBX 7 10 1 0
BITMAP
6FE002C0
2FF20860
0DF60C00
09FA5700
05FEB100
02FF9000
4BFFBA00
9EFFD900
08FA0000
0BF70000
ENDCHAR
STARTCHAR brokenbar
ENCODING 166
SWIDTH 532 0
DWIDTH 7 0
BBX 2 13 3 -3
BITMAP
E6
E6
E6
E6
E6
E6
00
E6
E6
E6
E6
E6
E6
ENDCHAR
STARTCHAR section
ENCODING 167
SWIDTH 542 0
DWIDTH 8 0
BBX 8 12 0 -2
BITMAP
0005CEC1
003F90A4
006F50A1
02CFB000
0ACCFB10
0CE3BFA0
05FD2CF0
005FD7E0
4A39FD70
C905F600
C807E200
3AAA3000
ENDCHAR
STARTCHAR dieresis
ENCODING 168
SWIDTH 392 0
DWIDTH 5 0
BBX 5 2 0 8
BITMAP
1B36A0
1E47C0
ENDCHAR
STARTCHAR copyright
ENCODING 169
SWIDTH 587 0
DWIDTH 8 0
BBX 8 7 0 1
BITMAP
00699700
088BD890
28B20654
46B30427
282CD554
08500390
00699700
ENDCHAR
STARTCHAR ordfeminine
ENCODING 170
SWIDTH 345 0
DWIDTH 5 0
BBX 5 4 0 6
BITMAP
07DE50
2E2E20
5B5E00
2C7C20
ENDCHAR
STARTCHAR guillemotleft
ENCODING 171
SWIDTH 589 0
DWIDTH 8 0
BBX 8 5 0 1
BITMAP
00067176
17A57A40
8A099000
05B66B50
00050150
ENDCHAR
STARTCHAR logicalnot
ENCODING 172
SWIDTH 444 0
DWIDTH 6 0
BBX 6 4 0 0
BITMAP
8DDDE7
0005F4
0008F1
000460
ENDCHAR
STARTCHAR uni00AD
ENCODING 173
SWIDTH 290 0
DWIDTH 4 0
BBX 4 1 0 3
BITMAP
8DD2
ENDCHAR
STARTCHAR registered
ENCODING 174
SWIDTH 553 0
DWIDTH 8 0
BBX 8 7 0 1
BITMAP
01799500
0A999670
55824681
8289B163
55828281
0A501770
00799500
ENDCHAR
STARTCHAR macron
ENCODING 175
SWIDTH 446 0
DWIDTH 6 0
BBX 5 1 1 8
BITMAP
CDDD70
ENDCHAR
STARTCHAR degree
ENCODING 176
SWIDTH 314 0
DWIDTH 4 0
BBX 4 5 0 5
BITMAP
0496
2D1C
690C
7847
2970
ENDCHAR
STARTCHAR plusminus
ENCODING 177
SWIDTH 479 0
DWIDTH 7 0
BBX 7 8 0 2
BITMAP
00011000
00097000
000C4000
1EEFEE20
026D2200
007A0000
00320000
7DDDD400
ENDCHAR
STARTCHAR uni00B2
ENCODING 178
SWIDTH 328 0
DWIDTH 5 0
BBX 5 6 0 4
BITMAP
04DD20
0B2E60
033D10
01A200
0A2000
4EDC20
ENDCHAR
STARTCHAR uni00B3
ENCODING 179
SWIDTH 336 0
DWIDTH 5 0
BBX 5 6 0 4
BITMAP
04DD40
076A70
005A00
2D1E50
3A1E40
089500
ENDCHAR
STARTCHAR acute
ENCODING 180
SWIDTH 316 0
DWIDTH 4 0
BBX 4 3 1 8
BITMAP
0182
0890
1C10
ENDCHAR
STARTCHAR uni00B5
ENCODING 181
SWIDTH 505 0
DWIDTH 7 0
BBX 9 10 -1 -3
BITMAP
02FD0BF500
06FA0EF200
09F72FD000
0CF35FA000
0FF09F7040
3FF6EF9930
6FFA4ED500
AF50000000
DE20000000
3000000000
ENDCHAR
STARTCHAR paragraph
ENCODING 182
SWIDTH 542 0
DWIDTH 8 0
BBX 7 12 1 -2
BITMAP
05CFC400
5FFFAE00
CFFF7F10
EFFF7E00
DFFD8B00
7FFAB800
06FCF500
01F6F200
04F7E000
07D9B000
0AAC8000
0D7F5000
ENDCHAR
STARTCHAR periodcentered
ENCODING 183
SWIDTH 434 0
DWIDTH 6 0
BBX 4 3 1 2
BITMAP
0AA1
4FF5
1CD1
ENDCHAR
STARTCHAR cedilla
ENCODING 184
SWIDTH 227 0
DWIDTH 3 0
BBX 4 4 0 -3
BITMAP
0700
1DA1
22F3
6970
ENDCHAR
STARTCHAR uni00B9
ENCODING 185
SWIDTH 229 0
DWIDTH 3 0
BBX 3 7 0 4
BITMAP
0260
3ED0
0890
0B60
0E30
3F00
2400
ENDCHAR
STARTCHAR ordmasculine
ENCODING 186
SWIDTH 329 0
DWIDTH 5 0
BBX 5 4 0 6
BITMAP
08ED10
3E1900
6B4500
2C9000
ENDCHAR
STARTCHAR guillemotright
ENCODING 187
SWIDTH 586 0
DWIDTH 8 0
BBX 8 5 0 1
BITMAP
0A309400
02A929A1
001B8199
39969A40
41042000
ENDCHAR
STARTCHAR onequarter
ENCODING 188
SWIDTH 749 0
DWIDTH 10 0
BBX 11 11 0 0
BITMAP
026000000000
3ED0001D2000
089000870000
0B6002D00000
0E300A500000
3F004B0A5B30
2400C30B7F10
0007902B6C00
001D106ADD10
00960000C600
03C00000F300
ENDCHAR
STARTCHAR onehalf
ENCODING 189
SWIDTH 745 0
DWIDTH 10 0
BBX 11 11 0 0
BITMAP
026000000000
3ED0001D2000
089000870000
0B6002D00000
0E300A500000
3F004B06DC10
2400C30D1F40
000790044C00
001D1002B200
0096001B1000
03C0006EDC00
ENDCHAR
STARTCHAR threequarters
ENCODING 190
SWIDTH 836 0
DWIDTH 12 0
BBX 12 10 0 0
BITMAP
04DD4000B400
076A7005B000
005A000D2000
2D1E50780000
3A1E42D17796
08950A6088E4
00003C00B4F1
0000C304BBE3
000690000990
001D10000C70
ENDCHAR
STARTCHAR questiondown
ENCODING 191
SWIDTH 439 0
DWIDTH 6 0
BBX 7 10 -1 -3
BITMAP
0000BD10
0000DE10
00001100
00007400
0002D100
003D4000
05F53400
1EC08F10
2FD06E00
07EDB300
ENDCHAR
STARTCHAR Agrave
ENCODING 192
SWIDTH 668 0
DWIDTH 9 0
BBX 10 16 0 -2
BITMAP
0000001D40
0000000C70
0000000890
0000000000
0000003BE8
000003BBF6
00003D1DF3
0001C61FE0
2ADEF97FB0
CC2F61AF70
44AE00BF40
02F900EF10
07F403FC00
0BF106F900
0BD0000000
0260000000
ENDCHAR
STARTCHAR Aacute
ENCODING 193
SWIDTH 668 0
DWIDTH 9 0
BBX 11 16 0 -2
BITMAP
000000000D80
000000005D10
00000000B600
000000000000
0000003BE800
000003BBF600
00003D1DF300
0001C61FE000
2ADEF97FB000
CC2F61AF7000
44AE00BF4000
02F900EF1000
07F403FC0000
0BF106F90000
0BD000000000
026000000000
ENDCHAR
STARTCHAR Acircumflex
ENCODING 194
SWIDTH 668 0
DWIDTH 9 0
BBX 11 16 0 -2
BITMAP
000000001C10
00000001DE40
0000001A4280
000000000000
0000003BE800
000003BBF600
00003D1DF300
0001C61FE000
2ADEF97FB000
CC2F61AF7000
44AE00BF4000
02F900EF1000
07F403FC0000
0BF106F90000
0BD000000000
026000000000
ENDCHAR
STARTCHAR Atilde
ENCODING 195
SWIDTH 668 0
DWIDTH 9 0
BBX 12 15 0 -2
BITMAP
0000008EEB71
000001126610
000000000000
0000003BE800
000003BBF600
00003D1DF300
0001C61FE000
2ADEF97FB000
CC2F61AF7000
44AE00BF4000
02F900EF1000
07F403FC0000
0BF106F90000
0BD000000000
026000000000
ENDCHAR
STARTCHAR Adieresis
ENCODING 196
SWIDTH 668 0
DWIDTH 9 0
BBX 11 15 0 -2
BITMAP
0000006D1D60
0000005A0B40
000000000000
0000003BE800
000003BBF600
00003D1DF300
0001C61FE000
2ADEF97FB000
CC2F61AF7000
44AE00BF4000
02F900EF1000
07F403FC0000
0BF106F90000
0BD000000000
026000000000
ENDCHAR
STARTCHAR Aring
ENCODING 197
SWIDTH 668 0
DWIDTH 9 0
BBX 10 16 0 -2
BITMAP
00000003D5
0000000828
00000005D4
0000000000
0000003BE8
000003BBF6
00003D1DF3
0001C61FE0
2ADEF97FB0
CC2F61AF70
44AE00BF40
02F900EF10
07F403FC00
0BF106F900
0BD0000000
0260000000
ENDCHAR
STARTCHAR AE
ENCODING 198
SWIDTH 764 0
DWIDTH 11 0
BBX 13 12 0 -2
BITMAP
0000003BFCCC50
0000048AF40000
00003C0DF10000
0001D42FD00000
3ACEEBAFFEB000
CB2F508F711000
21AE00CF400000
02F900FF100000
07F403FE000000
0BF106FFDDA000
0BD00000000000
02600000000000
ENDCHAR
STARTCHAR Ccedilla
ENCODING 199
SWIDTH 497 0
DWIDTH 7 0
BBX 8 13 0 -3
BITMAP
001AEDA1
01DF60B6
09FB01E5
1FF40020
6FE00000
9FB00000
BF900000
AFA00011
6FE304A1
09EFFB20
000B3000
003DE000
00675000
ENDCHAR
STARTCHAR Egrave
ENCODING 200
SWIDTH 459 0
DWIDTH 6 0
BBX 7 14 0 0
BITMAP
0005F100
0001F300
0000A400
00000000
0019ED50
00BE24D0
01FA07A0
01FC0100
00AF7000
0CF90000
8FD00000
DF900010
BFB00540
3CED9300
ENDCHAR
STARTCHAR Eacute
ENCODING 201
SWIDTH 459 0
DWIDTH 6 0
BBX 8 14 0 0
BITMAP
000005E1
00000D50
00002600
00000000
0019ED50
00BE24D0
01FA07A0
01FC0100
00AF7000
0CF90000
8FD00000
DF900010
BFB00540
3CED9300
ENDCHAR
STARTCHAR Ecircumflex
ENCODING 202
SWIDTH 459 0
DWIDTH 6 0
BBX 7 14 0 0
BITMAP
00001B40
0002C990
00051040
00000000
0019ED50
00BE24D0
01FA07A0
01FC0100
00AF7000
0CF90000
8FD00000
DF900010
BFB00540
3CED9300
ENDCHAR
STARTCHAR Edieresis
ENCODING 203
SWIDTH 459 0
DWIDTH 6 0
BBX 8 13 0 0
BITMAP
0007D1D5
0005A0B4
00000000
0019ED50
00BE24D0
01FA07A0
01FC0100
00AF7000
0CF90000
8FD00000
DF900010
BFB00540
3CED9300
ENDCHAR
STARTCHAR Igrave
ENCODING 204
SWIDTH 375 0
DWIDTH 5 0
BBX 6 14 0 0
BITMAP
000B70
0009A0
0005C0
000000
006BE7
1B5CF3
9A1FF0
D64FC0
657F80
00AF50
00EF20
02FD00
05FA00
09F700
ENDCHAR
STARTCHAR Iacute
ENCODING 205
SWIDTH 375 0
DWIDTH 5 0
BBX 7 14 0 0
BITMAP
00000D80
00004E10
0000A700
00000000
006BE700
1B5CF300
9A1FF000
D64FC000
657F8000
00AF5000
00EF2000
02FD0000
05FA0000
09F70000
ENDCHAR
STARTCHAR Icircumflex
ENCODING 206
SWIDTH 375 0
DWIDTH 5 0
BBX 7 14 0 0
BITMAP
00003B00
0003EE10
003A2450
00000000
006BE700
1B5CF300
9A1FF000
D64FC000
657F8000
00AF5000
00EF2000
02FD0000
05FA0000
09F70000
ENDCHAR
STARTCHAR Idieresis
ENCODING 207
SWIDTH 375 0
DWIDTH 5 0
BBX 7 13 0 0
BITMAP
003E2AA0
002C2880
00000000
006BE700
1B5CF300
9A1FF000
D64FC000
657F8000
00AF5000
00EF2000
02FD0000
05FA0000
09F70000
ENDCHAR
STARTCHAR Eth
ENCODING 208
SWIDTH 663 0
DWIDTH 9 0
BBX 9 10 0 0
BITMAP
017CDDC600
2D97826F70
BA1FF00FD0
D64FB00EF0
23EFE70FE0
00BF402FC0
00EF106F80
03FD00CF20
06FA07F800
09FCCE7000
ENDCHAR
STARTCHAR Ntilde
ENCODING 209
SWIDTH 686 0
DWIDTH 10 0
BBX 10 13 0 0
BITMAP
00001AED86
0000359DA2
0000000000
029CF7006E
2D4CFB00AB
B90FFF00D7
D74FEF31F4
787E8F74F1
00AB4FB7C0
00E71FEB80
02F30CFF50
06E008FF20
09B004FD00
ENDCHAR
STARTCHAR Ograve
ENCODING 210
SWIDTH 665 0
DWIDTH 9 0
BBX 10 14 0 0
BITMAP
00009C0000
00005E0000
00001D1000
0000000000
0029CDDA10
07D5772EB0
6E2CE20BF1
B97F900BF2
66DF300CF1
03FD001FD0
06FA006F80
07F901DE10
04FC3BF400
008EEB3000
ENDCHAR
STARTCHAR Oacute
ENCODING 211
SWIDTH 665 0
DWIDTH 9 0
BBX 10 14 0 0
BITMAP
0000006E10
000000C700
000003D000
0000000000
0029CDDA10
07D5772EB0
6E2CE20BF1
B97F900BF2
66DF300CF1
03FD001FD0
06FA006F80
07F901DE10
04FC3BF400
008EEB3000
ENDCHAR
STARTCHAR Ocircumflex
ENCODING 212
SWIDTH 665 0
DWIDTH 9 0
BBX 10 14 0 0
BITMAP
000000A300
00000AE700
0000961900
0000000000
0029CDDA10
07D5772EB0
6E2CE20BF1
B97F900BF2
66DF300CF1
03FD001FD0
06FA006F80
07F901DE10
04FC3BF400
008EEB3000
ENDCHAR
STARTCHAR Otilde
ENCODING 213
SWIDTH 665 0
DWIDTH 9 0
BBX 10 13 0 0
BITMAP
00006DEB82
0000126720
0000000000
0029CDDA10
07D5772EB0
6E2CE20BF1
B97F900BF2
66DF300CF1
03FD001FD0
06FA006F80
07F901DE10
04FC3BF400
008EEB3000
ENDCHAR
STARTCHAR Odieresis
ENCODING 214
SWIDTH 665 0
DWIDTH 9 0
BBX 10 13 0 0
BITMAP
0000B84E20
0000963C10
0000000000
0029CDDA10
07D5772EB0
6E2CE20BF1
B97F900BF2
66DF300CF1
03FD001FD0
06FA006F80
07F901DE10
04FC3BF400
008EEB3000
ENDCHAR
STARTCHAR multiply
ENCODING 215
SWIDTH 414 0
DWIDTH 6 0
BBX 5 5 0 2
BITMAP
2B14A0
0ADE60
04FD10
2E6BC0
030030
ENDCHAR
STARTCHAR Oslash
ENCODING 216
SWIDTH 658 0
DWIDTH 9 0
BBX 9 11 0 -1
BITMAP
004ACDE700
09C8DD9F60
7D3FD83EB0
B8AF6A0FC0
45FF1B2FB0
05FB296F80
07F855BF40
08F785FC00
05FABDE200
009EFA2000
0003800000
ENDCHAR
STARTCHAR Ugrave
ENCODING 217
SWIDTH 716 0
DWIDTH 10 0
BBX 11 14 0 0
BITMAP
000003F30000
000000D50000
000000860000
000000000000
006BEB008F70
2C67F700BF40
C80BF300EF10
F40FE003FC00
634F9007F900
008F500AF500
00BF200EF100
00DF006FA000
00CF86EE2000
004CFEB30000
ENDCHAR
STARTCHAR Uacute
ENCODING 218
SWIDTH 716 0
DWIDTH 10 0
BBX 11 14 0 0
BITMAP
0000000BA000
0000004E1000
000000530000
000000000000
006BEB008F70
2C67F700BF40
C80BF300EF10
F40FE003FC00
634F9007F900
008F500AF500
00BF200EF100
00DF006FA000
00CF86EE2000
004CFEB30000
ENDCHAR
STARTCHAR Ucircumflex
ENCODING 219
SWIDTH 716 0
DWIDTH 10 0
BBX 11 14 0 0
BITMAP
000000097000
000001BAB000
000005204000
000000000000
006BEB008F70
2C67F700BF40
C80BF300EF10
F40FE003FC00
634F9007F900
008F500AF500
00BF200EF100
00DF006FA000
00CF86EE2000
004CFEB30000
ENDCHAR
STARTCHAR Udieresis
ENCODING 220
SWIDTH 716 0
DWIDTH 10 0
BBX 11 13 0 0
BITMAP
000008C1E500
000006A1B400
000000000000
006BEB008F70
2C67F700BF40
C80BF300EF10
F40FE003FC00
634F9007F900
008F500AF500
00BF200EF100
00DF006FA000
00CF86EE2000
004CFEB30000
ENDCHAR
STARTCHAR Yacute
ENCODING 221
SWIDTH 620 0
DWIDTH 9 0
BBX 10 14 0 0
BITMAP
00000001F5
00000007C0
0000000D30
0000000000
006BEA0068
1B86FE00B1
9B02FF3390
D700DF6920
65009FBA00
00005FF300
00005FE000
00008FA000
0000CF7000
0000FF4000
ENDCHAR
STARTCHAR Thorn
ENCODING 222
SWIDTH 583 0
DWIDTH 8 0
BBX 9 11 0 0
BITMAP
0002540000
000AF50000
004EFDA200
0AAFE1AD00
8C4FB04F30
D77F805F30
A6BF50CD00
01EF28F400
02FFDA3000
05FB000000
09F7000000
ENDCHAR
STARTCHAR germandbls
ENCODING 223
SWIDTH 480 0
DWIDTH 7 0
BBX 9 14 -2 -4
BITMAP
00006DE600
0005F76C00
000CF28A00
001FE0C300
005FB4B000
008F72E600
00BF40AE00
00EF109F10
02FD10DD00
06FA9EC300
09F6000000
0CF3000000
0FE0000000
1300000000
ENDCHAR
STARTCHAR agrave
ENCODING 224
SWIDTH 526 0
DWIDTH 7 0
BBX 9 10 -1 0
BITMAP
0000C90000
00008B0000
00003B0000
004CECF900
03ED1AF600
0AF50CF300
1FF11FE000
2FE04FC050
1FF5BFC670
08EC3CE800
ENDCHAR
STARTCHAR aacute
ENCODING 225
SWIDTH 526 0
DWIDTH 7 0
BBX 9 10 -1 0
BITMAP
000009C000
00002E2000
0000230000
004CECF900
03ED1AF600
0AF50CF300
1FF11FE000
2FE04FC050
1FF5BFC670
08EC3CE800
ENDCHAR
STARTCHAR acircumflex
ENCODING 226
SWIDTH 526 0
DWIDTH 7 0
BBX 9 10 -1 0
BITMAP
0000079000
0001A9C100
0003101100
004CECF900
03ED1AF600
0AF50CF300
1FF11FE000
2FE04FC050
1FF5BFC670
08EC3CE800
ENDCHAR
STARTCHAR atilde
ENCODING 227
SWIDTH 526 0
DWIDTH 7 0
BBX 9 10 -1 0
BITMAP
0006EE9720
00157CC500
0000000000
004CECF900
03ED1AF600
0AF50CF300
1FF11FE000
2FE04FC050
1FF5BFC670
08EC3CE800
ENDCHAR
STARTCHAR adieresis
ENCODING 228
SWIDTH 526 0
DWIDTH 7 0
BBX 9 10 -1 0
BITMAP
0004E2B800
0003B19600
0000000000
004CECF900
03ED1AF600
0AF50CF300
1FF11FE000
2FE04FC050
1FF5BFC670
08EC3CE800
ENDCHAR
STARTCHAR aring
ENCODING 229
SWIDTH 526 0
DWIDTH 7 0
BBX 9 10 -1 0
BITMAP
00005D3000
0000927000
00006D2000
004CECF900
03ED1AF600
0AF50CF300
1FF11FE000
2FE04FC050
1FF5BFC670
08EC3CE800
ENDCHAR
STARTCHAR ae
ENCODING 230
SWIDTH 650 0
DWIDTH 9 0
BBX 11 7 -1 0
BITMAP
004CED8DE800
00502FF84C00
00002FE3C600
03BDEFEC6000
0EF37F900130
1FE0CFB02800
09FC6CFC8000
ENDCHAR
STARTCHAR ccedilla
ENCODING 231
SWIDTH 384 0
DWIDTH 5 0
BBX 7 10 -1 -3
BITMAP
003CEB00
02ED1F10
0AF60400
0EF10000
2FE00030
1FF21840
07EFD400
000A0000
001CF200
00577000
ENDCHAR
STARTCHAR egrave
ENCODING 232
SWIDTH 384 0
DWIDTH 5 0
BBX 7 10 -1 0
BITMAP
000AB000
0005E000
0001D000
003CEC00
02EB1F10
0AF49A00
0FFD8100
2FE00050
1FF10720
07ED9200
ENDCHAR
STARTCHAR eacute
ENCODING 233
SWIDTH 384 0
DWIDTH 5 0
BBX 7 10 -1 0
BITMAP
00000D70
00006B00
00004100
003CEC00
02EB1F10
0AF49A00
0FFD8100
2FE00050
1FF10720
07ED9200
ENDCHAR
STARTCHAR ecircumflex
ENCODING 234
SWIDTH 384 0
DWIDTH 5 0
BBX 7 10 -1 0
BITMAP
00004C00
0007BA40
00220030
003CEC00
02EB1F10
0AF49A00
0FFD8100
2FE00050
1FF10720
07ED9200
ENDCHAR
STARTCHAR edieresis
ENCODING 235
SWIDTH 384 0
DWIDTH 5 0
BBX 7 10 -1 0
BITMAP
002E39A0
002C2780
00000000
003CEC00
02EB1F10
0AF49A00
0FFD8100
2FE00050
1FF10720
07ED9200
ENDCHAR
STARTCHAR igrave
ENCODING 236
SWIDTH 267 0
DWIDTH 4 0
BBX 6 10 -1 0
BITMAP
01F500
00C700
006800
02FD00
06FA00
09F600
0CF300
0FF032
1FF6A0
0AEB20
ENDCHAR
STARTCHAR iacute
ENCODING 237
SWIDTH 267 0
DWIDTH 4 0
BBX 6 10 -1 0
BITMAP
0007D1
001E30
001300
02FD00
06FA00
09F600
0CF300
0FF032
1FF6A0
0AEB20
ENDCHAR
STARTCHAR icircumflex
ENCODING 238
SWIDTH 267 0
DWIDTH 4 0
BBX 6 10 -1 0
BITMAP
001970
02B7B0
030020
02FD00
06FA00
09F600
0CF300
0FF032
1FF6A0
0AEB20
ENDCHAR
STARTCHAR idieresis
ENCODING 239
SWIDTH 267 0
DWIDTH 4 0
BBX 6 10 -1 0
BITMAP
08B3E2
0792C2
000000
02FD00
06FA00
09F600
0CF300
0FF032
1FF6A0
0AEB20
ENDCHAR
STARTCHAR eth
ENCODING 240
SWIDTH 526 0
DWIDTH 7 0
BBX 9 11 -1 0
BITMAP
0000031000
00001DB860
0001ADF710
000015F800
004CECF800
03ED1AF700
0AF60CF400
1FF20FF100
2FE03FD010
1FE09FB180
08EC7DE800
ENDCHAR
STARTCHAR ntilde
ENCODING 241
SWIDTH 505 0
DWIDTH 7 0
BBX 9 10 -1 0
BITMAP
001BFC8500
00459C9100
0000000000
02FEBE9000
06FC1FE000
09F61FD000
0CF34FA000
0FF07F7150
3FC08F9930
6F903DE600
ENDCHAR
STARTCHAR ograve
ENCODING 242
SWIDTH 433 0
DWIDTH 6 0
BBX 9 10 -1 0
BITMAP
0005F10000
0001F30000
0000A40000
004CEA0000
03FC1D4040
0BF53FB710
1FF10E3000
4FD03E0000
3FD0A70000
08ED700000
ENDCHAR
STARTCHAR oacute
ENCODING 243
SWIDTH 439 0
DWIDTH 6 0
BBX 9 10 -1 0
BITMAP
00000D8000
00006C0000
0000420000
003BEB1000
02ED1C5040
0AF61FB820
1FF20D4000
2FE02F1000
1FE0980000
07ED800000
ENDCHAR
STARTCHAR ocircumflex
ENCODING 244
SWIDTH 433 0
DWIDTH 6 0
BBX 9 10 -1 0
BITMAP
00006B0000
0009AB2000
0022012000
004CEA0000
03FC1D4040
0BF53FB710
1FF10E3000
4FD03E0000
3FD0A70000
08ED700000
ENDCHAR
STARTCHAR otilde
ENCODING 245
SWIDTH 433 0
DWIDTH 6 0
BBX 9 10 -1 0
BITMAP
008ED87100
0258DD4000
0000000000
004CEA0000
03FC1D4040
0BF53FB710
1FF10E3000
4FD03E0000
3FD0A70000
08ED700000
ENDCHAR
STARTCHAR odieresis
ENCODING 246
SWIDTH 433 0
DWIDTH 6 0
BBX 9 10 -1 0
BITMAP
005E1C8000
004B0A6000
0000000000
004CEA0000
03FC1D4040
0BF53FB710
1FF10E3000
4FD03E0000
3FD0A70000
08ED700000
ENDCHAR
STARTCHAR divide
ENCODING 247
SWIDTH 415 0
DWIDTH 6 0
BBX 6 7 0 1
BITMAP
004E60
005F80
000200
4DDDD7
001000
03FA00
02E900
ENDCHAR
STARTCHAR oslash
ENCODING 248
SWIDTH 428 0
DWIDTH 6 0
BBX 8 8 -1 -1
BITMAP
003BEB94
02ED1B70
0AF63F60
1FF4BE50
2FFB4E10
1FF4A700
0CEC7000
84000000
ENDCHAR
STARTCHAR ugrave
ENCODING 249
SWIDTH 505 0
DWIDTH 7 0
BBX 9 10 -1 0
BITMAP
0004F20000
0000E40000
0000950000
02FD0BF500
06FA0EF200
09F62FD000
0CF35FA000
0FF09F7140
1FF6EFA930
0AEA4ED500
ENDCHAR
STARTCHAR uacute
ENCODING 250
SWIDTH 505 0
DWIDTH 7 0
BBX 9 10 -1 0
BITMAP
00000AB000
00003D1000
0000220000
02FD0BF500
06FA0EF200
09F62FD000
0CF35FA000
0FF09F7140
1FF6EFA930
0AEA4ED500
ENDCHAR
STARTCHAR ucircumflex
ENCODING 251
SWIDTH 505 0
DWIDTH 7 0
BBX 9 10 -1 0
BITMAP
00002C3000
0005B78000
0002002000
02FD0BF500
06FA0EF200
09F62FD000
0CF35FA000
0FF09F7140
1FF6EFA930
0AEA4ED500
ENDCHAR
STARTCHAR udieresis
ENCODING 252
SWIDTH 505 0
DWIDTH 7 0
BBX 9 10 -1 0
BITMAP
000D66D000
000B54B000
0000000000
02FD0BF500
06FA0EF200
09F62FD000
0CF35FA000
0FF09F7140
1FF6EFA930
0AEA4ED500
ENDCHAR
STARTCHAR yacute
ENCODING 253
SWIDTH 505 0
DWIDTH 7 0
BBX 9 13 -1 -3
BITMAP
00000AA000
00004D1000
0000220000
02FD0BF500
06FA0EF100
09F62FD000
0CF35FA000
0FF09F7220
1FF7FF4800
0AEBFF7200
007BFC0000
059AF70000
02DE900000
ENDCHAR
STARTCHAR thorn
ENCODING 254
SWIDTH 473 0
DWIDTH 7 0
BBX 9 15 -2 -4
BITMAP
0001440000
0007F80000
000BF40000
000EF10000
002FEBE900
005FB0CF20
009F60BF30
00CF30DF10
00FF03FC00
03FC0BF400
07FDDD5000
0AF5000000
0DF2000000
1FE0000000
1300000000
ENDCHAR
STARTCHAR ydieresis
ENCODING 255
SWIDTH 505 0
DWIDTH 7 0
BBX 9 13 -1 -3
BITMAP
002E48B000
001C379000
0000000000
02FD0BF500
06FA0EF100
09F62FD000
0CF35FA000
0FF09F7220
1FF7FF4800
0AEBFF7200
007BFC0000
059AF70000
02DE900000
ENDCHAR
STARTCHAR Amacron
ENCODING 256
SWIDTH 668 0
DWIDTH 9 0
BBX 11 15 0 -2
BITMAP
0000008DDDB0
000000000000
000000000000
0000003BE800
000003BBF600
00003D1DF300
0001C61FE000
2ADEF97FB000
CC2F61AF7000
44AE00BF4000
02F900EF1000
07F403FC0000
0BF106F90000
0BD000000000
026000000000
ENDCHAR
STARTCHAR amacron
ENCODING 257
SWIDTH 526 0
DWIDTH 7 0
BBX 9 10 -1 0
BITMAP
0008DDDB00
0000000000
0000000000
004CECF900
03ED1AF600
0AF50CF300
1FF11FE000
2FE04FC050
1FF5BFC670
08EC3CE800
ENDCHAR
STARTCHAR Abreve
ENCODING 258
SWIDTH 668 0
DWIDTH 9 0
BBX 12 15 0 -2
BITMAP
0000007D01D5
0000001ACA40
000000000000
0000003BE800
000003BBF600
00003D1DF300
0001C61FE000
2ADEF97FB000
CC2F61AF7000
44AE00BF4000
02F900EF1000
07F403FC0000
0BF106F90000
0BD000000000
026000000000
ENDCHAR
STARTCHAR abreve
ENCODING 259
SWIDTH 526 0
DWIDTH 7 0
BBX 9 10 -1 0
BITMAP
000C805E10
0003BB9200
0000000000
004CECF900
03ED1AF600
0AF50CF300
1FF11FE000
2FE04FC050
1FF5BFC670
08EC3CE800
ENDCHAR
STARTCHAR Aogonek
ENCODING 260
SWIDTH 668 0
DWIDTH 9 0
BBX 10 13 0 -3
BITMAP
0000003BE8
000003BBF6
00003D1DF3
0001C61FE0
2ADEF97FB0
CC2F61AF70
449E10BF40
01F900EF10
07F503FC00
0BF106F900
0CE0068000
04A00D5200
000009C300
ENDCHAR
STARTCHAR aogonek
ENCODING 261
SWIDTH 526 0
DWIDTH 7 0
BBX 9 10 -1 -3
BITMAP
004CECF900
03ED1AF600
0AF60CF300
1FF20FF100
2FE03FC020
1FE09FB180
08EC6DFB10
000007A000
00000D4200
000009C300
ENDCHAR
STARTCHAR Cacute
ENCODING 262
SWIDTH 497 0
DWIDTH 7 0
BBX 8 14 0 0
BITMAP
000004F2
00000C70
00001700
00000000
001AEDA1
01DF60B6
09FB01E5
2FF40030
6FE00000
9FB00000
BFA00000
AFA00001
6FD10281
08DEB710
ENDCHAR
STARTCHAR cacute
ENCODING 263
SWIDTH 384 0
DWIDTH 5 0
BBX 7 10 -1 0
BITMAP
000009C0
00002E20
00002300
003CEB00
02ED1F10
0AF60500
0EF10000
2FE00020
1FE10640
07EDA300
ENDCHAR
STARTCHAR Ccircumflex
ENCODING 264
SWIDTH 497 0
DWIDTH 7 0
BBX 8 14 0 0
BITMAP
00001B40
0002C990
00051040
00000000
001AEDA1
01DF60B6
09FB01E5
2FF40030
6FE00000
9FB00000
BFA00000
AFA00001
6FD10281
08DEB710
ENDCHAR
STARTCHAR ccircumflex
ENCODING 265
SWIDTH 384 0
DWIDTH 5 0
BBX 7 10 -1 0
BITMAP
00004D00
0007BA40
00130030
003CEB00
02ED1F10
0AF60500
0EF10000
2FE00020
1FE10640
07EDA300
ENDCHAR
STARTCHAR Cdotaccent
ENCODING 266
SWIDTH 497 0
DWIDTH 7 0
BBX 8 14 0 0
BITMAP
000009E2
00000BF3
00000010
00000000
001AEDA1
01DF60B6
09FB01E5
2FF40030
6FE00000
9FB00000
BFA00000
AFA00001
6FD10281
08DEB710
ENDCHAR
STARTCHAR cdotaccent
ENCODING 267
SWIDTH 384 0
DWIDTH 5 0
BBX 7 10 -1 0
BITMAP
0000AD10
0000CF20
00000100
003CEB00
02ED1F10
0AF60500
0EF10000
2FE00020
1FE10640
07EDA300
ENDCHAR
STARTCHAR Ccaron
ENCODING 268
SWIDTH 497 0
DWIDTH 7 0
BBX 8 14 0 0
BITMAP
00009277
00006F60
00001400
00000000
001AEDA1
01DF60B6
09FB01E5
2FF40030
6FE00000
9FB00000
BFA00000
AFA00001
6FD10281
08DEB710
ENDCHAR
STARTCHAR ccaron
ENCODING 269
SWIDTH 384 0
DWIDTH 5 0
BBX 8 10 -1 0
BITMAP
00019394
0000BC20
00002100
003CEB00
02ED1F10
0AF60300
0EF10000
2FE00040
1FF44920
07EEA200
ENDCHAR
STARTCHAR Dcaron
ENCODING 270
SWIDTH 663 0
DWIDTH 9 0
BBX 9 14 0 0
BITMAP
0000826800
00005F8000
0000050000
0000000000
005BDED600
1BB6628F50
9C0EF10FC0
D73FD00EF0
866F900FE0
00AF602FC0
00DF206F80
02FE00CF20
05FB07F800
09FCCE7000
ENDCHAR
STARTCHAR dcaron
ENCODING 271
SWIDTH 525 0
DWIDTH 7 0
BBX 11 10 -1 0
BITMAP
000000022E60
000000DF2B40
000002FE0400
004CECFB0000
03ED1AF80000
0AF60CF40000
1FF20FF10000
2FE03FD01000
1FE08FA18000
08EC6DE80000
ENDCHAR
STARTCHAR Dcroat
ENCODING 272
SWIDTH 663 0
DWIDTH 9 0
BBX 9 10 0 0
BITMAP
017CDDC600
2D97826F70
BA1FF00FD0
D64FB00EF0
23EFE70FE0
00BF402FC0
00EF106F80
03FD00CF20
06FA07F800
09FCCE7000
ENDCHAR
STARTCHAR dcroat
ENCODING 273
SWIDTH 525 0
DWIDTH 7 0
BBX 10 11 -1 0
BITMAP
0000000110
000000CF20
00003DFFD1
000003FC00
004CECF900
03ED1AF600
0AF60CF300
1FF20FF000
2FE03FC010
1FE08FA180
08EC6DE800
ENDCHAR
STARTCHAR Emacron
ENCODING 274
SWIDTH 459 0
DWIDTH 6 0
BBX 8 13 0 0
BITMAP
000ADDD9
00000000
00000000
0019ED50
00BE24D0
01FA07A0
01FC0100
00AF7000
0CF90000
8FD00000
DF900010
BFB00540
3CED9300
ENDCHAR
STARTCHAR emacron
ENCODING 275
SWIDTH 384 0
DWIDTH 5 0
BBX 7 10 -1 0
BITMAP
00ADDD90
00000000
00000000
003CEC00
02EB1F10
0AF49A00
0FFD8100
2FE00050
1FF10720
07ED9200
ENDCHAR
STARTCHAR Ebreve
ENCODING 276
SWIDTH 459 0
DWIDTH 6 0
BBX 9 14 0 0
BITMAP
0001000100
000C805E10
0003BB9200
0000000000
0019ED5000
00BE24D000
01FA07A000
01FC010000
00AF700000
0CF9000000
8FD0000000
DF90001000
BFB0054000
3CED930000
ENDCHAR
STARTCHAR ebreve
ENCODING 277
SWIDTH 384 0
DWIDTH 5 0
BBX 7 10 -1 0
BITMAP
00D606D0
004CB910
00000000
003CEC00
02EB1F10
0AF49A00
0FFD8100
2FE00050
1FF10720
07ED9200
ENDCHAR
STARTCHAR Edotaccent
ENCODING 278
SWIDTH 459 0
DWIDTH 6 0
BBX 7 14 0 0
BITMAP
00004E70
00005F90
00000200
00000000
0019ED50
00BE24D0
01FA07A0
01FC0100
00AF7000
0CF90000
8FD00000
DF900010
BFB00540
3CED9300
ENDCHAR
STARTCHAR edotaccent
ENCODING 279
SWIDTH 384 0
DWIDTH 5 0
BBX 7 10 -1 0
BITMAP
0000BD10
0000DE10
00001100
003CEC00
02EB1F10
0AF49A00
0FFD8100
2FE00050
1FF10720
07ED9200
ENDCHAR
STARTCHAR Eogonek
ENCODING 280
SWIDTH 459 0
DWIDTH 6 0
BBX 7 13 0 -3
BITMAP
007DEC40
06F904D0
0AF407D0
06F90110
01CF8000
2DF80000
AFC00000
CFB00020
9FF63750
19EFF700
00068000
000C5200
0008C400
ENDCHAR
STARTCHAR eogonek
ENCODING 281
SWIDTH 384 0
DWIDTH 5 0
BBX 7 10 -1 -3
BITMAP
003CEC00
02EB1F10
0AF49A00
0FFD8100
2FE00160
1FF55B20
07EFD200
000B1000
004D1100
002C9100
ENDCHAR
STARTCHAR Ecaron
ENCODING 282
SWIDTH 459 0
DWIDTH 6 0
BBX 8 14 0 0
BITMAP
00008268
00005F80
00000500
00000000
0019ED50
00BE24D0
01FA07A0
01FC0100
00AF7000
0CF90000
8FD00000
DF900010
BFB00540
3CED9300
ENDCHAR
STARTCHAR ecaron
ENCODING 283
SWIDTH 384 0
DWIDTH 5 0
BBX 8 10 -1 0
BITMAP
00028394
0000BC20
00002000
003CEC00
02EC1F10
0AF48A00
0FFA7000
2FE00050
1FF11710
07ED9100
ENDCHAR
STARTCHAR Gcircumflex
ENCODING 284
SWIDTH 578 0
DWIDTH 8 0
BBX 8 17 0 -3
BITMAP
000002C0
00002DE2
0001A446
00010001
003ADDC4
05FE407D
2EF400AA
8FB00000
AF7001B6
AF7007F6
5FB03EF2
07DC8FE0
00003FB0
03CA6F70
0D52AF20
0E52EA00
04CD8000
ENDCHAR
STARTCHAR gcircumflex
ENCODING 285
SWIDTH 507 0
DWIDTH 7 0
BBX 9 13 -1 -3
BITMAP
0000079000
0001A9C100
0003101100
004CECF900
03ED1AF600
0AF60CF300
1FF20FF000
2FE03FC010
1FE09F8350
08ECDFA600
0027EF2000
00B4FC0000
00BEC20000
ENDCHAR
STARTCHAR Gbreve
ENCODING 286
SWIDTH 578 0
DWIDTH 8 0
BBX 9 17 0 -3
BITMAP
0000100010
0000E508C0
00005CB810
0000000000
003ADDC400
05FE408D00
2EF400BB00
8FB0000000
AF7001A500
AF7007F600
5FB03EF300
07DC8FE000
00003FB000
03CA6F7000
0D52AF2000
0E52EA0000
04CD910000
ENDCHAR
STARTCHAR gbreve
ENCODING 287
SWIDTH 507 0
DWIDTH 7 0
BBX 9 13 -1 -3
BITMAP
000C805E10
0003BB9200
0000000000
004CECF900
03ED1AF600
0AF60CF300
1FF20FF000
2FE03FC010
1FE09F8350
08ECDFA600
0027EF2000
00B4FC0000
00BEC20000
ENDCHAR
STARTCHAR Gdotaccent
ENCODING 288
SWIDTH 578 0
DWIDTH 8 0
BBX 8 17 0 -3
BITMAP
00002EA0
00002FC0
00000100
00000000
003ADDC4
05FE408D
2EF400BB
8FB00000
AF7001A5
AF7007F6
5FB03EF3
07DC8FE0
00003FB0
03CA6F70
0D52AF20
0E52EA00
04CD9100
ENDCHAR
STARTCHAR gdotaccent
ENCODING 289
SWIDTH 507 0
DWIDTH 7 0
BBX 9 13 -1 -3
BITMAP
00002E9000
00003FB000
0000010000
004CECF900
03ED1AF600
0AF60CF300
1FF20FF000
2FE03FC010
1FE09F8350
08ECDFA600
0027EF2000
00B4FC0000
00BEC20000
ENDCHAR
STARTCHAR Gcommaaccent
ENCODING 290
SWIDTH 578 0
DWIDTH 8 0
BBX 8 14 0 -4
BITMAP
0018DD90
01DF41F4
0BF804F3
4FF10010
9FB00000
CF8004F6
DF6008F2
CF700DE0
7FB08FB0
19ECAF70
00000000
001E3000
000C2000
00030000
ENDCHAR
STARTCHAR gcommaaccent
ENCODING 291
SWIDTH 507 0
DWIDTH 7 0
BBX 9 14 -1 -3
BITMAP
0000081000
00003E1000
0000160000
0000000000
004CECF900
03ED1AF600
0AF60CF300
1FF20FF000
2FE03FC010
1FE09F8350
08ECDFA600
0027EF2000
00B4FC0000
00BEC20000
ENDCHAR
STARTCHAR Hcircumflex
ENCODING 292
SWIDTH 665 0
DWIDTH 9 0
BBX 10 14 0 0
BITMAP
0000001B20
000001BE60
0000195180
0000000000
005AE806F9
0A6BF50AF6
8B0EF10DF2
C82FD01FE0
566FFFFFB0
009F608F70
00CF30BF40
01FE00EF10
04FB03FC00
07F806F900
ENDCHAR
STARTCHAR hcircumflex
ENCODING 293
SWIDTH 505 0
DWIDTH 7 0
BBX 9 13 -1 0
BITMAP
0000410000
0006F60000
0077290000
0037400000
00AF400000
00EF100000
02FEBE8000
05FC1FE000
08F61FE000
0CF34FB000
0FF07F7020
3FC08F6440
6F903DD600
ENDCHAR
STARTCHAR Hbar
ENCODING 294
SWIDTH 665 0
DWIDTH 9 0
BBX 11 10 0 0
BITMAP
005BE806F900
1B7BF40AF500
8B7FFBBFFB30
C83FD02FD000
556FEDEFA000
00AF608F7000
00DF30BF4000
01FE00EF1000
04FB03FC0000
07F806F90000
ENDCHAR
STARTCHAR hbar
ENCODING 295
SWIDTH 505 0
DWIDTH 7 0
BBX 9 11 -1 0
BITMAP
0001100000
008F600000
0AFFD70000
00EF100000
03FEBE8000
06FC1FE000
09F61FE000
0CF34FB000
1FF07F7020
3FC08F6440
6F903DD600
ENDCHAR
STARTCHAR Itilde
ENCODING 296
SWIDTH 375 0
DWIDTH 5 0
BBX 8 13 0 0
BITMAP
006DEB82
00126720
00000000
006BE700
1B5CF300
9A1FF000
D64FC000
657F8000
00AF5000
00EF2000
02FD0000
05FA0000
09F70000
ENDCHAR
STARTCHAR itilde
ENCODING 297
SWIDTH 267 0
DWIDTH 4 0
BBX 6 10 -1 0
BITMAP
03EC81
047C50
000000
02FD00
06FA00
09F600
0CF300
0FF032
1FF6A0
0AEB20
ENDCHAR
STARTCHAR Imacron
ENCODING 298
SWIDTH 375 0
DWIDTH 5 0
BBX 7 13 0 0
BITMAP
00ADDDA0
00000000
00000000
006BE700
1B5CF300
9A1FF000
D64FC000
657F8000
00AF5000
00EF2000
02FD0000
05FA0000
09F70000
ENDCHAR
STARTCHAR imacron
ENCODING 299
SWIDTH 267 0
DWIDTH 4 0
BBX 6 10 -1 0
BITMAP
08DDD1
000000
000000
02FD00
06FA00
09F600
0CF300
0FF032
1FF6A0
0AEB20
ENDCHAR
STARTCHAR Ibreve
ENCODING 300
SWIDTH 375 0
DWIDTH 5 0
BBX 8 13 0 0
BITMAP
007C02D4
001ACA40
00000000
006BE700
1B5CF300
9A1FF000
D64FC000
657F8000
00AF5000
00EF2000
02FD0000
05FA0000
09F70000
ENDCHAR
STARTCHAR ibreve
ENCODING 301
SWIDTH 267 0
DWIDTH 4 0
BBX 6 10 -1 0
BITMAP
07A097
01BB70
000000
02FD00
06FA00
09F600
0CF300
0FF032
1FF6A0
0AEB20
ENDCHAR
STARTCHAR Iogonek
ENCODING 302
SWIDTH 375 0
DWIDTH 5 0
BBX 6 17 0 -3
BITMAP
006C00
003F10
000E30
000000
006BE7
1B8CF3
9B0FF0
D73FC0
657F80
00AF50
00DF20
02FD00
05FA00
09F700
0A3000
2F2300
0AD600
ENDCHAR
STARTCHAR iogonek
ENCODING 303
SWIDTH 267 0
DWIDTH 4 0
BBX 6 13 -1 -3
BITMAP
008E30
009F40
000100
02FD00
06FA00
09F600
0CF300
0FF032
1FF6A0
0BFB20
3B0000
8A1300
4DB200
ENDCHAR
STARTCHAR Idotaccent
ENCODING 304
SWIDTH 375 0
DWIDTH 5 0
BBX 7 14 0 0
BITMAP
00001100
0001EE10
0000CC00
00000000
006BE700
1B5CF300
9A1FF000
D64FC000
657F8000
00AF5000
00EF2000
02FD0000
05FA0000
09F70000
ENDCHAR
STARTCHAR dotlessi
ENCODING 305
SWIDTH 267 0
DWIDTH 4 0
BBX 6 7 -1 0
BITMAP
02FD00
06FA00
09F600
0CF300
0FF032
1FF6A0
0AEB20
ENDCHAR
STARTCHAR IJ
ENCODING 306
SWIDTH 663 0
DWIDTH 9 0
BBX 10 13 0 -3
BITMAP
006BE707C4
1B8CF40EF1
9B0FF12FD0
D73FC06FA0
657F909F70
00AF50DF30
00DF21FF00
02FD04FC00
05FA08F900
09FD3BF500
05D12FF100
05D16F8000
009DC70000
ENDCHAR
STARTCHAR ij
ENCODING 307
SWIDTH 507 0
DWIDTH 7 0
BBX 9 13 -1 -3
BITMAP
008E30CC00
009F41ED00
0001001100
02FD06F900
06FA0AF600
09F60DF300
0CF31FE000
0FF05FB040
1FF58F8630
0AE8CF9400
006CFF1000
01C6FB0000
00AFC20000
ENDCHAR
STARTCHAR Jcircumflex
ENCODING 308
SWIDTH 536 0
DWIDTH 8 0
BBX 9 17 0 -3
BITMAP
0000001B40
000002C990
0000051040
0000000000
000029DE00
0005C6FB00
002E47F800
005F0AF500
001A0EF200
00002FD000
00006FA000
00009F7000
0000DF3000
2BC3FF0000
A916FA0000
A90BF30000
2BDB400000
ENDCHAR
STARTCHAR jcircumflex
ENCODING 309
SWIDTH 240 0
DWIDTH 3 0
BBX 7 13 -3 -3
BITMAP
00001B50
0004B7A0
00030020
0002FD00
0006FA00
0009F700
000CF300
001FF060
004FC450
008FB500
3CEF5000
B2EE1000
7ED40000
ENDCHAR
STARTCHAR Kcommaaccent
ENCODING 310
SWIDTH 601 0
DWIDTH 8 0
BBX 10 13 0 -3
BITMAP
006CE709C1
1C7CF36C10
AA0FE3D200
D63FDC2000
447FEDB300
00AF55F900
00EF16F800
02FD0AF400
05FA0DF100
09F70CF200
0002500000
0005E00000
0003600000
ENDCHAR
STARTCHAR kcommaaccent
ENCODING 311
SWIDTH 518 0
DWIDTH 7 0
BBX 9 14 -1 -4
BITMAP
0049500000
00BF400000
00EF100000
02FD06B200
05FA980000
09FFFF6000
0CF76FC000
0FF15FA040
3FC07FB760
6F902DE800
0000000000
000D400000
000A300000
0003000000
ENDCHAR
STARTCHAR kgreenlandic
ENCODING 312
SWIDTH 518 0
DWIDTH 7 0
BBX 9 7 -1 0
BITMAP
02FD06B200
06FA980000
09FFFF6000
0CF76FC000
0FF15FA040
3FC07FB760
6F902DE800
ENDCHAR
STARTCHAR Lacute
ENCODING 313
SWIDTH 379 0
DWIDTH 5 0
BBX 10 17 0 -3
BITMAP
00000BA000
00003E1000
0000540000
0000000000
006BE70000
1C8CF30000
AA0FF00000
D74FC00000
547F800000
00AF500000
00EF100000
02FD000000
06F9000000
09FB200000
0039FB4100
00004DFFF2
0000019EA0
ENDCHAR
STARTCHAR lacute
ENCODING 314
SWIDTH 267 0
DWIDTH 4 0
BBX 6 13 -1 0
BITMAP
0000B9
0004D1
000530
004A50
00BF40
00EF10
02FD00
06F900
09F600
0CF300
0FE032
1FF8B0
0AEB20
ENDCHAR
STARTCHAR Lcommaaccent
ENCODING 315
SWIDTH 379 0
DWIDTH 5 0
BBX 10 13 0 -3
BITMAP
006BE70000
1C8CF30000
AA0FF00000
D74FC00000
547F800000
00AF500000
00EF100000
02FD000000
06F9000000
09FB200000
0559FB4100
0A804DFFF2
0710019EA0
ENDCHAR
STARTCHAR lcommaaccent
ENCODING 316
SWIDTH 267 0
DWIDTH 4 0
BBX 6 14 -1 -4
BITMAP
003850
00AF40
00EF10
02FD00
05FA00
09F600
0CF300
0FF032
1FF8B0
0AEB20
000000
0D6000
094000
040000
ENDCHAR
STARTCHAR Lcaron
ENCODING 317
SWIDTH 379 0
DWIDTH 5 0
BBX 10 17 0 -3
BITMAP
0000A28700
00008E5000
0000230000
0000000000
006BE70000
1C8CF30000
AA0FF00000
D74FC00000
547F800000
00AF500000
00EF100000
02FD000000
06F9000000
09FB200000
0039FB4100
00004DFFF2
0000019EA0
ENDCHAR
STARTCHAR lcaron
ENCODING 318
SWIDTH 267 0
DWIDTH 4 0
BBX 7 10 -1 0
BITMAP
00001D70
008F6A70
00CF3700
01FE0000
04FB0000
08F70000
0BF40000
0EF12100
1FF5A000
0AEB2000
ENDCHAR
STARTCHAR Ldot
ENCODING 319
SWIDTH 605 0
DWIDTH 8 0
BBX 10 13 0 -3
BITMAP
006CE70000
2C6CF30000
B91FF00000
D64FB00000
227F800000
00BF43E900
00EF14FA00
02FD001000
06F9000000
09FB300000
0039FB4100
00004DFFF2
0000019EA0
ENDCHAR
STARTCHAR ldot
ENCODING 320
SWIDTH 353 0
DWIDTH 5 0
BBX 6 10 -1 0
BITMAP
006C60
00BF40
00EF10
03FD00
06FA97
09F7B9
0CF400
0FF100
1FE000
0AE800
ENDCHAR
STARTCHAR Lslash
ENCODING 321
SWIDTH 392 0
DWIDTH 5 0
BBX 10 13 0 -3
BITMAP
006BE70000
1C8CF40000
AA0FF12000
D73FEB3000
547FA00000
05EF500000
02EF100000
02FD000000
06F9000000
09FB200000
0039FB4100
00004DFFF2
0000019EA0
ENDCHAR
STARTCHAR lslash
ENCODING 322
SWIDTH 286 0
DWIDTH 4 0
BBX 6 10 -1 0
BITMAP
003850
00AF50
00EF22
02FFB4
05FB10
3DF600
3CF300
0FF032
1FF8B0
0AEB20
ENDCHAR
STARTCHAR Nacute
ENCODING 323
SWIDTH 702 0
DWIDTH 10 0
BBX 10 14 0 0
BITMAP
00000001E6
00000006C0
0000000D40
0000000000
029CF7006E
2D4CFB00AB
B90FFF00D7
D74FEF31F4
787E8F74F1
00AB4FB7C0
00E71FEB80
02F30CFF50
06E008FF20
09B004FD00
ENDCHAR
STARTCHAR nacute
ENCODING 324
SWIDTH 505 0
DWIDTH 7 0
BBX 9 10 -1 0
BITMAP
000005E200
00000D5000
0000130000
02FEBE9000
06FC1FE000
09F61FD000
0CF34FA000
0FF07F7150
3FC08F9930
6F903DE600
ENDCHAR
STARTCHAR Ncommaaccent
ENCODING 325
SWIDTH 668 0
DWIDTH 9 0
BBX 10 14 0 -4
BITMAP
029CF7006E
2D4CFB00AB
B90FFF00D7
D74FEF31F4
787E8F74F1
00AB4FB7C0
00E71FEB80
02F30CFF50
06E008FF20
09B004FD00
0000000000
0006C00000
0003A00000
0003100000
ENDCHAR
STARTCHAR ncommaaccent
ENCODING 326
SWIDTH 505 0
DWIDTH 7 0
BBX 9 11 -1 -4
BITMAP
02FEBE8000
06FC1FE000
09F61FE000
0CF34FB000
0FF07F7020
3FC08F6440
6F903DD600
0000000000
005D000000
002C000000
0021000000
ENDCHAR
STARTCHAR Ncaron
ENCODING 327
SWIDTH 668 0
DWIDTH 9 0
BBX 11 14 0 0
BITMAP
000000915910
0000006EB100
0000002B1000
000000000000
029CF7006E00
2D4CFB00AB00
B90FFF00D700
D74FEF31F400
787E8F74F100
00AB4FB7C000
00E71FEB8000
02F30CFF5000
06E008FF2000
09B004FD0000
ENDCHAR
STARTCHAR ncaron
ENCODING 328
SWIDTH 505 0
DWIDTH 7 0
BBX 9 10 -1 0
BITMAP
0005659200
0000E90000
0000200000
02FEBE8000
06FC1FE000
09F61FE000
0CF34FB000
0FF07F7020
3FC08F6440
6F903DD600
ENDCHAR
STARTCHAR napostrophe
ENCODING 329
SWIDTH 505 0
DWIDTH 7 0
BBX 9 10 -1 0
BITMAP
05E2000000
01D1000000
0210000000
02FEBE8000
06FC1FE000
09F61FE000
0CF34FB000
0FF07F7020
3FC08F6440
6F903DD600
ENDCHAR
STARTCHAR Eng
ENCODING 330
SWIDTH 723 0
DWIDTH 10 0
BBX 11 13 0 -3
BITMAP
004BEE300AA0
07E4FF600E70
1F54FFA02F30
4F28EFD06E00
1B3B9DF29B00
000F59F5D800
004F14FAF400
007D01FFF100
00B900BFC000
00E6007F8000
0005906F3000
000991C90000
0002AB800000
ENDCHAR
STARTCHAR eng
ENCODING 331
SWIDTH 505 0
DWIDTH 7 0
BBX 7 10 -1 -3
BITMAP
03FDBE80
06FD5FD0
09F72FC0
0CF34F90
1FF08F60
3FC0BF30
7F92EE00
008BFB00
0448F600
01BE9000
ENDCHAR
STARTCHAR Omacron
ENCODING 332
SWIDTH 665 0
DWIDTH 9 0
BBX 10 13 0 0
BITMAP
0001DDDD50
0000000000
0000000000
0029CDDA10
07D5772EB0
6E2CE20BF1
B97F900BF2
66DF300CF1
03FD001FD0
06FA006F80
07F901DE10
04FC3BF400
008EEB3000
ENDCHAR
STARTCHAR omacron
ENCODING 333
SWIDTH 433 0
DWIDTH 6 0
BBX 9 10 -1 0
BITMAP
007DDDC000
0000000000
0000000000
004CEA0000
03FC1D4040
0BF53FB710
1FF10E3000
4FD03E0000
3FD0A70000
08ED700000
ENDCHAR
STARTCHAR Obreve
ENCODING 334
SWIDTH 665 0
DWIDTH 9 0
BBX 10 14 0 0
BITMAP
0000000010
0000AA03E2
00002BCA30
0000000000
0029CDDA10
07D5772EB0
6E2CE20BF1
B97F900BF2
66DF300CF1
03FD001FD0
06FA006F80
07F901DE10
04FC3BF400
008EEB3000
ENDCHAR
STARTCHAR obreve
ENCODING 335
SWIDTH 433 0
DWIDTH 6 0
BBX 9 10 -1 0
BITMAP
006D01D500
001ACA5000
0000000000
004CEA0000
03FC1D4040
0BF53FB710
1FF10E3000
4FD03E0000
3FD0A70000
08ED700000
ENDCHAR
STARTCHAR Ohungarumlaut
ENCODING 336
SWIDTH 665 0
DWIDTH 9 0
BBX 10 14 0 0
BITMAP
000000B97C
000003D1D3
0000083470
0000000000
0029CDDA10
07D5772EB0
6E2CE20BF1
B97F900BF2
66DF300CF1
03FD001FD0
06FA006F80
07F901DE10
04FC3BF400
008EEB3000
ENDCHAR
STARTCHAR ohungarumlaut
ENCODING 337
SWIDTH 433 0
DWIDTH 6 0
BBX 9 10 -1 0
BITMAP
0001E6AA00
0006A2D100
000A174000
004CEA0000
03FC1D4040
0BF53FB710
1FF10E3000
4FD03E0000
3FD0A70000
08ED700000
ENDCHAR
STARTCHAR OE
ENCODING 338
SWIDTH 846 0
DWIDTH 12 0
BBX 13 10 0 0
BITMAP
0039CDEDEFFF80
09C7C82EC12200
7D2ED00BF20000
B89F700BF20000
24EF100CFEC000
04FD001FC11000
06FA006F700000
07F900CD100000
04FB08FB775000
008EEFFFFF8000
ENDCHAR
STARTCHAR oe
ENCODING 339
SWIDTH 663 0
DWIDTH 9 0
BBX 11 7 -1 0
BITMAP
004CEA3CEB00
04FB0DEE2B20
0BF35FF80B00
0FE01EF67100
1FC01FF10050
0FD07FF41850
07ED96DEB300
ENDCHAR
STARTCHAR Racute
ENCODING 340
SWIDTH 601 0
DWIDTH 8 0
BBX 9 14 0 0
BITMAP
000000C900
000005D100
0000053000
0000000000
006BDDC400
1CA6728E10
AB0EF16F10
D73FB3E800
546FEFE300
00AF56F900
00DF25F800
02FD09F400
05FA0DF100
09F70CF200
ENDCHAR
STARTCHAR racute
ENCODING 341
SWIDTH 376 0
DWIDTH 5 0
BBX 7 10 -1 0
BITMAP
00002F40
0000B700
00004000
02FEAE40
06FC4F40
09F60000
0CF30000
0FF00000
3FC00000
6F900000
ENDCHAR
STARTCHAR Rcommaaccent
ENCODING 342
SWIDTH 601 0
DWIDTH 8 0
BBX 9 13 0 -3
BITMAP
006BDDC400
1CA6728E10
AB0EF16F10
D73FB3E800
546FEFE300
00AF56F900
00DF25F800
02FD09F400
05FA0DF100
09F70CF200
0004400000
0009A00000
0006300000
ENDCHAR
STARTCHAR rcommaaccent
ENCODING 343
SWIDTH 376 0
DWIDTH 5 0
BBX 7 11 -1 -4
BITMAP
02FEAE40
06FC4F40
09F60000
0CF30000
0FF00000
3FC00000
6F900000
00000000
04E10000
01C00000
02200000
ENDCHAR
STARTCHAR Rcaron
ENCODING 344
SWIDTH 601 0
DWIDTH 8 0
BBX 9 14 0 0
BITMAP
0000192950
00000BE300
0000032000
0000000000
006BDDC400
1CA6728E10
AB0EF16F10
D73FB3E800
546FEFE300
00AF56F900
00DF25F800
02FD09F400
05FA0DF100
09F70CF200
ENDCHAR
STARTCHAR rcaron
ENCODING 345
SWIDTH 376 0
DWIDTH 5 0
BBX 7 10 -1 0
BITMAP
00194940
000AC200
00020000
02FEAE40
06FC4F40
09F60000
0CF30000
0FF00000
3FC00000
6F900000
ENDCHAR
STARTCHAR Sacute
ENCODING 346
SWIDTH 570 0
DWIDTH 8 0
BBX 8 14 0 0
BITMAP
000001E6
000007B0
00000620
00000000
0019EDB2
00AF50BA
00DF30D8
008FC110
000BFB00
0131DF90
2ED43FF1
7F200EF2
5F506FB0
07DFD810
ENDCHAR
STARTCHAR sacute
ENCODING 347
SWIDTH 382 0
DWIDTH 5 0
BBX 7 10 -1 0
BITMAP
00001E60
00008B00
00007200
001CE200
007FF300
00ADF400
065BF500
2E2AF630
691CFB20
1ADD6000
ENDCHAR
STARTCHAR Scircumflex
ENCODING 348
SWIDTH 570 0
DWIDTH 8 0
BBX 8 14 0 0
BITMAP
000003C0
00005CB4
00025014
00000000
0019EDB2
00AF50BA
00DF30D8
008FC110
000BFB00
0131DF90
2ED43FF1
7F200EF2
5F506FB0
07DFD810
ENDCHAR
STARTCHAR scircumflex
ENCODING 349
SWIDTH 382 0
DWIDTH 5 0
BBX 7 10 -1 0
BITMAP
0000A600
001BAA00
00520400
001CE200
007FF300
00ADF400
065BF500
2E2AF630
691CFB20
1ADD6000
ENDCHAR
STARTCHAR Scedilla
ENCODING 350
SWIDTH 570 0
DWIDTH 8 0
BBX 8 13 0 -3
BITMAP
0019EDB2
00AF50BA
00DF30D9
008FC020
000CFB00
0021DF90
1DE53FF1
7F300EF2
5F405FB0
08DDE910
001B6000
0025F200
009D9000
ENDCHAR
STARTCHAR scedilla
ENCODING 351
SWIDTH 382 0
DWIDTH 5 0
BBX 7 11 -1 -3
BITMAP
00024000
003FF200
008EF300
019CF400
073BF500
3E2AF750
671DFB10
1BFD6000
02A50000
037F1000
0AD80000
ENDCHAR
STARTCHAR Scaron
ENCODING 352
SWIDTH 570 0
DWIDTH 8 0
BBX 9 14 0 0
BITMAP
00000A2850
00000AE400
0000032000
0000000000
0019EDB200
00AF50BA00
00DF30D800
008FC11000
000BFB0000
0131DF9000
2ED43FF100
7F200EF200
5F506FB000
07DFD81000
ENDCHAR
STARTCHAR scaron
ENCODING 353
SWIDTH 369 0
DWIDTH 5 0
BBX 7 10 -1 0
BITMAP
000A2860
0008E400
00023000
002DF200
007EF300
009CF400
064BF500
2E3AF640
692DFB10
1BED6000
ENDCHAR
STARTCHAR uni0162
ENCODING 354
SWIDTH 481 0
DWIDTH 7 0
BBX 10 13 0 -3
BITMAP
04ACEFACDA
5E30EE0000
C803FB0000
C606F80000
1109F50000
000CF20000
001FE00000
004FB00000
007F800000
00AF500000
003A300000
0038F00000
01AD700000
ENDCHAR
STARTCHAR uni0163
ENCODING 355
SWIDTH 267 0
DWIDTH 4 0
BBX 6 13 -1 -3
BITMAP
000110
00AF40
00EF10
08FFA0
05FB00
08F700
0BF400
0FF131
1FF5A0
0AFB20
087200
14CA00
3CD300
ENDCHAR
STARTCHAR Tcaron
ENCODING 356
SWIDTH 481 0
DWIDTH 7 0
BBX 10 14 0 0
BITMAP
0000643A20
00002ED200
00000B3000
0000000000
04ACEFACDA
5E30EE0000
C803FB0000
C606F80000
1109F50000
000CF20000
001FE00000
004FB00000
007F800000
00AF500000
ENDCHAR
STARTCHAR tcaron
ENCODING 357
SWIDTH 267 0
DWIDTH 4 0
BBX 7 10 -1 0
BITMAP
00000B90
006A4870
00EF2300
08FFA000
05FB0000
08F70000
0BF40000
0FF13100
1FF5A000
0AEB2000
ENDCHAR
STARTCHAR Tbar
ENCODING 358
SWIDTH 481 0
DWIDTH 7 0
BBX 10 10 0 0
BITMAP
04ACEFDDDA
6E30EF0000
D803FC0000
B607F80000
000BF50000
0ADFFDD500
001FE00000
004FB00000
007F800000
00AF500000
ENDCHAR
STARTCHAR tbar
ENCODING 359
SWIDTH 267 0
DWIDTH 4 0
BBX 6 10 -1 0
BITMAP
000110
00AF40
00EF10
08FFA0
2EFE80
09F600
0CF300
0FF042
1FF7A0
0AEB10
ENDCHAR
STARTCHAR Utilde
ENCODING 360
SWIDTH 716 0
DWIDTH 10 0
BBX 11 13 0 0
BITMAP
000008EEB710
000011266100
000000000000
006BEB008F70
2C67F700BF40
C80BF300EF10
F40FE003FC00
634F9007F900
008F500AF500
00BF200EF100
00DF006FA000
00CF86EE2000
004CFEB30000
ENDCHAR
STARTCHAR utilde
ENCODING 361
SWIDTH 505 0
DWIDTH 7 0
BBX 9 10 -1 0
BITMAP
001BFC8500
00459C9100
0000000000
02FD0BF500
06FA0EF200
09F62FD000
0CF35FA000
0FF09F7140
1FF6EFA930
0AEA4ED500
ENDCHAR
STARTCHAR Umacron
ENCODING 362
SWIDTH 716 0
DWIDTH 10 0
BBX 11 13 0 0
BITMAP
000009DDDA00
000000000000
000000000000
006BEB008F70
2C67F700BF40
C80BF300EF10
F40FE003FC00
634F9007F900
008F500AF500
00BF200EF100
00DF006FA000
00CF86EE2000
004CFEB30000
ENDCHAR
STARTCHAR umacron
ENCODING 363
SWIDTH 505 0
DWIDTH 7 0
BBX 9 10 -1 0
BITMAP
004DDDD200
0000000000
0000000000
02FD0BF500
06FA0EF200
09F62FD000
0CF35FA000
0FF09F7140
1FF6EFA930
0AEA4ED500
ENDCHAR
STARTCHAR Ubreve
ENCODING 364
SWIDTH 716 0
DWIDTH 10 0
BBX 11 14 0 0
BITMAP
000001000100
00000AA03E20
000002BBA300
000000000000
006BEB008F70
2C67F700BF40
C80BF300EF10
F40FE003FC00
634F9007F900
008F500AF500
00BF200EF100
00DF006FA000
00CF86EE2000
004CFEB30000
ENDCHAR
STARTCHAR ubreve
ENCODING 365
SWIDTH 505 0
DWIDTH 7 0
BBX 9 10 -1 0
BITMAP
004E11B800
0008CB6000
0000000000
02FD0BF500
06FA0EF200
09F62FD000
0CF35FA000
0FF09F7140
1FF6EFA930
0AEA4ED500
ENDCHAR
STARTCHAR Uring
ENCODING 366
SWIDTH 716 0
DWIDTH 10 0
BBX 11 14 0 0
BITMAP
0000004D3000
000000927000
0000006D3000
000000000000
006BEB008F70
2C67F700BF40
C80BF300EF10
F40FE003FC00
634F9007F900
008F500AF500
00BF200EF100
00DF006FA000
00CF86EE2000
004CFEB30000
ENDCHAR
STARTCHAR uring
ENCODING 367
SWIDTH 505 0
DWIDTH 7 0
BBX 9 10 -1 0
BITMAP
0000BA0000
0002790000
0001C80000
02FD0BF500
06FA0EF200
09F62FD000
0CF35FA000
0FF09F7140
1FF6EFA930
0AEA4ED500
ENDCHAR
STARTCHAR Uhungarumlaut
ENCODING 368
SWIDTH 716 0
DWIDTH 10 0
BBX 11 14 0 0
BITMAP
0000001F4C80
000000894C00
000000A18300
000000000000
006BEB008F70
2C67F700BF40
C80BF300EF10
F40FE003FC00
634F9007F900
008F500AF500
00BF200EF100
00DF006FA000
00CF86EE2000
004CFEB30000
ENDCHAR
STARTCHAR uhungarumlaut
ENCODING 369
SWIDTH 505 0
DWIDTH 7 0
BBX 9 10 -1 0
BITMAP
0000D79B00
0005B2E100
0009265000
02FD0BF500
06FA0EF200
09F62FD000
0CF35FA000
0FF09F7140
1FF6EFA930
0AEA4ED500
ENDCHAR
STARTCHAR Uogonek
ENCODING 370
SWIDTH 716 0
DWIDTH 10 0
BBX 11 17 0 -3
BITMAP
000003F30000
000000D50000
000000860000
000000000000
006BEB008F70
1C77F800BF40
B90BF300EF10
F50EE002FC00
A44FA006F900
008F6009F500
00BF300DF100
00DF003FA000
00CF20BE2000
004DEDB30000
0002B0000000
0007B0300000
0003DB200000
ENDCHAR
STARTCHAR uogonek
ENCODING 371
SWIDTH 505 0
DWIDTH 7 0
BBX 9 10 -1 -3
BITMAP
02FD0BF500
06FA0EF200
09F62FD000
0CF35FA000
0FF09F7140
1FF6EFA930
0AEA4EE500
00002B0000
00007B1300
00003DB200
ENDCHAR
STARTCHAR Wcircumflex
ENCODING 372
SWIDTH 962 0
DWIDTH 13 0
BBX 15 14 0 0
BITMAP
0000000002C00000
000000002DE20000
00000002A3360000
0000000000000000
006BE8008F600B40
1B88F900EF601D00
9B07F904FF706700
D707F909DF70B200
6507F90C9F72A000
0006FA579F775000
0006FAA28F8B0000
0005FBA08FB80000
0005FF507FF20000
0005FE007FB00000
ENDCHAR
STARTCHAR wcircumflex
ENCODING 373
SWIDTH 661 0
DWIDTH 9 0
BBX 10 10 -1 0
BITMAP
0000009700
00001B9B00
0000410300
02FD0BF57C
06FA0EF20C
09F62FD01D
0CF35FA05A
0FF09F70C4
1FF6EF9AA0
0AFA5EE910
ENDCHAR
STARTCHAR Ycircumflex
ENCODING 374
SWIDTH 620 0
DWIDTH 9 0
BBX 10 14 0 0
BITMAP
0000000A30
000000AE80
0000096190
0000000000
006BEA0068
1B86FE00B1
9B02FF3390
D700DF6920
65009FBA00
00005FF300
00005FE000
00008FA000
0000CF7000
0000FF4000
ENDCHAR
STARTCHAR ycircumflex
ENCODING 375
SWIDTH 505 0
DWIDTH 7 0
BBX 9 13 -1 -3
BITMAP
00002D2000
0005B88000
0002002000
02FD0BF500
06FA0EF100
09F62FD000
0CF35FA000
0FF09F7220
1FF7FF4800
0AEBFF7200
007BFC0000
059AF70000
02DE900000
ENDCHAR
STARTCHAR Ydieresis
ENCODING 376
SWIDTH 620 0
DWIDTH 9 0
BBX 10 13 0 0
BITMAP
000007C1E5
000006A0B4
0000000000
006BEA0068
1B86FE00B1
9B02FF3390
D700DF6920
65009FBA00
00005FF300
00005FE000
00008FA000
0000CF7000
0000FF4000
ENDCHAR
STARTCHAR Zacute
ENCODING 377
SWIDTH 542 0
DWIDTH 8 0
BBX 8 14 0 0
BITMAP
000000D8
000004E1
00000B60
00000000
05EDDFF7
0BA04FE1
0220CF60
0006FD00
000DF500
007FC000
01EF4000
08FB0130
1EF307E0
9FFDDD60
ENDCHAR
STARTCHAR zacute
ENCODING 378
SWIDTH 428 0
DWIDTH 6 0
BBX 6 10 0 0
BITMAP
0000B9
0005D1
000220
0ADEFB
2F1CF2
016F90
01EE10
08F700
2FD0C5
BFEDB1
ENDCHAR
STARTCHAR Zdotaccent
ENCODING 379
SWIDTH 530 0
DWIDTH 7 0
BBX 8 13 0 0
BITMAP
00009A00
00007800
00000000
05EDDFF7
0BA04FE1
0220CF60
0006FD00
000DF500
007FC000
01EF4000
08FB0130
1EF307E0
9FFDDD60
ENDCHAR
STARTCHAR zdotaccent
ENCODING 380
SWIDTH 428 0
DWIDTH 6 0
BBX 6 10 0 0
BITMAP
000B90
000970
000000
0ADEFB
2F1CF2
016F90
01EE10
08F700
2FD0C5
BFEDB1
ENDCHAR
STARTCHAR Zcaron
ENCODING 381
SWIDTH 542 0
DWIDTH 8 0
BBX 9 14 0 0
BITMAP
0000814A10
00005EC100
00001C1000
0000000000
05EDDFF700
0BA04FE100
0220CF6000
0006FD0000
000DF50000
007FC00000
01EF400000
08FB013000
1EF307E000
9FFDDD6000
ENDCHAR
STARTCHAR zcaron
ENCODING 382
SWIDTH 428 0
DWIDTH 6 0
BBX 7 10 0 0
BITMAP
00384930
000CA100
00020000
0ADEFB00
2F1CF200
016F9000
01EE1000
08F70000
2FD0C500
BFEDB100
ENDCHAR
STARTCHAR longs
ENCODING 383
SWIDTH 267 0
DWIDTH 4 0
BBX 9 13 -3 -3
BITMAP
00001AEC20
00009F6340
0000EF1000
000BFD0000
0005FA0000
0008F60000
000CF30000
000FE00000
003FB00000
019F800000
59CF400000
C1EE000000
7DD4000000
ENDCHAR
STARTCHAR uni018F
ENCODING 399
SWIDTH 544 0
DWIDTH 8 0
BBX 8 10 0 0
BITMAP
019DEB30
09FDEFE1
05301EF6
00000BF8
0039DFF7
06F83FF3
4F906FD0
9F20CF40
9F17F700
2CEC5000
ENDCHAR
STARTCHAR florin
ENCODING 402
SWIDTH 267 0
DWIDTH 4 0
BBX 11 13 -4 -3
BITMAP
0000002BEC00
000001DE4E10
000007F70100
0000AFFDA000
00001FE00000
00006FA00000
0000AF500000
0000EF100000
0004FB000000
0009F6000000
040EE1000000
6C5F70000000
4DD700000000
ENDCHAR
STARTCHAR Ohorn
ENCODING 416
SWIDTH 665 0
DWIDTH 9 0
BBX 11 12 0 0
BITMAP
000000002E10
000000003E00
0029CDD89800
07D5772ED000
6E2CE20BF100
B97F900BF200
66DF300CF100
03FD001FD000
06FA006F9000
07F901DE2000
04FC3BF50000
008EEB400000
ENDCHAR
STARTCHAR ohorn
ENCODING 417
SWIDTH 439 0
DWIDTH 6 0
BBX 8 9 -1 0
BITMAP
0000005B
0000007A
003BEBD3
03ED1C60
0BF60B60
1FF10D50
2FE02F10
1FE0A800
07ED7000
ENDCHAR
STARTCHAR Uhorn
ENCODING 431
SWIDTH 716 0
DWIDTH 10 0
BBX 13 13 0 0
BITMAP
00000000002E20
00000000002E10
00000000007600
006BEB008F7000
2C67F700BF2000
C80BF300EE0000
F40FE003FB0000
634F9007F80000
008F500AF40000
00BF200EE00000
00DF006F900000
00CF86EE200000
004CFEA3000000
ENDCHAR
STARTCHAR uhorn
ENCODING 432
SWIDTH 505 0
DWIDTH 7 0
BBX 9 10 -1 0
BITMAP
0000000340
0000000990
0000000C30
02FD0BF600
06FA0EF100
09F62FD000
0CF35FA000
0FF09F7140
1FF6EFA930
0AEA4ED500
ENDCHAR
STARTCHAR uni01B7
ENCODING 439
SWIDTH 555 0
DWIDTH 8 0
BBX 8 10 0 0
BITMAP
03DDDEFA
08D03EC1
0121DE20
000BF500
002DFB20
00009FC0
00004FF0
6C106FD0
AC01DF50
3CDDB400
ENDCHAR
STARTCHAR uni01CD
ENCODING 461
SWIDTH 668 0
DWIDTH 9 0
BBX 12 16 0 -2
BITMAP
000000009077
00000000BE70
000000006800
000000000000
0000003BE800
000003BBF600
00003D1DF300
0001C61FE000
2ADEF97FB000
CC2F61AF7000
44AE00BF4000
02F900EF1000
07F403FC0000
0BF106F90000
0BD000000000
026000000000
ENDCHAR
STARTCHAR uni01CE
ENCODING 462
SWIDTH 526 0
DWIDTH 7 0
BBX 9 10 -1 0
BITMAP
0000746810
00002F7000
0000020000
004CECF900
03ED1AF600
0AF50CF300
1FF11FE000
2FE04FC050
1FF5BFC670
08EC3CE800
ENDCHAR
STARTCHAR uni01CF
ENCODING 463
SWIDTH 375 0
DWIDTH 5 0
BBX 8 14 0 0
BITMAP
00027195
0000DE50
00009500
00000000
006BE700
1B5CF300
9A1FF000
D64FC000
657F8000
00AF5000
00EF2000
02FD0000
05FA0000
09F70000
ENDCHAR
STARTCHAR uni01D0
ENCODING 464
SWIDTH 267 0
DWIDTH 4 0
BBX 6 10 -1 0
BITMAP
009387
006E40
001100
02FD00
06FA00
09F600
0CF300
0FF032
1FF6A0
0AEB20
ENDCHAR
STARTCHAR uni01D1
ENCODING 465
SWIDTH 665 0
DWIDTH 9 0
BBX 10 14 0 0
BITMAP
0000027195
000000DE50
0000009500
0000000000
0029CDDA10
07D5772EB0
6E2CE20BF1
B97F900BF2
66DF300CF1
03FD001FD0
06FA006F80
07F901DE10
04FC3BF400
008EEB3000
ENDCHAR
STARTCHAR uni01D2
ENCODING 466
SWIDTH 433 0
DWIDTH 6 0
BBX 9 10 -1 0
BITMAP
0005659200
0000EA1000
0000300000
004CEB0000
03FC1D4140
0BF42FB810
1FE00F3000
4FD04E0000
3FE5D70000
08EE700000
ENDCHAR
STARTCHAR uni01D3
ENCODING 467
SWIDTH 716 0
DWIDTH 10 0
BBX 11 14 0 0
BITMAP
000000644920
0000001FB100
000000050000
000000000000
006BEB008F70
2C67F700BF40
C80BF300EF10
F40FE003FC00
634F9007F900
008F500AF500
00BF200EF100
00DF006FA000
00CF86EE2000
004CFEB30000
ENDCHAR
STARTCHAR uni01D4
ENCODING 468
SWIDTH 505 0
DWIDTH 7 0
BBX 9 10 -1 0
BITMAP
0001939400
0000AC2000
0000200000
02FD0BF500
06FA0EF200
09F62FD000
0CF35FA000
0FF09F7140
1FF6EFA930
0AEA4ED500
ENDCHAR
STARTCHAR uni01D5
ENCODING 469
SWIDTH 716 0
DWIDTH 10 0
BBX 11 14 0 0
BITMAP
000005DDDD10
000006907900
000008C09B00
000000000000
006BEB008F70
2C67F700BF40
C80BF300EF10
F40FE003FC00
634F9007F900
008F500AF500
00BF200EF100
00DF006FA000
00CF86EE2000
004CFEB30000
ENDCHAR
STARTCHAR uni01D6
ENCODING 470
SWIDTH 505 0
DWIDTH 7 0
BBX 9 12 -1 0
BITMAP
000ADDD900
0000000000
000D66D000
000B54B000
0000000000
02FD0BF500
06FA0EF200
09F62FD000
0CF35FA000
0FF09F7140
1FF6EFA930
0AEA4ED500
ENDCHAR
STARTCHAR uni01D7
ENCODING 471
SWIDTH 716 0
DWIDTH 10 0
BBX 11 14 0 0
BITMAP
00000007D100
00003E2D6D60
00002B6C0B50
000000000000
006BEB008F70
2C67F700BF40
C80BF300EF10
F40FE003FC00
634F9007F900
008F500AF500
00BF200EF100
00DF006FA000
00CF86EE2000
004CFEB30000
ENDCHAR
STARTCHAR uni01D8
ENCODING 472
SWIDTH 505 0
DWIDTH 7 0
BBX 9 13 -1 0
BITMAP
000005E200
00000D5000
0000260000
000D66D000
000B54B000
0000000000
02FD0BF500
06FA0EF200
09F62FD000
0CF35FA000
0FF09F7140
1FF6EFA930
0AEA4ED500
ENDCHAR
STARTCHAR uni01D9
ENCODING 473
SWIDTH 716 0
DWIDTH 10 0
BBX 11 14 0 0
BITMAP
000000605500
00003E8E7D60
000017250630
000000000000
006BEB008F70
2C67F700BF40
C80BF300EF10
F40FE003FC00
634F9007F900
008F500AF500
00BF200EF100
00DF006FA000
00CF86EE2000
004CFEB30000
ENDCHAR
STARTCHAR uni01DA
ENCODING 474
SWIDTH 505 0
DWIDTH 7 0
BBX 9 13 -1 0
BITMAP
0000401500
000089C200
00003B1000
000D66D000
000B54B000
0000000000
02FD0BF500
06FA0EF200
09F62FD000
0CF35FA000
0FF09F7140
1FF6EFA930
0AEA4ED500
ENDCHAR
STARTCHAR uni01DB
ENCODING 475
SWIDTH 716 0
DWIDTH 10 0
BBX 11 14 0 0
BITMAP
0000005F1000
00003E3F4D60
00002C195B50
000000000000
006BEB008F70
2C67F700BF40
C80BF300EF10
F40FE003FC00
634F9007F900
008F500AF500
00BF200EF100
00DF006FA000
00CF86EE2000
004CFEB30000
ENDCHAR
STARTCHAR uni01DC
ENCODING 476
SWIDTH 505 0
DWIDTH 7 0
BBX 9 13 -1 0
BITMAP
0003F30000
0000E50000
0000860000
000D66D000
000B54B000
0000000000
02FD0BF500
06FA0EF200
09F62FD000
0CF35FA000
0FF09F7140
1FF6EFA930
0AEA4ED500
ENDCHAR
STARTCHAR uni01E4
ENCODING 484
SWIDTH 601 0
DWIDTH 8 0
BBX 9 13 0 -3
BITMAP
003ADDC400
05FE408D00
2EF400BB00
8FB0000000
AF7001A600
AF709CFC20
5FB03DF200
07DC7FE000
00003FB000
03CA6F7000
0D52AF2000
0E52EA0000
04CD910000
ENDCHAR
STARTCHAR uni01E5
ENCODING 485
SWIDTH 507 0
DWIDTH 7 0
BBX 9 10 -1 -3
BITMAP
004CECF900
03ED1AF600
0AF60CF300
1FF20FF000
2FE03FC010
1FE09F8360
08ECDFB800
0018EF3000
07DCFE8000
00BED40000
ENDCHAR
STARTCHAR Gcaron
ENCODING 486
SWIDTH 578 0
DWIDTH 8 0
BBX 9 17 0 -3
BITMAP
00000A2860
000008E500
0000023000
0000000000
003ADDC400
05FE408D00
2EF400BB00
8FB0000000
AF7001A500
AF7007F600
5FB03EF300
07DC8FE000
00003FB000
03CA6F7000
0D52AF2000
0E52EA0000
04CD910000
ENDCHAR
STARTCHAR gcaron
ENCODING 487
SWIDTH 507 0
DWIDTH 7 0
BBX 9 13 -1 -3
BITMAP
0000746810
00002F7000
0000020000
004CECF900
03ED1AF600
0AF60CF300
1FF20FF000
2FE03FC010
1FE09F8350
08ECDFA600
0027EF2000
00B4FC0000
00BEC20000
ENDCHAR
STARTCHAR uni01E8
ENCODING 488
SWIDTH 601 0
DWIDTH 8 0
BBX 10 15 0 0
BITMAP
0000004025
000000B9A1
0000007900
0000000000
0000000000
006CE709C1
1C7CF36C10
AA0FE3D200
D63FDC2000
447FEDB300
00AF55F900
00EF16F800
02FD0AF400
05FA0DF100
09F70CF200
ENDCHAR
STARTCHAR uni01E9
ENCODING 489
SWIDTH 518 0
DWIDTH 7 0
BBX 9 13 -1 0
BITMAP
0000220330
00001CA800
00000A6000
0049500000
00BF400000
00EF100000
02FD06B200
05FA980000
09FFFF6000
0CF76FC000
0FF15FA040
3FC07FB760
6F902DE800
ENDCHAR
STARTCHAR uni01EA
ENCODING 490
SWIDTH 665 0
DWIDTH 9 0
BBX 10 17 0 -3
BITMAP
0000BA0000
00007C0000
00003C0000
0000000000
0029CDDA10
07D5772EB0
6E2CE20BF1
B97F900BF2
66DF300CF1
03FD001FD0
06FA006F80
07F901DE10
05FC3BF400
009EEB4000
003B000000
008A130000
004DB20000
ENDCHAR
STARTCHAR uni01EB
ENCODING 491
SWIDTH 433 0
DWIDTH 6 0
BBX 9 10 -1 -3
BITMAP
004CEA0000
03FC1D4040
0BF53FB710
1FF10E3000
4FD03E0000
3FD0A70000
09FD700000
0680000000
0C72100000
07D9000000
ENDCHAR
STARTCHAR uni01EE
ENCODING 494
SWIDTH 525 0
DWIDTH 7 0
BBX 8 14 0 0
BITMAP
00004015
0000A9B2
00005A10
00000000
03DDDEFA
08D03EC1
0121DE20
000BF500
002DFB20
00009FC0
00004FF0
6C106FD0
AC01DF50
3CDDB400
ENDCHAR
STARTCHAR uni01EF
ENCODING 495
SWIDTH 600 0
DWIDTH 8 0
BBX 7 14 0 -3
BITMAP
00220330
001CB800
000A5000
00000000
2CDFF600
7A2FB000
00CF3000
06F80000
09F50050
00ED0640
00CF9500
3AFF2000
C3FD0000
9EC30000
ENDCHAR
STARTCHAR uni01F4
ENCODING 500
SWIDTH 578 0
DWIDTH 8 0
BBX 8 17 0 -3
BITMAP
000000AB
000002F3
00000890
00000100
003ADDC4
05FE407D
2EF400AA
8FB00000
AF7001B6
AF7007F6
5FB03EF2
07DC8FE0
00003FB0
03CA6F70
0D52AF20
0E52EA00
04CD8000
ENDCHAR
STARTCHAR uni01F5
ENCODING 501
SWIDTH 507 0
DWIDTH 7 0
BBX 9 13 -1 -3
BITMAP
000009C000
00002E2000
0000230000
004CECF900
03ED1AF600
0AF60CF300
1FF20FF000
2FE03FC010
1FE09F8350
08ECDFA600
0027EF2000
00B4FC0000
00BEC20000
ENDCHAR
STARTCHAR Aringacute
ENCODING 506
SWIDTH 668 0
DWIDTH 9 0
BBX 11 16 0 -2
BITMAP
000000000B80
00000000BC00
000000039B00
00000003F900
0000007FF800
000007CBF500
00004E1DF100
0001D61FD000
2ADEF97FA000
CC2F61AF7000
44AE00BF3000
02F900EF1000
07F403FC0000
0BF106F90000
0BD000000000
026000000000
ENDCHAR
STARTCHAR aringacute
ENCODING 507
SWIDTH 526 0
DWIDTH 7 0
BBX 9 11 -1 0
BITMAP
000004C100
0000265000
0000827000
00007D2000
004CECF900
03ED1AF600
0AF50CF300
1FF11FE000
2FE04FC050
1FF5BFC670
08EC3CE800
ENDCHAR
STARTCHAR AEacute
ENCODING 508
SWIDTH 764 0
DWIDTH 11 0
BBX 13 16 0 -2
BITMAP
0000000001F500
0000000007A000
000000000C1000
00000000000000
0000003BFCCC50
0000048AF40000
00003C0DF10000
0001D42FD00000
3ACEEBAFFEB000
CB2F508F711000
21AE00CF400000
02F900FF100000
07F403FE000000
0BF106FFDDA000
0BD00000000000
02600000000000
ENDCHAR
STARTCHAR aeacute
ENCODING 509
SWIDTH 650 0
DWIDTH 9 0
BBX 11 10 -1 0
BITMAP
00000009C000
0000002E2000
000000220000
004CED8DE800
00502FF84C00
00002FE3C600
03BDEFEC6000
0EF37F900130
1FE0CFB02800
09FC6CFC8000
ENDCHAR
STARTCHAR Oslashacute
ENCODING 510
SWIDTH 658 0
DWIDTH 9 0
BBX 9 15 0 -1
BITMAP
0000000C90
0000004E10
000000A700
0000000000
004ACDE700
09C8DD9F60
7D3FD83EB0
B8AF6A0FC0
45FF1B2FB0
05FB296F80
07F855BF40
08F785FC00
05FABDE200
009EFA2000
0003800000
ENDCHAR
STARTCHAR oslashacute
ENCODING 511
SWIDTH 428 0
DWIDTH 6 0
BBX 8 11 -1 -1
BITMAP
00000AB0
00003D10
00003200
003BEB94
02ED1B70
0AF63F60
1FF4BE50
2FFB4E10
1FF4A700
0CEC7000
84000000
ENDCHAR
STARTCHAR uni0200
ENCODING 512
SWIDTH 668 0
DWIDTH 9 0
BBX 10 16 0 -2
BITMAP
00000A77B0
000003E1D4
000000773A
0000000000
0000003BE8
000003BBF6
00003D1DF3
0001C61FE0
2ADEF97FB0
CC2F61AF70
44AE00BF40
02F900EF10
07F403FC00
0BF106F900
0BD0000000
0260000000
ENDCHAR
STARTCHAR uni0201
ENCODING 513
SWIDTH 526 0
DWIDTH 7 0
BBX 9 10 -1 0
BITMAP
00AB6E1000
001D2A6000
000471A000
004CECF900
03ED1AF600
0AF50CF300
1FF11FE000
2FE04FC050
1FF5BFC670
08EC3CE800
ENDCHAR
STARTCHAR uni0202
ENCODING 514
SWIDTH 668 0
DWIDTH 9 0
BBX 12 15 0 -2
BITMAP
00000007CD80
0000008B12F3
000000000010
0000003BE800
000003BBF600
00003D1DF300
0001C61FE000
2ADEF97FB000
CC2F61AF7000
44AE00BF4000
02F900EF1000
07F403FC0000
0BF106F90000
0BD000000000
026000000000
ENDCHAR
STARTCHAR uni0203
ENCODING 515
SWIDTH 526 0
DWIDTH 7 0
BBX 9 10 -1 0
BITMAP
0003CDD300
002E309B00
0000000000
004CECF900
03ED1AF600
0AF50CF300
1FF11FE000
2FE04FC050
1FF5BFC670
08EC3CE800
ENDCHAR
STARTCHAR uni0204
ENCODING 516
SWIDTH 459 0
DWIDTH 6 0
BBX 7 14 0 0
BITMAP
03F3D700
00793D00
000A1740
00000000
0019ED50
00BE24D0
01FA07A0
01FC0100
00AF7000
0CF90000
8FD00000
DF900010
BFB00540
3CED9300
ENDCHAR
STARTCHAR uni0205
ENCODING 517
SWIDTH 384 0
DWIDTH 5 0
BBX 7 10 -1 0
BITMAP
08C4F200
00C48800
00390A00
003CEC00
02EB1F10
0AF49A00
0FFD8100
2FE00050
1FF44A10
07EE9100
ENDCHAR
STARTCHAR uni0206
ENCODING 518
SWIDTH 459 0
DWIDTH 6 0
BBX 8 14 0 0
BITMAP
0002ADC4
001E508C
00010001
00000000
0019ED50
00BE24D0
01FA07A0
01FC0100
00AF7000
0CF90000
8FD00000
DF900010
BFB00540
3CED9300
ENDCHAR
STARTCHAR uni0207
ENCODING 519
SWIDTH 384 0
DWIDTH 5 0
BBX 7 10 -1 0
BITMAP
004CDC30
02E30AA0
00000000
003CEC00
02EB1F10
0AF49A00
0FFD8100
2FE00050
1FF10720
07ED9200
ENDCHAR
STARTCHAR uni0208
ENCODING 520
SWIDTH 375 0
DWIDTH 5 0
BBX 6 14 0 0
BITMAP
0C97D0
02E1C4
006529
000000
0119E7
3A0EF3
C72FF0
A65FC0
009F80
00CF50
00EF20
03FD00
06FA00
09F700
ENDCHAR
STARTCHAR uni0209
ENCODING 521
SWIDTH 267 0
DWIDTH 4 0
BBX 7 10 -2 0
BITMAP
2E5B9000
05B2E100
00925600
002FD000
006FA000
009F6000
00CF3000
00FF0320
01FF6A00
00AEB200
ENDCHAR
STARTCHAR uni020A
ENCODING 522
SWIDTH 375 0
DWIDTH 5 0
BBX 7 13 0 0
BITMAP
002ADC40
00D607D0
00100010
006BE700
1B5CF300
9A1FF000
D64FC000
657F8000
00AF5000
00EF2000
02FD0000
05FA0000
09F70000
ENDCHAR
STARTCHAR uni020B
ENCODING 523
SWIDTH 267 0
DWIDTH 4 0
BBX 6 10 -1 0
BITMAP
03CD90
0E31E2
000000
02FD00
06FA00
09F600
0CF300
0FF032
1FF6A0
0AEB20
ENDCHAR
STARTCHAR uni020C
ENCODING 524
SWIDTH 665 0
DWIDTH 9 0
BBX 10 14 0 0
BITMAP
001E5B9000
0005C2E100
0000835600
0000000000
0029CDDA10
07D5772EB0
6E2CE20BF1
B97F900BF2
66DF300CF1
03FD001FD0
06FA006F80
07F901DE10
04FC3BF400
008EEB3000
ENDCHAR
STARTCHAR uni020D
ENCODING 525
SWIDTH 433 0
DWIDTH 6 0
BBX 9 10 -1 0
BITMAP
09B5E10000
01D3A70000
00381A0000
004CEB0000
03FC1D4140
0BF42FB810
1FE00F3000
4FD04E0000
3FE5D70000
08EE700000
ENDCHAR
STARTCHAR uni020E
ENCODING 526
SWIDTH 665 0
DWIDTH 9 0
BBX 10 13 0 0
BITMAP
000019DD60
0000B905F1
0000100010
0029CDDA10
07D5772EB0
6E2CE20BF1
B97F900BF2
66DF300CF1
03FD001FD0
06FA006F80
07F901DE10
04FC3BF400
008EEB3000
ENDCHAR
STARTCHAR uni020F
ENCODING 527
SWIDTH 433 0
DWIDTH 6 0
BBX 9 10 -1 0
BITMAP
001ADE7000
00C804F100
0000000000
004CEA0000
03FC1D4040
0BF53FB710
1FF10E3000
4FD03E0000
3FD0A70000
08ED700000
ENDCHAR
STARTCHAR uni0210
ENCODING 528
SWIDTH 601 0
DWIDTH 8 0
BBX 9 14 0 0
BITMAP
02E5B90000
005C2E1000
0009256000
0000000000
006BDDC400
1CA6728E10
AB0EF16F10
D73FB3E800
546FEFE300
00AF56F900
00DF25F800
02FD09F400
05FA0DF100
09F70CF200
ENDCHAR
STARTCHAR uni0211
ENCODING 529
SWIDTH 376 0
DWIDTH 5 0
BBX 7 10 -1 0
BITMAP
3F4D7000
07A3D000
00A17400
02FEAE40
06FC4F40
09F60000
0CF30000
0FF00000
3FC00000
6F900000
ENDCHAR
STARTCHAR uni0212
ENCODING 530
SWIDTH 601 0
DWIDTH 8 0
BBX 9 14 0 0
BITMAP
0002ADC400
001E608C00
0001000100
0000000000
006BDDC400
1CA6728E10
AB0EF16F10
D73FB3E800
546FEFE300
00AF56F900
00DF25F800
02FD09F400
05FA0DF100
09F70CF200
ENDCHAR
STARTCHAR uni0213
ENCODING 531
SWIDTH 376 0
DWIDTH 5 0
BBX 7 10 -1 0
BITMAP
003CDD40
02E409B0
00000000
02FEAE40
06FC4F40
09F60000
0CF30000
0FF00000
3FC00000
6F900000
ENDCHAR
STARTCHAR uni0214
ENCODING 532
SWIDTH 716 0
DWIDTH 10 0
BBX 11 14 0 0
BITMAP
0000C88C0000
00003D1D3000
000006538000
000000000000
006BEB008F70
2C67F700BF40
C80BF300EF10
F40FE003FC00
634F9007F900
008F500AF500
00BF200EF100
00DF006FA000
00CF86EE2000
004CFEB30000
ENDCHAR
STARTCHAR uni0215
ENCODING 533
SWIDTH 505 0
DWIDTH 7 0
BBX 9 10 -1 0
BITMAP
06E3E30000
00A66A0000
001A0A1000
02FD0BF500
06FA0EF200
09F62FD000
0CF35FA000
0FF09F7140
1FF6EFA930
0AEA4ED500
ENDCHAR
STARTCHAR uni0216
ENCODING 534
SWIDTH 716 0
DWIDTH 10 0
BBX 11 13 0 0
BITMAP
000002ADC400
00000D607D00
000001000100
006BEB008F70
2C67F700BF40
C80BF300EF10
F40FE003FC00
634F9007F900
008F500AF500
00BF200EF100
00DF006FA000
00CF86EE2000
004CFEB30000
ENDCHAR
STARTCHAR uni0217
ENCODING 535
SWIDTH 505 0
DWIDTH 7 0
BBX 9 10 -1 0
BITMAP
0008DE9000
009A02F300
0000000000
02FD0BF500
06FA0EF200
09F62FD000
0CF35FA000
0FF09F7140
1FF6EFA930
0AEA4ED500
ENDCHAR
STARTCHAR Scommaaccent
ENCODING 536
SWIDTH 570 0
DWIDTH 8 0
BBX 8 13 0 -3
BITMAP
0019EDB2
00AF50BA
00DF30D8
008FC110
000BFB00
0131DF90
2ED43FF1
7F200EF2
5F506FB0
07DFD810
00440000
008B0000
00630000
ENDCHAR
STARTCHAR scommaaccent
ENCODING 537
SWIDTH 382 0
DWIDTH 5 0
BBX 7 12 -1 -4
BITMAP
00024000
003FF200
008EF300
019CF400
073BF500
3E2AF740
660CFB10
1ADD6000
00000000
03E20000
00C10000
01200000
ENDCHAR
STARTCHAR uni021A
ENCODING 538
SWIDTH 481 0
DWIDTH 7 0
BBX 10 14 0 -4
BITMAP
04ACEFACDA
5E30EE0000
C803FB0000
C606F80000
1109F50000
000CF20000
001FE00000
004FB00000
007F800000
00AF500000
0000000000
009A000000
0058000000
0030000000
ENDCHAR
STARTCHAR uni021B
ENCODING 539
SWIDTH 267 0
DWIDTH 4 0
BBX 6 14 -1 -4
BITMAP
000110
00AF40
00EF10
08FFA0
05FB00
08F700
0BF400
0FF131
1FF5A0
0AEB20
000000
0D6000
094000
040000
ENDCHAR
STARTCHAR uni021E
ENCODING 542
SWIDTH 665 0
DWIDTH 9 0
BBX 10 15 0 0
BITMAP
0000004025
000000B9A1
0000007900
0000000000
0000000000
005AE806F9
0A6BF50AF6
8B0EF10DF2
C82FD01FE0
566FFFFFB0
009F608F70
00CF30BF40
01FE00EF10
04FB03FC00
07F806F900
ENDCHAR
STARTCHAR uni021F
ENCODING 543
SWIDTH 600 0
DWIDTH 8 0
BBX 9 13 -1 0
BITMAP
0000040150
00000A9B10
0000069000
0048500000
00AF400000
00EF100000
02FEBE8000
05FC1FE000
08F61FE000
0CF34FB000
0FF07F7020
3FC08F6440
6F903DD600
ENDCHAR
STARTCHAR uni0237
ENCODING 567
SWIDTH 240 0
DWIDTH 3 0
BBX 7 10 -3 -3
BITMAP
0002FD00
0006FA00
0009F700
000CF300
001FF060
004FC450
008FB500
3CEF5000
B2EE1000
7ED40000
ENDCHAR
STARTCHAR uni0259
ENCODING 601
SWIDTH 404 0
DWIDTH 6 0
BBX 6 7 0 0
BITMAP
19DE80
340DF3
000AF5
07CFF4
8B2FD0
E39F40
AEC400
ENDCHAR
STARTCHAR uni0292
ENCODING 658
SWIDTH 442 0
DWIDTH 6 0
BBX 7 10 0 -3
BITMAP
2CDFF600
7A2FB000
00CF3000
06F80000
09F50050
00ED0640
00CF9500
3AFF2000
C3FD0000
9EC30000
ENDCHAR
STARTCHAR uni02BB
ENCODING 699
SWIDTH 241 0
DWIDTH 3 0
BBX 3 4 1 7
BITMAP
0010
0730
2F60
2E70
ENDCHAR
STARTCHAR uni02BC
ENCODING 700
SWIDTH 228 0
DWIDTH 3 0
BBX 2 3 2 8
BITMAP
B9
8A
71
ENDCHAR
STARTCHAR circumflex
ENCODING 710
SWIDTH 293 0
DWIDTH 4 0
BBX 4 3 0 8
BITMAP
0023
04E9
692A
ENDCHAR
STARTCHAR caron
ENCODING 711
SWIDTH 294 0
DWIDTH 4 0
BBX 5 3 1 8
BITMAP
400520
4BC500
0C3000
ENDCHAR
STARTCHAR uni02C9
ENCODING 713
SWIDTH 421 0
DWIDTH 6 0
BBX 6 1 1 8
BITMAP
2DDDD4
ENDCHAR
STARTCHAR uni02CA
ENCODING 714
SWIDTH 256 0
DWIDTH 4 0
BBX 4 3 1 8
BITMAP
0271
0990
2B00
ENDCHAR
STARTCHAR uni02CB
ENCODING 715
SWIDTH 274 0
DWIDTH 4 0
BBX 2 3 2 8
BITMAP
89
4D
0D
ENDCHAR
STARTCHAR breve
ENCODING 728
SWIDTH 431 0
DWIDTH 6 0
BBX 5 3 1 8
BITMAP
200020
E608C0
5CC810
ENDCHAR
STARTCHAR dotaccent
ENCODING 729
SWIDTH 250 0
DWIDTH 4 0
BBX 3 3 0 8
BITMAP
0110
2ED0
1DB0
ENDCHAR
STARTCHAR ring
ENCODING 730
SWIDTH 156 0
DWIDTH 2 0
BBX 3 2 0 7
BITMAP
AC10
BC10
ENDCHAR
STARTCHAR ogonek
ENCODING 731
SWIDTH 291 0
DWIDTH 4 0
BBX 4 4 0 -3
BITMAP
0010
0A30
5D03
2CC4
ENDCHAR
STARTCHAR tilde
ENCODING 732
SWIDTH 403 0
DWIDTH 6 0
BBX 6 2 0 8
BITMAP
027621
28BED6
ENDCHAR
STARTCHAR hungarumlaut
ENCODING 733
SWIDTH 436 0
DWIDTH 6 0
BBX 6 3 1 8
BITMAP
0995B1
2E2C50
854900
ENDCHAR
STARTCHAR gravecomb
ENCODING 768
SWIDTH 0 0
DWIDTH 0 0
BBX 3 3 -3 8
BITMAP
4D10
0E30
0950
ENDCHAR
STARTCHAR acutecomb
ENCODING 769
SWIDTH 0 0
DWIDTH 0 0
BBX 3 3 -3 8
BITMAP
0460
1E30
7600
ENDCHAR
STARTCHAR uni0302
ENCODING 770
SWIDTH 0 0
DWIDTH 0 0
BBX 5 3 -4 8
BITMAP
002300
03DB00
593910
ENDCHAR
STARTCHAR tildecomb
ENCODING 771
SWIDTH 0 0
DWIDTH 0 0
BBX 6 2 -5 8
BITMAP
167411
69DE91
ENDCHAR
STARTCHAR uni0304
ENCODING 772
SWIDTH 0 0
DWIDTH 0 0
BBX 6 1 -5 8
BITMAP
1DDDD5
ENDCHAR
STARTCHAR uni0306
ENCODING 774
SWIDTH 0 0
DWIDTH 0 0
BBX 6 3 -5 8
BITMAP
110011
5E12D6
09DB50
ENDCHAR
STARTCHAR uni0307
ENCODING 775
SWIDTH 0 0
DWIDTH 0 0
BBX 3 3 -2 8
BITMAP
0200
8F60
6E50
ENDCHAR
STARTCHAR uni0308
ENCODING 776
SWIDTH 0 0
DWIDTH 0 0
BBX 5 2 -4 8
BITMAP
791C30
9B2E40
ENDCHAR
STARTCHAR hookabovecomb
ENCODING 777
SWIDTH 0 0
DWIDTH 0 0
BBX 4 3 -4 8
BITMAP
1CD4
0178
0850
ENDCHAR
STARTCHAR uni030A
ENCODING 778
SWIDTH 0 0
DWIDTH 0 0
BBX 3 2 -2 7
BITMAP
7C30
8C30
ENDCHAR
STARTCHAR uni030B
ENCODING 779
SWIDTH 0 0
DWIDTH 0 0
BBX 6 3 -5 8
BITMAP
02D3B6
0894D0
1C1B30
ENDCHAR
STARTCHAR uni030C
ENCODING 780
SWIDTH 0 0
DWIDTH 0 0
BBX 5 3 -4 8
BITMAP
220340
0CA900
0A6000
ENDCHAR
STARTCHAR uni030F
ENCODING 783
SWIDTH 0 0
DWIDTH 0 0
BBX 6 3 -5 8
BITMAP
6B3D20
0C5990
03B1C1
ENDCHAR
STARTCHAR uni0311
ENCODING 785
SWIDTH 0 0
DWIDTH 0 0
BBX 6 3 -5 7
BITMAP
08DD70
9A03F2
100010
ENDCHAR
STARTCHAR uni031B
ENCODING 795
SWIDTH 0 0
DWIDTH 0 0
BBX 3 3 -2 6
BITMAP
0C40
0E20
7600
ENDCHAR
STARTCHAR dotbelowcomb
ENCODING 803
SWIDTH 0 0
DWIDTH 0 0
BBX 3 3 -3 -3
BITMAP
0200
6F70
5E60
ENDCHAR
STARTCHAR uni0324
ENCODING 804
SWIDTH 0 0
DWIDTH 0 0
BBX 4 2 -6 -3
BITMAP
B45B
D66D
ENDCHAR
STARTCHAR uni0326
ENCODING 806
SWIDTH 0 0
DWIDTH 0 0
BBX 3 3 -4 -4
BITMAP
3E10
0D10
2200
ENDCHAR
STARTCHAR uni0327
ENCODING 807
SWIDTH 0 0
DWIDTH 0 0
BBX 4 4 -5 -3
BITMAP
0800
3C90
24F2
7A50
ENDCHAR
STARTCHAR uni0328
ENCODING 808
SWIDTH 0 0
DWIDTH 0 0
BBX 3 4 -5 -3
BITMAP
0100
6700
E420
9D80
ENDCHAR
STARTCHAR uni032E
ENCODING 814
SWIDTH 0 0
DWIDTH 0 0
BBX 5 2 -6 -3
BITMAP
D63D20
4BA400
ENDCHAR
STARTCHAR uni0331
ENCODING 817
SWIDTH 0 0
DWIDTH 0 0
BBX 6 1 -7 -2
BITMAP
4DDDD2
ENDCHAR
STARTCHAR uni0335
ENCODING 821
SWIDTH 0 0
DWIDTH 0 0
BBX 6 1 -6 3
BITMAP
4DDDD4
ENDCHAR
STARTCHAR uni0394
ENCODING 916
SWIDTH 619 0
DWIDTH 9 0
BBX 9 12 0 -1
BITMAP
0000035100
00000DF300
00007CF600
0001E4D800
0009A0BA00
003E209D00
00B8007F00
05D1005F20
1D50003F40
7C00001F70
CFFFFFFF80
2222222210
ENDCHAR
STARTCHAR uni03A9
ENCODING 937
SWIDTH 745 0
DWIDTH 10 0
BBX 10 12 0 -1
BITMAP
00005CED60
0009D648F4
007C1000BA
01F300007C
07C000008B
0A900000A8
0B800000E3
09900006B0
04D0002D20
009702C300
7FFD09FFE1
1221022220
ENDCHAR
STARTCHAR uni03BC
ENCODING 956
SWIDTH 505 0
DWIDTH 7 0
BBX 9 10 -1 -3
BITMAP
01CA08C400
05FA0DF200
08F71FE000
0BF44FB000
0EF18F8020
2FE2DF7640
6FFD7FF800
9F80022000
CF30000000
6300000000
ENDCHAR
STARTCHAR pi
ENCODING 960
SWIDTH 530 0
DWIDTH 7 0
BBX 9 7 -1 0
BITMAP
1EFFFFFF50
02E527B200
02F0098000
05C00D4000
08801F1000
0C504D0000
0C202B4000
ENDCHAR
STARTCHAR uni0400
ENCODING 1024
SWIDTH 459 0
DWIDTH 6 0
BBX 7 14 0 0
BITMAP
0002D300
0000C500
00006700
00000000
0019ED50
00BE24D0
01FA07A0
01FC0100
00AF7000
0CF90000
8FD00000
DF900010
BFB00540
3CED9300
ENDCHAR
STARTCHAR uni0401
ENCODING 1025
SWIDTH 459 0
DWIDTH 6 0
BBX 8 13 0 0
BITMAP
000691B3
0008C1E4
00000000
0019ED50
00BE24D0
01FA07A0
01FC0100
00AF7000
0CF90000
8FD00000
DF900010
BFB00540
3CED9300
ENDCHAR
STARTCHAR uni0402
ENCODING 1026
SWIDTH 725 0
DWIDTH 10 0
BBX 10 13 0 -3
BITMAP
029CEFDDDA
3E50DF2000
AA01FE0000
C805FB0000
5608FDCE80
000BF50DF1
000EF10DF2
003FD00FE0
006F903FB0
009F607F60
000000CE10
000116F600
0002CD6000
ENDCHAR
STARTCHAR uni0403
ENCODING 1027
SWIDTH 400 0
DWIDTH 6 0
BBX 9 14 0 0
BITMAP
0000000740
0000005D10
000000B200
0000000000
028CEEFFA0
3E2BF41200
BB0EF10000
B93FC00000
256F900000
009F600000
00CF300000
01FE000000
04FB000000
07F8000000
ENDCHAR
STARTCHAR uni0404
ENCODING 1028
SWIDTH 497 0
DWIDTH 7 0
BBX 8 10 0 0
BITMAP
001AEDA1
01DF60B6
09FA01E4
2FF30010
6FFDD700
9FB00000
BF900000
AFA00011
6FE10281
08DEB710
ENDCHAR
STARTCHAR uni0405
ENCODING 1029
SWIDTH 570 0
DWIDTH 8 0
BBX 8 10 0 0
BITMAP
0019EDB2
00AF50BA
00DF30D8
008FC110
000BFB00
0131DF90
2ED43FF1
7F200EF2
5F506FB0
07DFD810
ENDCHAR
STARTCHAR uni0406
ENCODING 1030
SWIDTH 374 0
DWIDTH 5 0
BBX 6 10 0 0
BITMAP
005AE8
0A6BF5
8B0EF1
C82FD0
566FA0
009F60
00CF30
01FE00
04FB00
07F800
ENDCHAR
STARTCHAR uni0407
ENCODING 1031
SWIDTH 375 0
DWIDTH 5 0
BBX 7 13 0 0
BITMAP
002C2780
002E39B0
00000000
006BE700
1B5CF300
9A1FF000
D64FC000
657F8000
00AF5000
00EF2000
02FD0000
05FA0000
09F70000
ENDCHAR
STARTCHAR uni0408
ENCODING 1032
SWIDTH 536 0
DWIDTH 8 0
BBX 8 13 0 -3
BITMAP
000029DE
0005C6FB
002E47F8
005F0AF5
001A0EF2
00002FD0
00006FA0
00009F70
0000DF30
2BC3FF00
A916FA00
A90BF300
2BDB4000
ENDCHAR
STARTCHAR uni0409
ENCODING 1033
SWIDTH 817 0
DWIDTH 11 0
BBX 12 12 -1 -2
BITMAP
0000018ED000
00001B7FC000
0000B57F9000
0008B0AF5000
003F30EFBDB2
00CB02FD05FB
05F505FA00FE
0CE009F701FC
2FA00CF507F6
5F600FF5DE70
5F5000000000
052000000000
ENDCHAR
STARTCHAR uni040A
ENCODING 1034
SWIDTH 931 0
DWIDTH 13 0
BBX 13 10 0 0
BITMAP
005BE806F90000
1B9BF50AF60000
8C0EF10DF20000
C82FD01FE00000
455FEDEFECD800
009F608F70BF50
00CF30BF407F80
01FE00EF108F60
04FB03FC10DE10
07F806F99EC300
ENDCHAR
STARTCHAR uni040B
ENCODING 1035
SWIDTH 745 0
DWIDTH 10 0
BBX 10 10 0 0
BITMAP
029CEFDDDA
3E50DF2000
AA01FE0000
C805FB0000
5608FDCE80
000BF50DF2
000EF10DF1
003FD01FE0
006F905FB0
009F604FB0
ENDCHAR
STARTCHAR uni040C
ENCODING 1036
SWIDTH 635 0
DWIDTH 9 0
BBX 10 14 0 0
BITMAP
0000000740
0000004D10
000000B200
0000000000
005BE81BE5
1B8BF5C9C4
8B0EF97000
C82FEB0000
455FEDB300
009F64FA00
00CF34F900
01FE08F500
04FB0CF200
07F80BF300
ENDCHAR
STARTCHAR uni040D
ENCODING 1037
SWIDTH 705 0
DWIDTH 10 0
BBX 11 14 0 0
BITMAP
000004D10000
000000E30000
000000850000
000000000000
005AE801EF30
0A6BF509FE00
8B0EF23FFB00
C82FD0CDF700
566FA6BBF400
009F7D3EF100
00CFB83FC000
01FFD16F9000
04FF50AF6000
07FB00DF2000
ENDCHAR
STARTCHAR uni040E
ENCODING 1038
SWIDTH 644 0
DWIDTH 9 0
BBX 10 14 0 0
BITMAP
0000001001
00000CB167
000007CC70
0000000000
005BEB002C
1B95FF0095
8C00EF41D0
C800AF7770
45006FCD10
00002FF800
00000CF200
000008A000
000D8C3000
000CE60000
ENDCHAR
STARTCHAR uni040F
ENCODING 1039
SWIDTH 665 0
DWIDTH 9 0
BBX 10 15 0 -5
BITMAP
005AE806F9
1A6BF50AF6
8B0EF10DF2
C83FD01FE0
556FA05FB0
009F608F70
00CF30BF40
01FE00EF10
04FB03FC00
07FFFFF900
0006400000
000FA00000
000BF40000
0003F20000
0001400000
ENDCHAR
STARTCHAR uni0410
ENCODING 1040
SWIDTH 668 0
DWIDTH 9 0
BBX 10 12 0 -2
BITMAP
0000003BE8
000003BBF6
00003D1DF3
0001C61FE0
2ADEF97FB0
CC2F61AF70
44AE00BF40
02F900EF10
07F403FC00
0BF106F900
0BD0000000
0260000000
ENDCHAR
STARTCHAR uni0411
ENCODING 1041
SWIDTH 638 0
DWIDTH 9 0
BBX 9 10 0 0
BITMAP
028DFFFFA0
4C1EF12200
B83FD00000
D66FA00000
549FCCC500
00DF31EF10
01FF00BF30
04FB00CF20
07F812FA00
0BF6CEA100
ENDCHAR
STARTCHAR uni0412
ENCODING 1042
SWIDTH 641 0
DWIDTH 9 0
BBX 9 10 0 0
BITMAP
005BDEC500
0AB6727F20
7D1DF24F20
C82FD2D900
775FFFF900
009F70CF50
00CF308F70
01FF009F40
04FB11DC00
07F8BEB200
ENDCHAR
STARTCHAR uni0413
ENCODING 1043
SWIDTH 400 0
DWIDTH 6 0
BBX 9 10 0 0
BITMAP
028CEEFFA0
3E2BF41200
BB0EF10000
B93FC00000
256F900000
009F600000
00CF300000
01FE000000
04FB000000
07F8000000
ENDCHAR
STARTCHAR uni0414
ENCODING 1044
SWIDTH 669 0
DWIDTH 9 0
BBX 11 10 -1 0
BITMAP
0016BDED7000
02D96737F700
0AB0EF20EE00
0A84FD00DF10
0018FA00DF10
000CF601FD00
08DFF304F900
3B3FE00AF300
477FC05F9000
0AEB7CE80000
ENDCHAR
STARTCHAR uni0415
ENCODING 1045
SWIDTH 459 0
DWIDTH 6 0
BBX 7 10 0 0
BITMAP
0019ED50
00BE24D0
01FA07A0
01FC0100
00AF7000
0CF90000
8FD00000
DF900010
BFB00540
3CED9300
ENDCHAR
STARTCHAR uni0416
ENCODING 1046
SWIDTH 777 0
DWIDTH 11 0
BBX 13 10 -1 0
BITMAP
007EA04B81BE60
007BD4AF5C9C50
000077EF7A0000
000059FDB20000
003CEEFEEE5000
00DE29F63FB000
03FA0CF33FA000
06F71FF07F6000
0AF44FC0BF2000
3EC07F90AF4000
ENDCHAR
STARTCHAR uni0417
ENCODING 1047
SWIDTH 525 0
DWIDTH 7 0
BBX 8 10 -1 0
BITMAP
0006BEC4
005505FD
002005FD
00001DF5
000AFF60
00001DF5
00000AF9
0B700CF7
1F505FD1
07DDD910
ENDCHAR
STARTCHAR uni0418
ENCODING 1048
SWIDTH 705 0
DWIDTH 10 0
BBX 11 10 0 0
BITMAP
005AE801EF30
0A6BF509FE00
8B0EF23FFB00
C82FD0CDF700
566FA6BBF400
009F7D3EF100
00CFB83FC000
01FFD16F9000
04FF50AF6000
07FB00DF2000
ENDCHAR
STARTCHAR uni0419
ENCODING 1049
SWIDTH 705 0
DWIDTH 10 0
BBX 11 14 0 0
BITMAP
000001000100
00001E818400
000009DB5000
000000000000
005AE801EF30
0A6BF509FE00
8B0EF23FFB00
C82FD0CDF700
566FA6BBF400
009F7D3EF100
00CFB83FC000
01FFD16F9000
04FF50AF6000
07FB00DF2000
ENDCHAR
STARTCHAR uni041A
ENCODING 1050
SWIDTH 635 0
DWIDTH 9 0
BBX 10 10 0 0
BITMAP
005BE81BE5
1B8BF5C9C4
8B0EF97000
C82FEB0000
455FEDB300
009F64FA00
00CF34F900
01FE08F500
04FB0CF200
07F80BF300
ENDCHAR
STARTCHAR uni041B
ENCODING 1051
SWIDTH 549 0
DWIDTH 8 0
BBX 9 12 -1 -2
BITMAP
0000018ED0
00001C9FC0
0000B66F90
0008C0AF60
003F40DF20
00CB02FE00
05F505FA00
0CE008F700
2FA00CF300
5F600FF000
5F50000000
0520000000
ENDCHAR
STARTCHAR uni041C
ENCODING 1052
SWIDTH 787 0
DWIDTH 11 0
BBX 11 10 1 0
BITMAP
017BF701EF30
2C3DF606FF00
B73FF60DFD00
F59FF54FFB00
54ECF4BCF900
05CAF6E9F700
0B6BFB8BF400
2E1CFF2DF200
790CFA0FF000
D40DF42FD000
ENDCHAR
STARTCHAR uni041D
ENCODING 1053
SWIDTH 665 0
DWIDTH 9 0
BBX 10 10 0 0
BITMAP
005AE806F9
0A6BF50AF6
8B0EF10DF2
C82FD01FE0
566FFFFFB0
009F608F70
00CF30BF40
01FE00EF10
04FB03FC00
07F806F900
ENDCHAR
STARTCHAR uni041E
ENCODING 1054
SWIDTH 665 0
DWIDTH 9 0
BBX 10 10 0 0
BITMAP
0029CDDA10
07D5772EB0
6E2CE20BF1
B97F900BF2
66DF300CF1
03FD001FD0
06FA006F80
07F901DE10
04FC3BF400
008EEB3000
ENDCHAR
STARTCHAR uni041F
ENCODING 1055
SWIDTH 688 0
DWIDTH 10 0
BBX 11 10 0 0
BITMAP
038BFAADEDA0
4D1CF30CF400
B81FE00EF100
B74FB03FC000
127F806F9000
00AF509F6000
00DF20CF3000
01FE00FF0000
04FB03FC0000
07F806F90000
ENDCHAR
STARTCHAR uni0420
ENCODING 1056
SWIDTH 573 0
DWIDTH 8 0
BBX 9 10 0 0
BITMAP
005BDDB300
1BA562AE10
9C0EF14F40
D73FC06F20
766F90CA00
00AF8BA100
00DF520000
02FE000000
05FA000000
09F7000000
ENDCHAR
STARTCHAR uni0421
ENCODING 1057
SWIDTH 497 0
DWIDTH 7 0
BBX 8 10 0 0
BITMAP
001AEDA1
01DF60B6
09FB01E5
2FF40030
6FE00000
9FB00000
BFA00000
AFA00001
6FD10281
08DEB710
ENDCHAR
STARTCHAR uni0422
ENCODING 1058
SWIDTH 481 0
DWIDTH 7 0
BBX 10 10 0 0
BITMAP
04ACEFACDA
5E30EE0000
C803FB0000
C606F80000
1109F50000
000CF20000
001FE00000
004FB00000
007F800000
00AF500000
ENDCHAR
STARTCHAR uni0423
ENCODING 1059
SWIDTH 644 0
DWIDTH 9 0
BBX 10 10 0 0
BITMAP
005BEB002C
1B95FF0095
8C00EF41D0
C800AF7770
45006FCD10
00002FF800
00000CF200
000008A000
000D8C3000
000CE60000
ENDCHAR
STARTCHAR uni0424
ENCODING 1060
SWIDTH 786 0
DWIDTH 11 0
BBX 11 11 0 0
BITMAP
005ADDD70000
03F608F70000
01A00BF40000
00475FFBC400
0BC04FC09F30
6F607F905F80
AF40AF506F70
AF50EF20CF30
4FB3FE19F700
05BEFEDA4000
0008F7000000
ENDCHAR
STARTCHAR uni0425
ENCODING 1061
SWIDTH 620 0
DWIDTH 9 0
BBX 9 10 0 0
BITMAP
006BEA0870
1B87FD2C00
9B03FFB400
D700EFA000
6500BF8000
00009FB000
0001EFE000
00095FF300
003A0DF600
00B109F900
ENDCHAR
STARTCHAR uni0426
ENCODING 1062
SWIDTH 692 0
DWIDTH 10 0
BBX 10 12 0 -2
BITMAP
005BE806F9
1B9BF50AF6
8C0EF10DF2
C82FD01FE0
555FA05FA0
009F608F70
00CF30BF40
01FE00EF00
04FB03FC00
07FFDCF800
00025CFECA
0000006DE6
ENDCHAR
STARTCHAR uni0427
ENCODING 1063
SWIDTH 695 0
DWIDTH 10 0
BBX 11 10 0 0
BITMAP
005BE800FF10
1B8BF503FC00
8C0EF107F900
C81FD00AF500
451FE22EF200
0008EEBFE000
0000005FA000
0000008F7000
000000CF4000
000000FF1000
ENDCHAR
STARTCHAR uni0428
ENCODING 1064
SWIDTH 906 0
DWIDTH 13 0
BBX 13 10 0 0
BITMAP
005AE80DF31FE0
1A6BF51FE04FB0
8B0EF14FB07F80
C83FD08F80BF50
556FA0BF40EF10
009F60EF12FD00
00CF33FD06FA00
01FE06F909F600
04FB09F60CF300
07FFFFFFFFE000
ENDCHAR
STARTCHAR uni0429
ENCODING 1065
SWIDTH 934 0
DWIDTH 13 0
BBX 14 12 0 -2
BITMAP
005BE80DF31FE0
1B9BF51FE04FB0
8C0EF14FB07F80
C82FD08F80BF40
565FA0BF40EF10
009F60EF12FD00
00CF33FD06F900
01FE06F909F600
04FB09F60CF200
07FFEEF73FE000
000137BFFFECC3
0000000159DEB0
ENDCHAR
STARTCHAR uni042A
ENCODING 1066
SWIDTH 714 0
DWIDTH 10 0
BBX 10 10 0 0
BITMAP
017BDF8000
1C20BF5000
9800EF2000
C802FD0000
6B06FECD80
0009F70BF4
000CF307F7
001FF008F5
004FC11DD0
007F8AEC20
ENDCHAR
STARTCHAR uni042B
ENCODING 1067
SWIDTH 909 0
DWIDTH 13 0
BBX 14 10 0 0
BITMAP
005BE800000FF1
1B8BF500003FC0
8B0EF100007F90
C82FD00000AF50
455FEBD700DF20
009F60BF42FE00
00CF307F75FA00
01FE009F58F700
04FB11DD0CF400
07F8AEC20FF100
ENDCHAR
STARTCHAR uni042C
ENCODING 1068
SWIDTH 640 0
DWIDTH 9 0
BBX 9 10 0 0
BITMAP
005BE80000
1B8BF50000
8B0EF10000
C82FD00000
455FEBD700
009F60BF40
00CF307F70
01FE009F50
04FB11DD00
07F8AEC200
ENDCHAR
STARTCHAR uni042D
ENCODING 1069
SWIDTH 544 0
DWIDTH 8 0
BBX 9 10 -1 0
BITMAP
0006BED500
007204FF20
003000EF60
000000DF70
000BDDFF50
000002FF20
000007FC00
0C500DF400
1F308F8000
07BBC60000
ENDCHAR
STARTCHAR uni042E
ENCODING 1070
SWIDTH 946 0
DWIDTH 13 0
BBX 14 10 0 0
BITMAP
005BE803BDD910
0A9BF505864FA0
8C0DF11DE10CF0
C82FD09F700CF1
565FFFFF200DF0
009F64FC002FC0
00CF37F9007F70
01FE08F801EE10
04FB05FB2BF400
07F8009EEB3000
ENDCHAR
STARTCHAR uni042F
ENCODING 1071
SWIDTH 630 0
DWIDTH 9 0
BBX 11 10 -1 0
BITMAP
00018CDDC810
001EB2695D90
006F10EF3860
003F64FE0000
003DFFFB0000
00DE3AF80000
03F90DF40000
06F61FF10000
09F34FC00000
3EB07F900000
ENDCHAR
STARTCHAR uni0430
ENCODING 1072
SWIDTH 526 0
DWIDTH 7 0
BBX 9 7 -1 0
BITMAP
004CECF900
03ED1AF600
0AF50CF300
1FF11FE000
2FE04FC050
1FF5BFC670
08EC3CE800
ENDCHAR
STARTCHAR uni0431
ENCODING 1073
SWIDTH 430 0
DWIDTH 6 0
BBX 9 10 -1 0
BITMAP
0007DDDDA0
0009FFFD20
0001B30000
003BEC0000
03ED1C4000
0BF60C6000
1FF10E5000
2FE03E1000
1FE0980000
06ED800000
ENDCHAR
STARTCHAR uni0432
ENCODING 1074
SWIDTH 449 0
DWIDTH 6 0
BBX 9 10 -1 0
BITMAP
0003DD5000
001E94A000
009F267000
02FB0C1000
08F8BC3750
0CF5EF9100
1FF10D6000
3FE00E4000
1FE15C0000
06EDA10000
ENDCHAR
STARTCHAR uni0433
ENCODING 1075
SWIDTH 375 0
DWIDTH 5 0
BBX 7 7 -1 0
BITMAP
019ED400
0926FB00
041BF800
04DFB100
1EF60030
4FE01710
0AED9100
ENDCHAR
STARTCHAR uni0434
ENCODING 1076
SWIDTH 507 0
DWIDTH 7 0
BBX 9 10 -1 -3
BITMAP
004CECF900
03ED1AF600
0AF60CF300
1FF20FF000
2FE03FC010
1FE09F8350
08ECDFA600
0027EF2000
00B4FC0000
00BEC20000
ENDCHAR
STARTCHAR uni0435
ENCODING 1077
SWIDTH 384 0
DWIDTH 5 0
BBX 7 7 -1 0
BITMAP
003CEC00
02EB1F10
0AF49A00
0FFD8100
2FE00050
1FF10720
07ED9200
ENDCHAR
STARTCHAR uni0436
ENCODING 1078
SWIDTH 882 0
DWIDTH 12 0
BBX 14 7 -1 0
BITMAP
02BE905F809EB0
0A17F38F57E2F1
0106F5BF3E9040
0007FDFFDF6000
140AE3FB6F4003
7A2F86F76F6055
3DC809F41BEB40
ENDCHAR
STARTCHAR uni0437
ENCODING 1079
SWIDTH 498 0
DWIDTH 7 0
BBX 8 10 0 -3
BITMAP
03BED500
2A14FD00
8204FD00
701BF401
05FF4054
004FA390
004FF700
09AFD000
2A6F8000
1BEA1000
ENDCHAR
STARTCHAR uni0438
ENCODING 1080
SWIDTH 505 0
DWIDTH 7 0
BBX 9 7 -1 0
BITMAP
02FD0BF500
06FA0EF200
09F62FD000
0CF35FA000
0FF09F7140
1FF6EFA930
0AEA4ED500
ENDCHAR
STARTCHAR uni0439
ENCODING 1081
SWIDTH 505 0
DWIDTH 7 0
BBX 9 10 -1 0
BITMAP
0001000100
002F729200
001ADB4000
02FD0BF500
06FA0EF200
09F62FD000
0CF35FA000
0FF09F7140
1FF6EFA930
0AEA4ED500
ENDCHAR
STARTCHAR uni043A
ENCODING 1082
SWIDTH 501 0
DWIDTH 7 0
BBX 9 7 -1 0
BITMAP
02FD07E800
05F998A600
09FDE91000
0CF49F6000
0FE08F6250
3FB09F8910
6F903DD400
ENDCHAR
STARTCHAR uni043B
ENCODING 1083
SWIDTH 558 0
DWIDTH 8 0
BBX 10 7 -1 0
BITMAP
00005DFF10
0000C2FD00
000474FA00
000837F700
020B0BF411
7E2B0CF271
3CC306EC40
ENDCHAR
STARTCHAR uni043C
ENCODING 1084
SWIDTH 827 0
DWIDTH 12 0
BBX 13 7 -1 0
BITMAP
00004DB009FC00
0001BEC02FF900
00057DD09DF600
00083CE2CBF200
270A0BE95EE050
7C1A0AFC1FE690
2CC309F509EB10
ENDCHAR
STARTCHAR uni043D
ENCODING 1085
SWIDTH 507 0
DWIDTH 7 0
BBX 9 7 -1 0
BITMAP
02FD08F500
06FA0BF200
09F70EE000
0CFDDFB000
0FF16F8010
3FC08F6450
6F903DD600
ENDCHAR
STARTCHAR uni043E
ENCODING 1086
SWIDTH 439 0
DWIDTH 6 0
BBX 9 7 -1 0
BITMAP
003BEB1000
02ED1C5040
0AF61FB820
1FF20D4000
2FE02F1000
1FE0980000
07ED800000
ENDCHAR
STARTCHAR uni043F
ENCODING 1087
SWIDTH 505 0
DWIDTH 7 0
BBX 9 7 -1 0
BITMAP
02FEBE8000
06FC1FE000
09F61FE000
0CF34FB000
0FF07F7020
3FC08F6440
6F903DD600
ENDCHAR
STARTCHAR uni0440
ENCODING 1088
SWIDTH 468 0
DWIDTH 7 0
BBX 9 12 -2 -4
BITMAP
0007700000
002FEBE900
006FB0CF20
009F60CF30
00CF30EF10
01FF04FC00
03FE4CF500
07FDED6000
0AF5000000
0DF2000000
1FE0000000
1300000000
ENDCHAR
STARTCHAR uni0441
ENCODING 1089
SWIDTH 384 0
DWIDTH 5 0
BBX 7 7 -1 0
BITMAP
003CEB00
02ED1F10
0AF60500
0EF10000
2FE00020
1FE10640
07EDA300
ENDCHAR
STARTCHAR uni0442
ENCODING 1090
SWIDTH 752 0
DWIDTH 11 0
BBX 12 7 -1 0
BITMAP
02FEBFB8ED20
06FC1FF49F60
09F63FD0AF60
0CF36FA0DF30
0FF09F71FE02
3FC0CF42FD08
6F90EF10AEA1
ENDCHAR
STARTCHAR uni0443
ENCODING 1091
SWIDTH 486 0
DWIDTH 7 0
BBX 9 10 -1 -3
BITMAP
02FD0BF500
06FA0EF100
09F62FD000
0CF35FA000
0FF09F7220
1FF7FF4800
0AEBFF7200
007BFC0000
059AF70000
02DE900000
ENDCHAR
STARTCHAR uni0444
ENCODING 1092
SWIDTH 738 0
DWIDTH 10 0
BBX 11 14 -1 -4
BITMAP
000000591000
000000EE0000
000003FA0000
004CECFCDE40
03FD1AF54FA0
0AF60CF03FB0
0FF10FC05FA0
2FD03F908F60
2FE09F72ED10
08EBDFDEB200
0000EE000000
0002FB000000
0006F7000000
000220000000
ENDCHAR
STARTCHAR uni0445
ENCODING 1093
SWIDTH 522 0
DWIDTH 7 0
BBX 8 7 0 0
BITMAP
02BE57B0
082FC2D0
530EEC40
800DF400
604FF202
04B8F527
3B11CD70
ENDCHAR
STARTCHAR uni0446
ENCODING 1094
SWIDTH 535 0
DWIDTH 7 0
BBX 8 10 -1 -3
BITMAP
02FD0BF5
06FA0EF2
09F62FD0
0CF35FA0
0FF09F70
1FF6EFA3
0AEA4ED8
0019CDE3
007FFE70
00600000
ENDCHAR
STARTCHAR uni0447
ENCODING 1095
SWIDTH 505 0
DWIDTH 7 0
BBX 8 7 0 0
BITMAP
2FD0AF50
5FA0EF20
8F72FD00
9FABFA00
4EDCF703
0009F993
0004ED50
ENDCHAR
STARTCHAR uni0448
ENCODING 1096
SWIDTH 752 0
DWIDTH 11 0
BBX 12 7 -1 0
BITMAP
02FD0BF53FC0
06FA0EF27F80
09F62FD0AF50
0CF35FA0DF20
0FF09F72FE05
1FF6EFAAFE68
0AEA4ED4AEA1
ENDCHAR
STARTCHAR uni0449
ENCODING 1097
SWIDTH 782 0
DWIDTH 11 0
BBX 11 10 -1 -3
BITMAP
02FD0BF53FC0
06FA0EF27F80
09F62FD0AF50
0CF35FA0DF20
0FF09F72FE00
1FF6EFAAFE50
0AEA4ED4BED0
0000007CDDA0
000003FFFB10
000007300000
ENDCHAR
STARTCHAR uni044A
ENCODING 1098
SWIDTH 448 0
DWIDTH 6 0
BBX 6 7 0 0
BITMAP
7DEB00
D6D200
1CECD3
8F43FA
EF04F9
FE0AE3
7EDB30
ENDCHAR
STARTCHAR uni044B
ENCODING 1099
SWIDTH 655 0
DWIDTH 9 0
BBX 10 7 0 0
BITMAP
3FC0004D60
6F802AEF30
9F7CD2DE00
CF22F2FB00
FE05E5F806
FD3D87FB94
7EE802DE60
ENDCHAR
STARTCHAR uni044C
ENCODING 1100
SWIDTH 448 0
DWIDTH 6 0
BBX 6 7 0 0
BITMAP
2FD000
5FA000
9FEFD3
CF55FA
FF14F9
FF3CE2
7EEB30
ENDCHAR
STARTCHAR uni044D
ENCODING 1101
SWIDTH 413 0
DWIDTH 6 0
BBX 7 7 -1 0
BITMAP
019DE700
0921EF10
0000DF30
008DFE10
2303FA00
A70BE200
5DCB2000
ENDCHAR
STARTCHAR uni044E
ENCODING 1102
SWIDTH 675 0
DWIDTH 9 0
BBX 13 7 -1 0
BITMAP
02FD019ED30000
06FA0BF4790310
09F74FB0CD7400
0CFDEF60990000
0FF1DF30C50000
3FC0CF44C00000
6F904DEA100000
ENDCHAR
STARTCHAR uni044F
ENCODING 1103
SWIDTH 527 0
DWIDTH 7 0
BBX 9 7 -1 0
BITMAP
002BDEF900
00DD18F600
01FC0BF300
006EDFF100
390E3FC060
7F4B4FA260
2CD31BE800
ENDCHAR
STARTCHAR uni0450
ENCODING 1104
SWIDTH 384 0
DWIDTH 5 0
BBX 7 11 -1 0
BITMAP
00098000
0005C000
0000D000
00000000
003CEC00
02EB1F10
0AF49A00
0FFD8100
2FE00050
1FF10720
07ED9200
ENDCHAR
STARTCHAR uni0451
ENCODING 1105
SWIDTH 384 0
DWIDTH 5 0
BBX 7 10 -1 0
BITMAP
001C3790
002E49B0
00000000
003CEC00
02EB1F10
0AF49A00
0FFD8100
2FE00050
1FF10720
07ED9200
ENDCHAR
STARTCHAR uni0452
ENCODING 1106
SWIDTH 491 0
DWIDTH 7 0
BBX 9 13 -1 -3
BITMAP
006C600000
00BF400000
09FFDA0000
03FD000000
06FDCD5000
09F93FC000
0CF35FA000
0FE08F7230
3FC0CF3800
6F93FE6100
00ADFA0000
0497F50000
01CE900000
ENDCHAR
STARTCHAR uni0453
ENCODING 1107
SWIDTH 375 0
DWIDTH 5 0
BBX 7 11 -1 0
BITMAP
00000740
00004D10
0000B300
00000000
019ED400
0926FB00
041BF800
04DFB100
1EF60030
4FE01710
0AED9100
ENDCHAR
STARTCHAR uni0454
ENCODING 1108
SWIDTH 384 0
DWIDTH 5 0
BBX 7 7 -1 0
BITMAP
003CEB00
02ED1F10
0AF60500
0EFDA000
2FE00020
1FE00640
07EDA300
ENDCHAR
STARTCHAR uni0455
ENCODING 1109
SWIDTH 382 0
DWIDTH 5 0
BBX 7 8 -1 0
BITMAP
00024000
003FF200
008EF300
019CF400
073BF500
3E2AF740
660CFB10
1ADD6000
ENDCHAR
STARTCHAR uni0456
ENCODING 1110
SWIDTH 267 0
DWIDTH 4 0
BBX 6 10 -1 0
BITMAP
008E30
009F40
000100
02FD00
06FA00
09F600
0CF300
0FF032
1FF6A0
0AEB20
ENDCHAR
STARTCHAR uni0457
ENCODING 1111
SWIDTH 267 0
DWIDTH 4 0
BBX 6 10 -1 0
BITMAP
0791C3
09B2E4
000000
02FD00
06FA00
09F600
0CF300
0FF032
1FF6A0
0AEB20
ENDCHAR
STARTCHAR uni0458
ENCODING 1112
SWIDTH 240 0
DWIDTH 3 0
BBX 7 13 -3 -3
BITMAP
00009E20
0000BF30
00000100
0002FD00
0006FA00
0009F700
000CF300
001FF060
004FC450
008FB500
3CEF5000
B2EE1000
7ED40000
ENDCHAR
STARTCHAR uni0459
ENCODING 1113
SWIDTH 745 0
DWIDTH 10 0
BBX 11 7 -1 0
BITMAP
00005DFF1000
0001D3FD0000
000595FEEE50
000958F94FC0
150C1BF31FB0
7E3C0BF27F40
3DD404DEC400
ENDCHAR
STARTCHAR uni045A
ENCODING 1114
SWIDTH 694 0
DWIDTH 10 0
BBX 11 7 -1 0
BITMAP
02FD08F50000
06FA0BF20000
09F70EFAC600
0CFDDFD6EF10
0FF16F80BF10
3FC07F63F900
6F902CED7000
ENDCHAR
STARTCHAR uni045B
ENCODING 1115
SWIDTH 505 0
DWIDTH 7 0
BBX 9 10 -1 0
BITMAP
006C600000
00BF400000
09FFDA0000
03FD000000
06FDCD5000
09F93FC000
0CF34FB000
0FE07F8030
3FC08F6440
6F903DD600
ENDCHAR
STARTCHAR uni045C
ENCODING 1116
SWIDTH 501 0
DWIDTH 7 0
BBX 9 11 -1 0
BITMAP
0000027100
00000A8000
00003B0000
0000000000
02FD07E800
05F998A600
09FDE91000
0CF49F6000
0FE08F6250
3FB09F8910
6F903DD400
ENDCHAR
STARTCHAR uni045D
ENCODING 1117
SWIDTH 505 0
DWIDTH 7 0
BBX 9 11 -1 0
BITMAP
0005C00000
0001F10000
0000A30000
0000000000
02FD0BF500
06FA0EF200
09F62FD000
0CF35FA000
0FF09F7140
1FF6EFA930
0AEA4ED500
ENDCHAR
STARTCHAR uni045E
ENCODING 1118
SWIDTH 486 0
DWIDTH 7 0
BBX 9 13 -1 -3
BITMAP
0001000100
002F629200
001ADB3000
02FD0BF500
06FA0EF100
09F62FD000
0CF35FA000
0FF09F7220
1FF7FF4800
0AEBFF7200
007BFC0000
059AF70000
02DE900000
ENDCHAR
STARTCHAR uni045F
ENCODING 1119
SWIDTH 505 0
DWIDTH 7 0
BBX 9 11 -1 -4
BITMAP
02FD0BF500
06FA0EF200
09F62FD000
0CF35FA000
0FF09F7140
1FF6EFA930
0AEA4ED500
0006600000
000DE00000
0007C00000
0001100000
ENDCHAR
STARTCHAR uni0462
ENCODING 1122
SWIDTH 659 0
DWIDTH 9 0
BBX 9 10 0 0
BITMAP
000BF50000
19CFF81150
AA4FD9DC30
D67F900000
76AFDCC500
00DF41DF20
01FF10AF40
04FC00BF20
07F912FB00
0AF6CEA100
ENDCHAR
STARTCHAR uni0463
ENCODING 1123
SWIDTH 692 0
DWIDTH 10 0
BBX 11 7 -1 0
BITMAP
02FEBE900000
06FC0FF00000
09F61FFBD700
0CF34FA0CF10
0FF07F70CF10
3FC07F64F800
6F902CEC7000
ENDCHAR
STARTCHAR uni046A
ENCODING 1130
SWIDTH 834 0
DWIDTH 12 0
BBX 11 10 0 0
BITMAP
0028DFEDDDC0
05E5AFA00A20
1E504FF18500
3F100DFB9000
0529CDFECC50
00BF38F82FC0
02FB0BF52FB0
05F80EF16F80
08F52FD0AF40
2ED05FA09F50
ENDCHAR
STARTCHAR uni046B
ENCODING 1131
SWIDTH 750 0
DWIDTH 11 0
BBX 10 7 0 0
BITMAP
019EFEDE90
0BA4FD0910
0D50DF8500
018CDFEC90
05F79F4BF1
09F2CF1ED0
1DB1FC1EB0
ENDCHAR
STARTCHAR uni0472
ENCODING 1138
SWIDTH 665 0
DWIDTH 9 0
BBX 10 10 0 0
BITMAP
0029CDDA10
07D6972EB0
6E2CE10BF1
B97F700BF2
67EFAA1CF1
03FC09BFD0
06FA007F80
07F900DE10
04FB08F400
008EDB3000
ENDCHAR
STARTCHAR uni0473
ENCODING 1139
SWIDTH 439 0
DWIDTH 6 0
BBX 9 7 -1 0
BITMAP
003BEC1000
02EC1D6360
0AF62ED710
1FF9DF4000
2FE04E1000
1FF5D80000
07EE800000
ENDCHAR
STARTCHAR uni0474
ENCODING 1140
SWIDTH 668 0
DWIDTH 9 0
BBX 11 10 0 0
BITMAP
006BE800AD20
1B88F907F400
9B07F90DA000
D707F93F2000
6507F97B0000
0006FAB50000
0006FAD00000
0005FD800000
0005FF300000
0005FD000000
ENDCHAR
STARTCHAR uni0475
ENCODING 1141
SWIDTH 414 0
DWIDTH 6 0
BBX 7 7 -1 0
BITMAP
02FD1C60
06FA0480
09F60770
0CF30C30
0FF04C00
1FE6D300
0AEC4000
ENDCHAR
STARTCHAR uni0490
ENCODING 1168
SWIDTH 431 0
DWIDTH 6 0
BBX 9 12 0 0
BITMAP
0000000030
00000003D0
029DEFFFE0
2E8DFBCC40
AA0EF10000
C83FC00000
777F800000
00AF500000
00EF100000
02FD000000
06FA000000
09F6000000
ENDCHAR
STARTCHAR uni0491
ENCODING 1169
SWIDTH 342 0
DWIDTH 5 0
BBX 7 9 -1 0
BITMAP
00000100
00000E40
02FFDA00
06F90000
09F60000
0CF30000
0FF00000
3FC00000
6F900000
ENDCHAR
STARTCHAR uni0492
ENCODING 1170
SWIDTH 400 0
DWIDTH 6 0
BBX 9 10 0 0
BITMAP
028CEFFFA0
3E2BF41200
BB0EF10000
B93FD00000
256F900000
08DFC90000
00DF300000
01FE000000
04FB000000
07F8000000
ENDCHAR
STARTCHAR uni0493
ENCODING 1171
SWIDTH 375 0
DWIDTH 5 0
BBX 7 7 -1 0
BITMAP
019EE500
0926FB00
040BF600
3DEFEC00
1DF50030
4FE01720
1AED9100
ENDCHAR
STARTCHAR uni0494
ENCODING 1172
SWIDTH 665 0
DWIDTH 9 0
BBX 9 10 0 0
BITMAP
018BEFFFA0
2E3BF41200
AB0EF10000
CA3FE00000
796FEDE900
009F809F60
00CF404F90
01FF006F70
04FC11DD10
07F8ADA200
ENDCHAR
STARTCHAR uni0495
ENCODING 1173
SWIDTH 486 0
DWIDTH 7 0
BBX 9 10 -1 -3
BITMAP
02EFFFE100
05F9121000
08FBED2000
0CF5BF7000
0FE09F5430
3FC0CF3800
6F94FE5000
00BDF90000
0597F40000
02CE800000
ENDCHAR
STARTCHAR uni0496
ENCODING 1174
SWIDTH 777 0
DWIDTH 11 0
BBX 13 15 -1 -5
BITMAP
007EA04B81BE60
007BD4AF5C9C50
000077EF7A0000
000059FDB20000
003CEEFEEE5000
00DE29F63FB000
03FA0CF33FA000
06F71FF07F6000
0AF44FC0BF2000
3EC07F90AF4000
00000000B71000
00000000EC1000
000000008F4000
000000002C1000
00000000100000
ENDCHAR
STARTCHAR uni0497
ENCODING 1175
SWIDTH 882 0
DWIDTH 12 0
BBX 14 11 -1 -4
BITMAP
02BE905F809EB0
0A17F38F57E2F1
0106F5BF3E9040
0007FDFFDF6000
140AE3FB6F4003
7A2F86F76F7075
3DC809F41BFD50
0000000001C100
0000000005F700
0000000000C300
00000000001000
ENDCHAR
STARTCHAR uni0498
ENCODING 1176
SWIDTH 525 0
DWIDTH 7 0
BBX 8 14 -1 -4
BITMAP
0006BEC4
005505FD
002005FD
00001DF5
000AFF60
00001DF5
00000AF9
0B700CF7
1F505FE2
07DDFB20
001E4000
001FC000
0009F200
0004A000
ENDCHAR
STARTCHAR uni0499
ENCODING 1177
SWIDTH 498 0
DWIDTH 7 0
BBX 8 14 0 -7
BITMAP
03BED500
2A14FD00
8204FD00
701BF401
05FF4054
004FB490
005FF500
0A8FD000
2A8F8000
1CFA1000
05800000
0BF10000
05C00000
01100000
ENDCHAR
STARTCHAR uni049A
ENCODING 1178
SWIDTH 635 0
DWIDTH 9 0
BBX 10 15 0 -5
BITMAP
005BE81BE5
1B8BF5C9C4
8B0EF97000
C82FEB0000
455FEDB300
009F64FA00
00CF34F900
01FE08F500
04FB0CF200
07F80DF300
00000AA000
00000CF200
000005F700
000000C200
0000001000
ENDCHAR
STARTCHAR uni049B
ENCODING 1179
SWIDTH 501 0
DWIDTH 7 0
BBX 9 11 -1 -4
BITMAP
02FD07E800
05F998A600
09FDE81000
0CF49F6000
0FE08F6140
3FB09F5620
6F903ED500
00000B4000
00001FB000
0000096000
0000010000
ENDCHAR
STARTCHAR uni049C
ENCODING 1180
SWIDTH 721 0
DWIDTH 10 0
BBX 11 10 0 0
BITMAP
005BE8009E80
1B8BF50AAB70
8C0EF3590000
C82FD8A10000
455FFFFD2000
009F87AF5000
00CF41AF3000
01FE00DE0000
04FB02FB0000
07F802EC0000
ENDCHAR
STARTCHAR uni049D
ENCODING 1181
SWIDTH 551 0
DWIDTH 8 0
BBX 10 7 -1 0
BITMAP
02FD018E50
05FB981B40
09FBE96000
0CFE5DF200
0FEC0DF162
3FC00EF7A0
6F9007EC20
ENDCHAR
STARTCHAR uni04A0
ENCODING 1184
SWIDTH 691 0
DWIDTH 10 0
BBX 11 10 0 0
BITMAP
029CEE43CE20
4E40EF4C5C20
B903FDB20000
D606FE700000
5509FFEC2000
000CF38F7000
001FF07F5000
004FC0BF2000
007F81FE0000
00BF51DE1000
ENDCHAR
STARTCHAR uni04A1
ENCODING 1185
SWIDTH 676 0
DWIDTH 9 0
BBX 11 7 -1 0
BITMAP
029CED42BD10
0DA0DF3C7B00
1F51FEC82000
0635FFBFC000
0008F71FC040
000BF42FD780
000EF10BEA10
ENDCHAR
STARTCHAR uni04A2
ENCODING 1186
SWIDTH 665 0
DWIDTH 9 0
BBX 10 12 0 -2
BITMAP
005BE806F9
0A9BF50AF6
8C0EF10DF2
C82FD01FE0
565FFFFFA0
009F608F70
00CF30BF30
01FE00EF00
04FB03FC00
07F806FC20
0000003FFC
00000007E6
ENDCHAR
STARTCHAR uni04A3
ENCODING 1187
SWIDTH 507 0
DWIDTH 7 0
BBX 9 11 -1 -4
BITMAP
02FD08F500
06FA0BF200
09F70EE000
0CFDDFB000
0FF16F8010
3FC08F6450
6F904EE700
0000095000
00000FC000
0000088000
0000010000
ENDCHAR
STARTCHAR uni04A4
ENCODING 1188
SWIDTH 689 0
DWIDTH 10 0
BBX 13 10 0 0
BITMAP
005AE806EEFFB0
0A4BF50AF41200
8B0EF10DF10000
C83FD01FD00000
566FFFFFA00000
009F608F700000
00DF30BF300000
01FE00EF000000
04FB03FC000000
07F806F9000000
ENDCHAR
STARTCHAR uni04A5
ENCODING 1189
SWIDTH 681 0
DWIDTH 10 0
BBX 11 7 -1 0
BITMAP
02FD07EFFFB0
06FA0BF8BC40
09F70EE00000
0CFDDFB00000
0FF16F703000
3FC08FA94000
6F903DE60000
ENDCHAR
STARTCHAR uni04AA
ENCODING 1194
SWIDTH 497 0
DWIDTH 7 0
BBX 8 15 0 -5
BITMAP
0019EDA1
00CF60B6
08FB01D5
1EF40030
5FE00000
8FB00000
AFA00000
BF900000
9FD00072
3FFDAD50
03BE7200
009E2000
005FA000
000C9000
00050000
ENDCHAR
STARTCHAR uni04AB
ENCODING 1195
SWIDTH 384 0
DWIDTH 5 0
BBX 7 11 -1 -4
BITMAP
003CEB00
02ED1F10
0AF60400
0EF10000
2FE00040
1FF33930
08EFB300
00870000
00DE0000
006A0000
00100000
ENDCHAR
STARTCHAR uni04AE
ENCODING 1198
SWIDTH 620 0
DWIDTH 9 0
BBX 10 10 0 0
BITMAP
006BEA0068
1B86FE00B1
9B02FF3390
D700DF6920
65009FBA00
00005FF300
00005FE000
00008FA000
0000CF7000
0000FF4000
ENDCHAR
STARTCHAR uni04AF
ENCODING 1199
SWIDTH 480 0
DWIDTH 7 0
BBX 7 10 0 -3
BITMAP
3FC03C30
2FE00840
0FF00B10
0EF24900
0CF4C100
0BFD5000
0AF90000
0CF40000
1FF10000
3C700000
ENDCHAR
STARTCHAR uni04B0
ENCODING 1200
SWIDTH 620 0
DWIDTH 9 0
BBX 10 10 0 0
BITMAP
006BEA0068
1B86FE00B1
9B02FF3390
D700DF6920
65009FBA00
00005FF300
0006FFFD20
00008FA000
0000CF7000
0000FF4000
ENDCHAR
STARTCHAR uni04B1
ENCODING 1201
SWIDTH 480 0
DWIDTH 7 0
BBX 7 10 0 -3
BITMAP
3FC03C30
2FE00840
0FF00B10
0EF24900
0CF4C100
0BFD5000
0AF90000
BFFFA000
1FF10000
3C700000
ENDCHAR
STARTCHAR uni04B6
ENCODING 1206
SWIDTH 695 0
DWIDTH 10 0
BBX 11 12 0 -2
BITMAP
005BE800FF10
1B8BF503FC00
8C0EF107F900
C81FD00AF500
451FE22EF200
0008EEBFD000
0000005FA000
0000009F6000
000000CF3000
000001FF5000
0000001BFE40
00000002EB00
ENDCHAR
STARTCHAR uni04B7
ENCODING 1207
SWIDTH 505 0
DWIDTH 7 0
BBX 8 11 0 -4
BITMAP
2FD0AF50
5FA0EF20
8F72FD00
9FABFA00
4EDCF703
0009F993
0004EE60
0000B300
0001FB00
00009700
00001000
ENDCHAR
STARTCHAR uni04B8
ENCODING 1208
SWIDTH 715 0
DWIDTH 10 0
BBX 11 10 0 0
BITMAP
005BE800BF50
0A9BF500EF10
8C0EF102FD00
C81FD006FA00
661FE47AF600
0007EFCEF300
0000091FE000
0000024FB000
0000007F8000
000000BF4000
ENDCHAR
STARTCHAR uni04B9
ENCODING 1209
SWIDTH 545 0
DWIDTH 8 0
BBX 9 7 0 0
BITMAP
2FD02FD000
5FA05FA000
8F7A9F7000
9FBDFF4000
3DFAFF1310
0083FF4900
0010AEB100
ENDCHAR
STARTCHAR uni04BA
ENCODING 1210
SWIDTH 679 0
DWIDTH 10 0
BBX 9 10 0 0
BITMAP
005BE80000
0A9BF50000
8C0EF10000
C82FD00000
565FDCFD30
009F817F90
00CF305F90
01FE008F70
04FB00BF40
07F800FF00
ENDCHAR
STARTCHAR uni04BB
ENCODING 1211
SWIDTH 505 0
DWIDTH 7 0
BBX 9 10 -1 0
BITMAP
0048500000
00AF400000
00EF100000
02FEBE8000
05FC1FE000
08F61FE000
0CF34FB000
0FF07F7020
3FC08F6440
6F903DD600
ENDCHAR
STARTCHAR uni04C0
ENCODING 1216
SWIDTH 375 0
DWIDTH 5 0
BBX 6 10 0 0
BITMAP
006BE7
1B5CF3
9A1FF0
D64FC0
657F80
00AF50
00EF20
02FD00
05FA00
09F700
ENDCHAR
STARTCHAR uni04C1
ENCODING 1217
SWIDTH 777 0
DWIDTH 11 0
BBX 13 14 -1 0
BITMAP
00000010001000
000003F62A2000
000001ADA30000
00000000000000
007EA04B81BE60
007BD4AF5C9C50
000077EF7A0000
000059FDB20000
003CEEFEEE5000
00DE29F63FB000
03FA0CF33FA000
06F71FF07F6000
0AF44FC0BF2000
3EC07F90AF4000
ENDCHAR
STARTCHAR uni04C2
ENCODING 1218
SWIDTH 882 0
DWIDTH 12 0
BBX 14 10 -1 0
BITMAP
00000010001000
000003F52A2000
000001BDA30000
02BE905F809EB0
0A17F38F57E2F1
0106F5BF3E9040
0007FDFFDF6000
140AE3FB6F4003
7A2F86F76F6055
3DC809F41BEB40
ENDCHAR
STARTCHAR uni04CB
ENCODING 1227
SWIDTH 695 0
DWIDTH 10 0
BBX 11 12 0 -2
BITMAP
005BE800FF10
1B9BF503FC00
8C0EF107F900
C81FD00AF500
451FE23EF200
0008EEBFE000
0000005FA000
0000008F7000
000000BF4000
001127FF1000
006FFD310000
001BA1000000
ENDCHAR
STARTCHAR uni04CC
ENCODING 1228
SWIDTH 516 0
DWIDTH 7 0
BBX 8 10 0 -3
BITMAP
0FF18F70
3FC0BF40
6F91EF10
7FCAFC00
2DEBF904
0007FC95
0001BC50
08CDE100
4FFD4000
82000000
ENDCHAR
STARTCHAR uni04CF
ENCODING 1231
SWIDTH 267 0
DWIDTH 4 0
BBX 6 10 -1 0
BITMAP
003850
00AF40
00EF10
02FD00
05FA00
09F600
0CF300
0FF032
1FF8B0
0AEB20
ENDCHAR
STARTCHAR uni04D0
ENCODING 1232
SWIDTH 668 0
DWIDTH 9 0
BBX 12 16 0 -2
BITMAP
000000010011
0000004F42A1
0000002BDA30
000000000000
0000003BE800
000003BBF600
00003D1DF300
0001C61FE000
2ADEF97FB000
CC2F61AF7000
44AE00BF4000
02F900EF1000
07F403FC0000
0BF106F90000
0BD000000000
026000000000
ENDCHAR
STARTCHAR uni04D1
ENCODING 1233
SWIDTH 526 0
DWIDTH 7 0
BBX 9 10 -1 0
BITMAP
0000100100
0006F23A00
0003BC9100
004CECF900
03ED1AF600
0AF50CF300
1FF11FE000
2FE04FC050
1FF5BFC670
08EC3CE800
ENDCHAR
STARTCHAR uni04D2
ENCODING 1234
SWIDTH 668 0
DWIDTH 9 0
BBX 11 16 0 -2
BITMAP
0000000B55B0
0000001D66D0
000000000000
000000000000
0000003BE800
000003BBF600
00003D1DF300
0001C61FE000
2ADEF97FB000
CC2F61AF7000
44AE00BF4000
02F900EF1000
07F403FC0000
0BF106F90000
0BD000000000
026000000000
ENDCHAR
STARTCHAR uni04D3
ENCODING 1235
SWIDTH 526 0
DWIDTH 7 0
BBX 9 10 -1 0
BITMAP
0001C37900
0002E49B00
0000000000
004CECF900
03ED1AF600
0AF50CF300
1FF11FE000
2FE04FC050
1FF5BFC670
08EC3CE800
ENDCHAR
STARTCHAR uni04D4
ENCODING 1236
SWIDTH 764 0
DWIDTH 11 0
BBX 13 12 0 -2
BITMAP
0000003BFCCC50
0000048AF40000
00003C0DF10000
0001D42FD00000
3ACEEBAFFEB000
CB2F508F711000
21AE00CF400000
02F900FF100000
07F403FE000000
0BF106FFDDA000
0BD00000000000
02600000000000
ENDCHAR
STARTCHAR uni04D5
ENCODING 1237
SWIDTH 650 0
DWIDTH 9 0
BBX 11 7 -1 0
BITMAP
004CED8DE800
00502FF84C00
00002FE3C600
03BDEFEC6000
0EF37F900130
1FE0CFB02800
09FC6CFC8000
ENDCHAR
STARTCHAR uni04D6
ENCODING 1238
SWIDTH 459 0
DWIDTH 6 0
BBX 8 14 0 0
BITMAP
00000001
000DB176
0007CC60
00000000
0019ED50
00BE24D0
01FA07A0
01FC0100
00AF7000
0CF90000
8FD00000
DF900010
BFB00540
3CED9300
ENDCHAR
STARTCHAR uni04D7
ENCODING 1239
SWIDTH 384 0
DWIDTH 5 0
BBX 7 10 -1 0
BITMAP
00010010
006F23A0
003BC910
003CEC00
02EB1F10
0AF49A00
0FFD8100
2FE00050
1FF10720
07ED9200
ENDCHAR
STARTCHAR uni04D8
ENCODING 1240
SWIDTH 544 0
DWIDTH 8 0
BBX 8 10 0 0
BITMAP
019DEB30
09FDEFE1
05301EF6
00000BF8
0039DFF7
06F83FF3
4F906FD0
9F20CF40
9F17F700
2CEC5000
ENDCHAR
STARTCHAR uni04D9
ENCODING 1241
SWIDTH 404 0
DWIDTH 6 0
BBX 6 7 0 0
BITMAP
19DE80
340DF3
000AF5
07CFF4
8B2FD0
E39F40
AEC400
ENDCHAR
STARTCHAR uni04DC
ENCODING 1244
SWIDTH 777 0
DWIDTH 11 0
BBX 13 13 -1 0
BITMAP
000000A54B0000
000000D75D1000
00000000000000
007EA04B81BE60
007BD4AF5C9C50
000077EF7A0000
000059FDB20000
003CEEFEEE5000
00DE29F63FB000
03FA0CF33FA000
06F71FF07F6000
0AF44FC0BF2000
3EC07F90AF4000
ENDCHAR
STARTCHAR uni04DD
ENCODING 1245
SWIDTH 882 0
DWIDTH 12 0
BBX 14 10 -1 0
BITMAP
000000B54B0000
000000D76D1000
00000000000000
02BE905F809EB0
0A17F38F57E2F1
0106F5BF3E9040
0007FDFFDF6000
140AE3FB6F4003
7A2F86F76F6055
3DC809F41BEB40
ENDCHAR
STARTCHAR uni04DE
ENCODING 1246
SWIDTH 525 0
DWIDTH 7 0
BBX 9 13 -1 0
BITMAP
0000963C10
0000C84E10
0000000000
0006BEC400
005505FD00
002005FD00
00001DF500
000AFF6000
00001DF500
00000AF900
0B700CF700
1F505FD100
07DDD91000
ENDCHAR
STARTCHAR uni04DF
ENCODING 1247
SWIDTH 498 0
DWIDTH 7 0
BBX 8 13 0 -3
BITMAP
00972C10
00B93E20
00000000
03BED500
2A14FD00
8204FD00
701BF401
05FF4054
004FA390
004FF700
09AFD000
2A6F8000
1BEA1000
ENDCHAR
STARTCHAR uni04E2
ENCODING 1250
SWIDTH 705 0
DWIDTH 10 0
BBX 11 12 0 0
BITMAP
00000DDDD600
000000000000
005AE801EF30
0A6BF509FE00
8B0EF23FFB00
C82FD0CDF700
566FA6BBF400
009F7D3EF100
00CFB83FC000
01FFD16F9000
04FF50AF6000
07FB00DF2000
ENDCHAR
STARTCHAR uni04E3
ENCODING 1251
SWIDTH 505 0
DWIDTH 7 0
BBX 9 9 -1 0
BITMAP
002DDDD500
0000000000
02FD0BF500
06FA0EF200
09F62FD000
0CF35FA000
0FF09F7140
1FF6EFA930
0AEA4ED500
ENDCHAR
STARTCHAR uni04E4
ENCODING 1252
SWIDTH 705 0
DWIDTH 10 0
BBX 11 13 0 0
BITMAP
00000882C200
00000AA3E300
000000000000
005AE801EF30
0A6BF509FE00
8B0EF23FFB00
C82FD0CDF700
566FA6BBF400
009F7D3EF100
00CFB83FC000
01FFD16F9000
04FF50AF6000
07FB00DF2000
ENDCHAR
STARTCHAR uni04E5
ENCODING 1253
SWIDTH 505 0
DWIDTH 7 0
BBX 9 10 -1 0
BITMAP
000A63B100
000C84E100
0000000000
02FD0BF500
06FA0EF200
09F62FD000
0CF35FA000
0FF09F7140
1FF6EFA930
0AEA4ED500
ENDCHAR
STARTCHAR uni04E6
ENCODING 1254
SWIDTH 665 0
DWIDTH 9 0
BBX 10 13 0 0
BITMAP
00000B45A0
00001D66D0
0000000000
0029CDDA10
07D5772EB0
6E2CE20BF1
B97F900BF2
66DF300CF1
03FD001FD0
06FA006F80
07F901DE10
04FC3BF400
008EEB3000
ENDCHAR
STARTCHAR uni04E7
ENCODING 1255
SWIDTH 439 0
DWIDTH 6 0
BBX 9 10 -1 0
BITMAP
000872C200
000B93E200
0000000000
003BEB1000
02ED1C5040
0AF61FB820
1FF20D4000
2FE02F1000
1FE0980000
07ED800000
ENDCHAR
STARTCHAR uni04E8
ENCODING 1256
SWIDTH 665 0
DWIDTH 9 0
BBX 10 10 0 0
BITMAP
0049CDDA10
1AC5872EB0
8D1CD10AF1
A87F600CF2
12EFBAAFF1
03FB003FD0
06F9008F80
07F901EE10
04FB09F400
008EDB3000
ENDCHAR
STARTCHAR uni04E9
ENCODING 1257
SWIDTH 439 0
DWIDTH 6 0
BBX 9 7 -1 0
BITMAP
003BEB1000
02ED1C5040
0AF61FB820
1FFEDF9000
2FE02F1000
1FE0980000
07ED800000
ENDCHAR
STARTCHAR uni04EE
ENCODING 1262
SWIDTH 644 0
DWIDTH 9 0
BBX 10 12 0 0
BITMAP
00000BDDD9
0000000000
005BEB002C
1B95FF0095
8C00EF41D0
C800AF7770
45006FCD10
00002FF800
00000CF200
000008A000
000D8C3000
000CE60000
ENDCHAR
STARTCHAR uni04EF
ENCODING 1263
SWIDTH 486 0
DWIDTH 7 0
BBX 9 12 -1 -3
BITMAP
002DDDD400
0000000000
02FD0BF500
06FA0EF100
09F62FD000
0CF35FA000
0FF09F7220
1FF7FF4800
0AEBFF7200
007BFC0000
059AF70000
02DE900000
ENDCHAR
STARTCHAR uni04F0
ENCODING 1264
SWIDTH 644 0
DWIDTH 9 0
BBX 10 13 0 0
BITMAP
000006A0B4
000007D1E5
0000000000
005BEB002C
1B95FF0095
8C00EF41D0
C800AF7770
45006FCD10
00002FF800
00000CF200
000008A000
000D8C3000
000CE60000
ENDCHAR
STARTCHAR uni04F1
ENCODING 1265
SWIDTH 486 0
DWIDTH 7 0
BBX 9 13 -1 -3
BITMAP
000A63B100
000C84E100
0000000000
02FD0BF500
06FA0EF100
09F62FD000
0CF35FA000
0FF09F7220
1FF7FF4800
0AEBFF7200
007BFC0000
059AF70000
02DE900000
ENDCHAR
STARTCHAR uni04F2
ENCODING 1266
SWIDTH 644 0
DWIDTH 9 0
BBX 11 14 0 0
BITMAP
0000006B3C20
000000D4A700
00000682C000
000000000000
005BEB002C00
1B95FF009500
8C00EF41D000
C800AF777000
45006FCD1000
00002FF80000
00000CF20000
000008A00000
000D8C300000
000CE6000000
ENDCHAR
STARTCHAR uni04F3
ENCODING 1267
SWIDTH 486 0
DWIDTH 7 0
BBX 9 14 -1 -3
BITMAP
0000B77A00
0004D1E300
000A367000
0000000000
02FD0BF500
06FA0EF100
09F62FD000
0CF35FA000
0FF09F7220
1FF7FF4800
0AEBFF7200
007BFC0000
059AF70000
02DE900000
ENDCHAR
STARTCHAR uni04F4
ENCODING 1268
SWIDTH 695 0
DWIDTH 10 0
BBX 11 13 0 0
BITMAP
00000882C200
00000AA2E300
000000000000
005BE800FF10
1B8BF503FC00
8C0EF107F900
C81FD00AF500
451FE22EF200
0008EEBFE000
0000005FA000
0000008F7000
000000CF4000
000000FF1000
ENDCHAR
STARTCHAR uni04F5
ENCODING 1269
SWIDTH 505 0
DWIDTH 7 0
BBX 8 10 0 0
BITMAP
00B54B00
00D76D10
00000000
2FD0AF50
5FA0EF20
8F72FD00
9FABFA00
4EDCF703
0009F993
0004ED50
ENDCHAR
STARTCHAR uni04F6
ENCODING 1270
SWIDTH 442 0
DWIDTH 6 0
BBX 9 12 0 -2
BITMAP
028CEEFFA0
4E2BF41200
BB0EF10000
B93FC00000
246F900000
009F600000
00DF200000
01FE000000
04FB000000
08FB100000
004FFB0000
0008E60000
ENDCHAR
STARTCHAR uni04F7
ENCODING 1271
SWIDTH 375 0
DWIDTH 5 0
BBX 7 11 -1 -4
BITMAP
019EE500
0926FB00
041BF700
04DF8000
1EE30140
4FE45910
0AED8100
00A30000
01FB0000
00A70000
00200000
ENDCHAR
STARTCHAR uni04F8
ENCODING 1272
SWIDTH 909 0
DWIDTH 13 0
BBX 14 13 0 0
BITMAP
0000001C379000
0000002E49B000
00000000000000
005BE800000FF1
1B8BF500003FC0
8B0EF100007F90
C82FD00000AF50
455FEBD700DF20
009F60BF42FE00
00CF307F75FA00
01FE009F58F700
04FB11DD0CF400
07F8AEC20FF100
ENDCHAR
STARTCHAR uni04F9
ENCODING 1273
SWIDTH 642 0
DWIDTH 9 0
BBX 10 10 0 0
BITMAP
0007428000
000D96E100
0001001000
2D90004C30
5F8019FF10
8F7CC3ED00
CF23E3F900
EE05D6F614
FD3D78F9A2
7EE803DE50
ENDCHAR
STARTCHAR uni051A
ENCODING 1306
SWIDTH 665 0
DWIDTH 9 0
BBX 10 12 0 -2
BITMAP
0028CDDA10
06D6772EB0
5E2BF30BF1
BA7FA00BF2
88DF400CF1
03FE000FD0
06FB005F90
07F900BF20
04FC89F600
008EDEC000
000006FD40
0000005500
ENDCHAR
STARTCHAR uni051B
ENCODING 1307
SWIDTH 486 0
DWIDTH 7 0
BBX 8 11 -1 -4
BITMAP
004CECF9
03ED1AF6
0AF60CF2
1FF20FE0
2FE03FB0
1FE09F80
08EBDF50
0000EF10
0002FD00
0005FA00
00022000
ENDCHAR
STARTCHAR uni051C
ENCODING 1308
SWIDTH 962 0
DWIDTH 13 0
BBX 15 10 0 0
BITMAP
006BE8008F600B40
1B88F900EF601D00
9B07F904FF706700
D707F909DF70B200
6507F90C9F72A000
0006FA579F775000
0006FAA28F8B0000
0005FBA08FB80000
0005FF507FF20000
0005FE007FB00000
ENDCHAR
STARTCHAR uni051D
ENCODING 1309
SWIDTH 661 0
DWIDTH 9 0
BBX 10 7 -1 0
BITMAP
02FD0BF57C
06FA0EF20C
09F62FD01D
0CF35FA05A
0FF09F70C4
1FF6EF9AA0
0AFA5EE910
ENDCHAR
STARTCHAR uni0524
ENCODING 1316
SWIDTH 742 0
DWIDTH 10 0
BBX 11 12 0 -2
BITMAP
038CFAADEDA0
4D1CF30CF400
B81FE00EF100
B73FB03FC000
027F806F9000
00AF509F6000
00DF20CF3000
01FE01FF0000
04FB04FC0000
07F807FB1000
0000004FFB00
00000008E600
ENDCHAR
STARTCHAR uni0525
ENCODING 1317
SWIDTH 505 0
DWIDTH 7 0
BBX 9 11 -1 -4
BITMAP
02FEBE9000
06FC1FF000
09F61FD000
0CF34FA000
0FF07F6150
3FC08FAA20
6F903ED500
0000095000
00000FC000
0000098000
0000020000
ENDCHAR
STARTCHAR uni1E0C
ENCODING 7692
SWIDTH 663 0
DWIDTH 9 0
BBX 9 13 0 -3
BITMAP
005BDED600
1BB6628F50
9C0EF10FC0
D73FD00EF0
866F900FE0
00AF602FC0
00DF206F80
02FE00CF20
05FB07F800
09FCCE7000
0001000000
004FA00000
003E800000
ENDCHAR
STARTCHAR uni1E0D
ENCODING 7693
SWIDTH 525 0
DWIDTH 7 0
BBX 9 13 -1 -3
BITMAP
0000006920
000000EF10
000003FD00
004CECFA00
03ED1AF700
0AF60CF400
1FF20FF100
2FE03FD010
1FE08FA180
08EC6DE800
0001000000
009F500000
008E400000
ENDCHAR
STARTCHAR uni1E20
ENCODING 7712
SWIDTH 578 0
DWIDTH 8 0
BBX 8 16 0 -3
BITMAP
0008DDDB
00000000
00000000
003ADDC4
05FE408D
2EF400BB
8FB00000
AF7001A5
AF7007F6
5FB03EF3
07DC8FE0
00003FB0
03CA6F70
0D52AF20
0E52EA00
04CD9100
ENDCHAR
STARTCHAR uni1E21
ENCODING 7713
SWIDTH 507 0
DWIDTH 7 0
BBX 9 13 -1 -3
BITMAP
000BDDD800
0000000000
0000000000
004CECF900
03ED1AF600
0AF60CF300
1FF20FF000
2FE03FC010
1FE09F8350
08ECDFA600
0027EF2000
00B4FC0000
00BEC20000
ENDCHAR
STARTCHAR uni1E24
ENCODING 7716
SWIDTH 665 0
DWIDTH 9 0
BBX 10 13 0 -3
BITMAP
005AE806F9
0A6BF50AF6
8B0EF10DF2
C82FD01FE0
566FFFFFB0
009F608F70
00CF30BF40
01FE00EF10
04FB03FC00
07F806F900
0001100000
000DE10000
000CD10000
ENDCHAR
STARTCHAR uni1E25
ENCODING 7717
SWIDTH 505 0
DWIDTH 7 0
BBX 9 13 -1 -3
BITMAP
0048500000
00AF400000
00EF100000
02FEBE8000
05FC1FE000
08F61FE000
0CF34FB000
0FF07F7020
3FC08F6440
6F903DD600
0001000000
00BF300000
009E200000
ENDCHAR
STARTCHAR uni1E2A
ENCODING 7722
SWIDTH 665 0
DWIDTH 9 0
BBX 10 13 0 -3
BITMAP
005AE806F9
0A6BF50AF6
8B0EF10DF2
C82FD01FE0
566FFFFFB0
009F608F70
00CF30BF40
01FE00EF10
04FB03FC00
07F806F900
0000000000
01E20B6000
007CA60000
ENDCHAR
STARTCHAR uni1E2B
ENCODING 7723
SWIDTH 505 0
DWIDTH 7 0
BBX 9 13 -1 -3
BITMAP
0048500000
00AF400000
00EF100000
02FEBE8000
05FC1FE000
08F61FE000
0CF34FB000
0FF07F7020
3FC08F6440
6F903DD600
0000000000
0D40980000
05CB700000
ENDCHAR
STARTCHAR uni1E36
ENCODING 7734
SWIDTH 379 0
DWIDTH 5 0
BBX 10 13 0 -3
BITMAP
006BE70000
1C8CF30000
AA0FF00000
D74FC00000
547F800000
00AF500000
00EF100000
02FD000000
06F9000000
09FB200000
0149FB4100
0DE14DFFF2
0BD1019EA0
ENDCHAR
STARTCHAR uni1E37
ENCODING 7735
SWIDTH 293 0
DWIDTH 4 0
BBX 6 13 -1 -3
BITMAP
001780
005FA0
008F70
00CF30
00FF00
03FC00
06F800
0AF514
0BFAB3
05ED50
011000
1EE100
0CC000
ENDCHAR
STARTCHAR uni1E42
ENCODING 7746
SWIDTH 787 0
DWIDTH 11 0
BBX 11 13 1 -3
BITMAP
017BF701EF30
2C3DF606FF00
B73FF60DFD00
F59FF54FFB00
54ECF4BCF900
05CAF6E9F700
0B6BFB8BF400
2E1CFF2DF200
790CFA0FF000
D40DF42FD000
000100000000
004F90000000
003E80000000
ENDCHAR
STARTCHAR uni1E43
ENCODING 7747
SWIDTH 752 0
DWIDTH 11 0
BBX 12 10 -1 -3
BITMAP
02FEBFB8ED20
06FC1FF49F60
09F63FD0AF60
0CF36FA0DF30
0FF09F71FE02
3FC0CF42FD08
6F90EF10AEA1
000010000000
0005F9000000
0004E7000000
ENDCHAR
STARTCHAR uni1E44
ENCODING 7748
SWIDTH 668 0
DWIDTH 9 0
BBX 10 14 0 0
BITMAP
0000000200
0000007F60
0000006E50
0000000000
029CF7006E
2D4CFB00AB
B90FFF00D7
D74FEF31F4
787E8F74F1
00AB4FB7C0
00E71FEB80
02F30CFF50
06E008FF20
09B004FD00
ENDCHAR
STARTCHAR uni1E45
ENCODING 7749
SWIDTH 505 0
DWIDTH 7 0
BBX 9 10 -1 0
BITMAP
00008E3000
0000AF4000
0000010000
02FEBE8000
06FC1FE000
09F61FE000
0CF34FB000
0FF07F7020
3FC08F6440
6F903DD600
ENDCHAR
STARTCHAR uni1E46
ENCODING 7750
SWIDTH 668 0
DWIDTH 9 0
BBX 10 13 0 -3
BITMAP
029CF7006E
2D4CFB00AB
B90FFF00D7
D74FEF31F4
787E8F74F1
00AB4FB7C0
00E71FEB80
02F30CFF50
06E008FF20
09B004FD00
0000100000
000BF20000
000AE20000
ENDCHAR
STARTCHAR uni1E47
ENCODING 7751
SWIDTH 505 0
DWIDTH 7 0
BBX 9 10 -1 -3
BITMAP
02FEBE8000
06FC1FE000
09F61FE000
0CF34FB000
0FF07F7020
3FC08F6440
6F903DD600
0001000000
009F500000
008E400000
ENDCHAR
STARTCHAR uni1E5A
ENCODING 7770
SWIDTH 601 0
DWIDTH 8 0
BBX 9 13 0 -3
BITMAP
006BDDC400
1CA6728E10
AB0EF16F10
D73FB3E800
546FEFE300
00AF56F900
00DF25F800
02FD09F400
05FA0DF100
09F70CF200
0001100000
001EE10000
000CC00000
ENDCHAR
STARTCHAR uni1E5B
ENCODING 7771
SWIDTH 376 0
DWIDTH 5 0
BBX 7 10 -1 -3
BITMAP
02FEAE40
06FC4F40
09F60000
0CF30000
0FF00000
3FC00000
6F900000
02000000
8F600000
6E500000
ENDCHAR
STARTCHAR uni1E60
ENCODING 7776
SWIDTH 570 0
DWIDTH 8 0
BBX 8 14 0 0
BITMAP
00002EA0
00002FC0
00000100
00000000
0019EDB2
00AF50BA
00DF30D8
008FC110
000BFB00
0131DF90
2ED43FF1
7F200EF2
5F506FB0
07DFD810
ENDCHAR
STARTCHAR uni1E61
ENCODING 7777
SWIDTH 382 0
DWIDTH 5 0
BBX 7 10 -1 0
BITMAP
0005E600
0007F700
00002000
001BD200
006FF200
00ADF300
055BF500
2E2AF630
691CFA20
1ADD6000
ENDCHAR
STARTCHAR uni1E62
ENCODING 7778
SWIDTH 570 0
DWIDTH 8 0
BBX 8 13 0 -3
BITMAP
0019EDB2
00AF50BA
00DF30D8
008FC110
000BFB00
0131DF90
2ED43FF1
7F200EF2
5F506FB0
07DFD810
00100000
02FC0000
02EA0000
ENDCHAR
STARTCHAR uni1E63
ENCODING 7779
SWIDTH 382 0
DWIDTH 5 0
BBX 7 11 -1 -3
BITMAP
00024000
003FF200
008EF300
019CF400
073BF500
3E2AF740
660CFB10
1ADD6000
01100000
0DE10000
0CD10000
ENDCHAR
STARTCHAR uni1E6C
ENCODING 7788
SWIDTH 481 0
DWIDTH 7 0
BBX 10 13 0 -3
BITMAP
04ACEFACDA
5E30EE0000
C803FB0000
C606F80000
1109F50000
000CF20000
001FE00000
004FB00000
007F800000
00AF500000
0011000000
01ED000000
01DB000000
ENDCHAR
STARTCHAR uni1E6D
ENCODING 7789
SWIDTH 267 0
DWIDTH 4 0
BBX 6 13 -1 -3
BITMAP
000110
00AF40
00EF10
08FFA0
05FB00
08F700
0BF400
0FF131
1FF5A0
0AEB20
020000
8F6000
6E5000
ENDCHAR
STARTCHAR Wgrave
ENCODING 7808
SWIDTH 962 0
DWIDTH 13 0
BBX 15 14 0 0
BITMAP
00000000A8000000
000000008B000000
000000003E000000
0000000000000000
006BE8008F600B40
1B88F900EF601D00
9B07F904FF706700
D707F909DF70B200
6507F90C9F72A000
0006FA579F775000
0006FAA28F8B0000
0005FBA08FB80000
0005FF507FF20000
0005FE007FB00000
ENDCHAR
STARTCHAR wgrave
ENCODING 7809
SWIDTH 661 0
DWIDTH 9 0
BBX 10 10 -1 0
BITMAP
00003F3000
00000E5000
0000086000
02FD0BF57C
06FA0EF20C
09F62FD01D
0CF35FA05A
0FF09F70C4
1FF6EF9AA0
0AFA5EE910
ENDCHAR
STARTCHAR Wacute
ENCODING 7810
SWIDTH 962 0
DWIDTH 13 0
BBX 15 14 0 0
BITMAP
0000000000C90000
0000000004E10000
000000000A700000
0000000000000000
006BE8008F600B40
1B88F900EF601D00
9B07F904FF706700
D707F909DF70B200
6507F90C9F72A000
0006FA579F775000
0006FAA28F8B0000
0005FBA08FB80000
0005FF507FF20000
0005FE007FB00000
ENDCHAR
STARTCHAR wacute
ENCODING 7811
SWIDTH 661 0
DWIDTH 9 0
BBX 10 10 -1 0
BITMAP
0000004E20
000000C600
0000016000
02FD0BF57C
06FA0EF20C
09F62FD01D
0CF35FA05A
0FF09F70C4
1FF6EF9AA0
0AFA5EE910
ENDCHAR
STARTCHAR Wdieresis
ENCODING 7812
SWIDTH 962 0
DWIDTH 13 0
BBX 15 13 0 0
BITMAP
00000005D1C70000
00000004B0A60000
0000000000000000
006BE8008F600B40
1B88F900EF601D00
9B07F904FF706700
D707F909DF70B200
6507F90C9F72A000
0006FA579F775000
0006FAA28F8B0000
0005FBA08FB80000
0005FF507FF20000
0005FE007FB00000
ENDCHAR
STARTCHAR wdieresis
ENCODING 7813
SWIDTH 661 0
DWIDTH 9 0
BBX 10 10 -1 0
BITMAP
0000A93E30
0000872C20
0000000000
02FD0BF57C
06FA0EF20C
09F62FD01D
0CF35FA05A
0FF09F70C4
1FF6EF9AA0
0AFA5EE910
ENDCHAR
STARTCHAR uni1E8E
ENCODING 7822
SWIDTH 620 0
DWIDTH 9 0
BBX 10 14 0 0
BITMAP
0000000100
0000009F40
0000008E30
0000000000
006BEA0068
1B86FE00B1
9B02FF3390
D700DF6920
65009FBA00
00005FF300
00005FE000
00008FA000
0000CF7000
0000FF4000
ENDCHAR
STARTCHAR uni1E8F
ENCODING 7823
SWIDTH 505 0
DWIDTH 7 0
BBX 9 13 -1 -3
BITMAP
0000BD1000
0000DE1000
0000110000
02FD0BF500
06FA0EF100
09F62FD000
0CF35FA000
0FF09F7220
1FF7FF4800
0AEBFF7200
007BFC0000
059AF70000
02DE900000
ENDCHAR
STARTCHAR uni1E92
ENCODING 7826
SWIDTH 542 0
DWIDTH 8 0
BBX 8 17 0 -3
BITMAP
000000D7
000006C0
00000620
00000000
05EDDFF7
0BA04FE1
0220CF60
0006FD00
000DF500
007FC000
01EF4000
08FB0130
1EF307E0
9FFDDD60
00110000
01ED0000
01DC0000
ENDCHAR
STARTCHAR uni1E93
ENCODING 7827
SWIDTH 428 0
DWIDTH 6 0
BBX 6 10 0 -3
BITMAP
0ADEFB
2F1CF2
016F90
01EE10
08F700
2FD0C5
BFEDB1
010000
4F9000
3E8000
ENDCHAR
STARTCHAR uni1E97
ENCODING 7831
SWIDTH 267 0
DWIDTH 4 0
BBX 6 11 -1 0
BITMAP
01E49A
01B388
006A40
00EF10
08FFA0
05FB00
08F700
0BF400
0FF131
1FF5A0
0AEB20
ENDCHAR
STARTCHAR uni1E9E
ENCODING 7838
SWIDTH 559 0
DWIDTH 8 0
BBX 10 14 -1 -4
BITMAP
0003CEDFF2
001DE27F90
006FA1EF20
00AF58F900
00EF2EF100
02FD07F600
05FA01FD00
09F600FE00
0CF305F900
0FE6DE9100
3FB0000000
7F70000000
AE30000000
2000000000
ENDCHAR
STARTCHAR uni1EA0
ENCODING 7840
SWIDTH 668 0
DWIDTH 9 0
BBX 10 13 0 -3
BITMAP
00000017E8
0000081DF6
0000B61FF2
2ADEF97FE0
BC2E61AFB0
778F10AF70
01EA00DF40
05F601FF10
09F204FC00
0CE007F900
0AD0010000
0150BF3000
00009E2000
ENDCHAR
STARTCHAR uni1EA1
ENCODING 7841
SWIDTH 526 0
DWIDTH 7 0
BBX 9 10 -1 -3
BITMAP
004CECF900
03ED1AF600
0AF50CF300
1FF11FE000
2FE04FC050
1FF5BFC670
08EC3CE800
0001000000
009F500000
008E400000
ENDCHAR
STARTCHAR uni1EA2
ENCODING 7842
SWIDTH 668 0
DWIDTH 9 0
BBX 11 16 0 -2
BITMAP
00000003DC20
000000001A40
00000000A300
000000000000
0000003BE800
000003BBF600
00003D1DF300
0001C61FE000
2ADEF97FB000
CC2F61AF7000
44AE00BF4000
02F900EF1000
07F403FC0000
0BF106F90000
0BD000000000
026000000000
ENDCHAR
STARTCHAR uni1EA3
ENCODING 7843
SWIDTH 526 0
DWIDTH 7 0
BBX 9 10 -1 0
BITMAP
00002CD300
00000A6100
0000000000
004CECF900
03ED1AF600
0AF50CF300
1FF11FE000
2FE04FC050
1FF5BFC670
08EC3CE800
ENDCHAR
STARTCHAR uni1EA4
ENCODING 7844
SWIDTH 668 0
DWIDTH 9 0
BBX 12 16 0 -2
BITMAP
00000000002B
000000005A82
000000075820
000000000000
0000003BE800
000003BBF600
00003D1DF300
0001C61FE000
2ADEF97FB000
CC2F61AF7000
44AE00BF4000
02F900EF1000
07F403FC0000
0BF106F90000
0BD000000000
026000000000
ENDCHAR
STARTCHAR uni1EA5
ENCODING 7845
SWIDTH 526 0
DWIDTH 7 0
BBX 10 12 -1 0
BITMAP
00000001D3
0000000680
0000088410
000197A000
0001001000
004CECF900
03ED1AF600
0AF50CF300
1FF11FE000
2FE04FC050
1FF5BFC670
08EC3CE800
ENDCHAR
STARTCHAR uni1EA6
ENCODING 7846
SWIDTH 668 0
DWIDTH 9 0
BBX 12 16 0 -2
BITMAP
000000000192
000000008C55
000000073620
000000000000
0000003BE800
000003BBF600
00003D1DF300
0001C61FE000
2ADEF97FB000
CC2F61AF7000
44AE00BF4000
02F900EF1000
07F403FC0000
0BF106F90000
0BD000000000
026000000000
ENDCHAR
STARTCHAR uni1EA7
ENCODING 7847
SWIDTH 526 0
DWIDTH 7 0
BBX 9 12 -1 0
BITMAP
0000000D30
0000000850
0000078110
0001617000
0000000000
004CECF900
03ED1AF600
0AF50CF300
1FF11FE000
2FE04FC050
1FF5BFC670
08EC3CE800
ENDCHAR
STARTCHAR uni1EA8
ENCODING 7848
SWIDTH 668 0
DWIDTH 9 0
BBX 12 16 0 -2
BITMAP
00000000009B
000000005B8B
000000077840
000000010000
0000003BE800
000003BBF600
00003D1DF300
0001C61FE000
2ADEF97FB000
CC2F61AF7000
44AE00BF4000
02F900EF1000
07F403FC0000
0BF106F90000
0BD000000000
026000000000
ENDCHAR
STARTCHAR uni1EA9
ENCODING 7849
SWIDTH 526 0
DWIDTH 7 0
BBX 9 12 -1 0
BITMAP
0000000C90
0000000180
0000078600
000198A000
0001001000
004CECF900
03ED1AF600
0AF50CF300
1FF11FE000
2FE04FC050
1FF5BFC670
08EC3CE800
ENDCHAR
STARTCHAR uni1EAA
ENCODING 7850
SWIDTH 668 0
DWIDTH 9 0
BBX 12 16 0 -2
BITMAP
00000001CE92
000000016E40
000000077920
000000000000
0000003BE800
000003BBF600
00003D1DF300
0001C61FE000
2ADEF97FB000
CC2F61AF7000
44AE00BF4000
02F900EF1000
07F403FC0000
0BF106F90000
0BD000000000
026000000000
ENDCHAR
STARTCHAR uni1EAB
ENCODING 7851
SWIDTH 526 0
DWIDTH 7 0
BBX 9 12 -1 0
BITMAP
000028B710
0000000000
0000088000
000197A000
0001001000
004CECF900
03ED1AF600
0AF50CF300
1FF11FE000
2FE04FC050
1FF5BFC670
08EC3CE800
ENDCHAR
STARTCHAR uni1EAC
ENCODING 7852
SWIDTH 668 0
DWIDTH 9 0
BBX 11 17 0 -3
BITMAP
000000002D10
00000004CB50
000000150040
000000000000
00000017E800
0000081DF600
0000B61FF200
2ADEF97FE000
BC2E61AFB000
778F10AF7000
01EA00DF4000
05F601FF1000
09F204FC0000
0CE007F90000
0AD001000000
0150BF300000
00009E200000
ENDCHAR
STARTCHAR uni1EAD
ENCODING 7853
SWIDTH 526 0
DWIDTH 7 0
BBX 9 13 -1 -3
BITMAP
0000079000
0001A9C100
0003101100
004CECF900
03ED1AF600
0AF50CF300
1FF11FE000
2FE04FC050
1FF5BFC670
08EC3CE800
0001000000
009F500000
008E400000
ENDCHAR
STARTCHAR uni1EAE
ENCODING 7854
SWIDTH 668 0
DWIDTH 9 0
BBX 12 16 0 -2
BITMAP
000000000C40
0000000B4AA1
00000006B930
000000000000
0000003BE800
000003BBF600
00003D1DF300
0001C61FE000
2ADEF97FB000
CC2F61AF7000
44AE00BF4000
02F900EF1000
07F403FC0000
0BF106F90000
0BD000000000
026000000000
ENDCHAR
STARTCHAR uni1EAF
ENCODING 7855
SWIDTH 526 0
DWIDTH 7 0
BBX 9 12 -1 0
BITMAP
0000007100
0000068000
0008A36B00
0001AA8100
0000000000
004CECF900
03ED1AF600
0AF50CF300
1FF11FE000
2FE04FC050
1FF5BFC670
08EC3CE800
ENDCHAR
STARTCHAR uni1EB0
ENCODING 7856
SWIDTH 668 0
DWIDTH 9 0
BBX 12 16 0 -2
BITMAP
00000000A400
0000000B87A1
00000006B930
000000000000
0000003BE800
000003BBF600
00003D1DF300
0001C61FE000
2ADEF97FB000
CC2F61AF7000
44AE00BF4000
02F900EF1000
07F403FC0000
0BF106F90000
0BD000000000
026000000000
ENDCHAR
STARTCHAR uni1EB1
ENCODING 7857
SWIDTH 526 0
DWIDTH 7 0
BBX 9 12 -1 0
BITMAP
00003C0000
00000C0000
0008A16B00
0001AA8100
0000000000
004CECF900
03ED1AF600
0AF50CF300
1FF11FE000
2FE04FC050
1FF5BFC670
08EC3CE800
ENDCHAR
STARTCHAR uni1EB2
ENCODING 7858
SWIDTH 668 0
DWIDTH 9 0
BBX 12 16 0 -2
BITMAP
000000008B00
000000067C61
00000008DC60
000000000000
0000003BE800
000003BBF600
00003D1DF300
0001C61FE000
2ADEF97FB000
CC2F61AF7000
44AE00BF4000
02F900EF1000
07F403FC0000
0BF106F90000
0BD000000000
026000000000
ENDCHAR
STARTCHAR uni1EB3
ENCODING 7859
SWIDTH 526 0
DWIDTH 7 0
BBX 9 12 -1 0
BITMAP
00001C7000
000001B000
0008ABCB00
0001AB8100
0000000000
004CECF900
03ED1AF600
0AF50CF300
1FF11FE000
2FE04FC050
1FF5BFC670
08EC3CE800
ENDCHAR
STARTCHAR uni1EB4
ENCODING 7860
SWIDTH 668 0
DWIDTH 9 0
BBX 12 16 0 -2
BITMAP
00000004ED70
0000000C24B1
00000006B930
000000000000
0000003BE800
000003BBF600
00003D1DF300
0001C61FE000
2ADEF97FB000
CC2F61AF7000
44AE00BF4000
02F900EF1000
07F403FC0000
0BF106F90000
0BD000000000
026000000000
ENDCHAR
STARTCHAR uni1EB5
ENCODING 7861
SWIDTH 526 0
DWIDTH 7 0
BBX 9 12 -1 0
BITMAP
000039B600
0000000000
0006B05C00
0001AB9100
0000000000
004CECF900
03ED1AF600
0AF50CF300
1FF11FE000
2FE04FC050
1FF5BFC670
08EC3CE800
ENDCHAR
STARTCHAR uni1EB6
ENCODING 7862
SWIDTH 668 0
DWIDTH 9 0
BBX 12 16 0 -3
BITMAP
0000007D01D5
0000001ACA40
000000000000
00000017E800
0000081DF600
0000B61FF200
2ADEF97FE000
BC2E61AFB000
778F10AF7000
01EA00DF4000
05F601FF1000
09F204FC0000
0CE007F90000
0AD001000000
0150BF300000
00009E200000
ENDCHAR
STARTCHAR uni1EB7
ENCODING 7863
SWIDTH 526 0
DWIDTH 7 0
BBX 9 13 -1 -3
BITMAP
000C805E10
0003BB9200
0000000000
004CECF900
03ED1AF600
0AF50CF300
1FF11FE000
2FE04FC050
1FF5BFC670
08EC3CE800
0001000000
009F500000
008E400000
ENDCHAR
STARTCHAR uni1EB8
ENCODING 7864
SWIDTH 459 0
DWIDTH 6 0
BBX 7 13 0 -3
BITMAP
0019ED50
00BE24D0
01FA07A0
01FC0100
00AF7000
0CF90000
8FD00000
DF900010
BFB00540
3CED9300
00100000
0CE20000
0AD10000
ENDCHAR
STARTCHAR uni1EB9
ENCODING 7865
SWIDTH 384 0
DWIDTH 5 0
BBX 7 10 -1 -3
BITMAP
003CEC00
02EB1F10
0AF49A00
0FFD8100
2FE00050
1FF10720
07ED9200
00200000
07F60000
06E50000
ENDCHAR
STARTCHAR uni1EBA
ENCODING 7866
SWIDTH 459 0
DWIDTH 6 0
BBX 7 14 0 0
BITMAP
00008D90
000011D0
00004810
00000000
0019ED50
00BE24D0
01FA07A0
01FC0100
00AF7000
0CF90000
8FD00000
DF900010
BFB00540
3CED9300
ENDCHAR
STARTCHAR uni1EBB
ENCODING 7867
SWIDTH 384 0
DWIDTH 5 0
BBX 7 10 -1 0
BITMAP
0003CC20
0000B600
00000000
003CEC00
02EB1F10
0AF49A00
0FFD8100
2FE00050
1FF10720
07ED9200
ENDCHAR
STARTCHAR uni1EBC
ENCODING 7868
SWIDTH 459 0
DWIDTH 6 0
BBX 9 13 0 0
BITMAP
0006DEB820
0001267200
0000000000
0019ED5000
00BE24D000
01FA07A000
01FC010000
00AF700000
0CF9000000
8FD0000000
DF90001000
BFB0054000
3CED930000
ENDCHAR
STARTCHAR uni1EBD
ENCODING 7869
SWIDTH 384 0
DWIDTH 5 0
BBX 8 10 -1 0
BITMAP
006EE971
0168DD50
00000000
003CEC00
02EB1F10
0AF49A00
0FFD8100
2FE00050
1FF10720
07ED9200
ENDCHAR
STARTCHAR uni1EBE
ENCODING 7870
SWIDTH 459 0
DWIDTH 6 0
BBX 9 14 0 0
BITMAP
0000031940
00006D8900
0002505000
0000000000
0019ED5000
00BE24D000
01FA07A000
01FC010000
00AF700000
0CF9000000
8FD0000000
DF90001000
BFB0054000
3CED930000
ENDCHAR
STARTCHAR uni1EBF
ENCODING 7871
SWIDTH 384 0
DWIDTH 5 0
BBX 9 12 -1 0
BITMAP
0000000980
0000002C00
00004C2200
0006993000
0001001000
003CEC0000
02EB1F1000
0AF49A0000
0FFD810000
2FE0005000
1FF1072000
07ED920000
ENDCHAR
STARTCHAR uni1EC0
ENCODING 7872
SWIDTH 459 0
DWIDTH 6 0
BBX 8 14 0 0
BITMAP
0000023A
00004C68
00026060
00000000
0019ED50
00BE24D0
01FA07A0
01FC0100
00AF7000
0CF90000
8FD00000
DF900010
BFB00540
3CED9300
ENDCHAR
STARTCHAR uni1EC1
ENCODING 7873
SWIDTH 384 0
DWIDTH 5 0
BBX 8 12 -1 0
BITMAP
00000087
0000003A
00005B02
00064440
00000000
003CEC00
02EB1F10
0AF49A00
0FFD8100
2FE00050
1FF10720
07ED9200
ENDCHAR
STARTCHAR uni1EC2
ENCODING 7874
SWIDTH 459 0
DWIDTH 6 0
BBX 9 14 0 0
BITMAP
0000001C70
00001B4B70
0002A39200
0001001000
0019ED5000
00BE24D000
01FA07A000
01FC010000
00AF700000
0CF9000000
8FD0000000
DF90001000
BFB0054000
3CED930000
ENDCHAR
STARTCHAR uni1EC3
ENCODING 7875
SWIDTH 384 0
DWIDTH 5 0
BBX 8 12 -1 0
BITMAP
000000BB
00000019
00004C60
0006A930
00020010
003CEC00
02EB1F10
0AF49A00
0FFD8100
2FE00050
1FF10720
07ED9200
ENDCHAR
STARTCHAR uni1EC4
ENCODING 7876
SWIDTH 459 0
DWIDTH 6 0
BBX 8 14 0 0
BITMAP
00003CB4
00006B70
00024050
00000000
0019ED50
00BE24D0
01FA07A0
01FC0100
00AF7000
0CF90000
8FD00000
DF900010
BFB00540
3CED9300
ENDCHAR
STARTCHAR uni1EC5
ENCODING 7877
SWIDTH 384 0
DWIDTH 5 0
BBX 8 12 -1 0
BITMAP
00006B92
00000000
00004C00
00069930
00010010
003CEC00
02EB1F10
0AF49A00
0FFD8100
2FE00050
1FF10720
07ED9200
ENDCHAR
STARTCHAR uni1EC6
ENCODING 7878
SWIDTH 459 0
DWIDTH 6 0
BBX 7 17 0 -3
BITMAP
00001B40
0002C990
00051040
00000000
0019ED50
00BE24D0
01FA07A0
01FC0100
00AF7000
0CF90000
8FD00000
DF900010
BFB00540
3CED9300
00100000
0CE20000
0AD10000
ENDCHAR
STARTCHAR uni1EC7
ENCODING 7879
SWIDTH 384 0
DWIDTH 5 0
BBX 7 13 -1 -3
BITMAP
00004C00
0007BA40
00220030
003CEC00
02EB1F10
0AF49A00
0FFD8100
2FE00050
1FF10720
07ED9200
00200000
07F60000
06E50000
ENDCHAR
STARTCHAR uni1EC8
ENCODING 7880
SWIDTH 375 0
DWIDTH 5 0
BBX 7 14 0 0
BITMAP
0003CC20
00001A40
0000A300
00000000
006BE700
1B5CF300
9A1FF000
D64FC000
657F8000
00AF5000
00EF2000
02FD0000
05FA0000
09F70000
ENDCHAR
STARTCHAR uni1EC9
ENCODING 7881
SWIDTH 267 0
DWIDTH 4 0
BBX 6 10 -1 0
BITMAP
007DA0
004A40
000000
02FD00
06FA00
09F600
0CF300
0FF032
1FF6A0
0AEB20
ENDCHAR
STARTCHAR uni1ECA
ENCODING 7882
SWIDTH 375 0
DWIDTH 5 0
BBX 6 13 0 -3
BITMAP
006BE7
1B5CF3
9A1FF0
D64FC0
657F80
00AF50
00EF20
02FD00
05FA00
09F700
011000
1ED000
1DC000
ENDCHAR
STARTCHAR uni1ECB
ENCODING 7883
SWIDTH 267 0
DWIDTH 4 0
BBX 6 13 -1 -3
BITMAP
008E30
009F40
000100
02FD00
06FA00
09F600
0CF300
0FF032
1FF6A0
0AEB20
020000
8F6000
6E5000
ENDCHAR
STARTCHAR uni1ECC
ENCODING 7884
SWIDTH 665 0
DWIDTH 9 0
BBX 10 13 0 -3
BITMAP
0029CDDA10
07D5772EB0
6E2CE20BF1
B97F900BF2
66DF300CF1
03FD001FD0
06FA006F80
07F901DE10
04FC3BF400
008EEB3000
0001000000
005F900000
004E700000
ENDCHAR
STARTCHAR uni1ECD
ENCODING 7885
SWIDTH 433 0
DWIDTH 6 0
BBX 9 10 -1 -3
BITMAP
004CEA0000
03FC1D4040
0BF53FB710
1FF10E3000
4FD03E0000
3FD0A70000
08ED700000
0020000000
07F6000000
06E5000000
ENDCHAR
STARTCHAR uni1ECE
ENCODING 7886
SWIDTH 665 0
DWIDTH 9 0
BBX 10 14 0 0
BITMAP
000005DB10
0000010C20
000000B100
0000000000
0029CDDA10
07D5772EB0
6E2CE20BF1
B97F900BF2
66DF300CF1
03FD001FD0
06FA006F80
07F901DE10
04FC3BF400
008EEB3000
ENDCHAR
STARTCHAR uni1ECF
ENCODING 7887
SWIDTH 433 0
DWIDTH 6 0
BBX 9 10 -1 0
BITMAP
0000BD7000
0000772000
0000000000
004CEA0000
03FC1D4040
0BF53FB710
1FF10E3000
4FD03E0000
3FD0A70000
08ED700000
ENDCHAR
STARTCHAR uni1ED0
ENCODING 7888
SWIDTH 665 0
DWIDTH 9 0
BBX 10 14 0 0
BITMAP
0000000076
00000087A0
0000192A00
0000000000
0029CDDA10
07D5772EB0
6E2CE20BF1
B97F900BF2
66DF300CF1
03FD001FD0
06FA006F80
07F901DE10
04FC3BF400
008EEB3000
ENDCHAR
STARTCHAR uni1ED1
ENCODING 7889
SWIDTH 433 0
DWIDTH 6 0
BBX 9 12 -1 0
BITMAP
0000000980
0000002C00
00004C2200
0006993000
0001001000
004CEA0000
03FC1D4040
0BF53FB710
1FF10E3000
4FD03E0000
3FD0A70000
08ED700000
ENDCHAR
STARTCHAR uni1ED2
ENCODING 7890
SWIDTH 665 0
DWIDTH 9 0
BBX 10 14 0 0
BITMAP
00000001B0
000002A8A0
0000181700
0000000000
0029CDDA10
07D5772EB0
6E2CE20BF1
B97F900BF2
66DF300CF1
03FD001FD0
06FA006F80
07F901DE10
04FC3BF400
008EEB3000
ENDCHAR
STARTCHAR uni1ED3
ENCODING 7891
SWIDTH 433 0
DWIDTH 6 0
BBX 9 12 -1 0
BITMAP
0000008700
0000003A00
00005B0200
0006444000
0000000000
004CEA0000
03FC1D4040
0BF53FB710
1FF10E3000
4FD03E0000
3FD0A70000
08ED700000
ENDCHAR
STARTCHAR uni1ED4
ENCODING 7892
SWIDTH 665 0
DWIDTH 9 0
BBX 10 14 0 0
BITMAP
00000000B9
0000009799
0000194A20
0000000100
0029CDDA10
07D5772EB0
6E2CE20BF1
B97F900BF2
66DF300CF1
03FD001FD0
06FA006F80
07F901DE10
04FC3BF400
008EEB3000
ENDCHAR
STARTCHAR uni1ED5
ENCODING 7893
SWIDTH 433 0
DWIDTH 6 0
BBX 9 12 -1 0
BITMAP
0000009B00
0000001A10
00003B7A00
0005DC4000
0003002000
004CEA0000
03FC1D4040
0BF53FB710
1FF10E3000
4FD03E0000
3FD0A70000
08ED700000
ENDCHAR
STARTCHAR uni1ED6
ENCODING 7894
SWIDTH 665 0
DWIDTH 9 0
BBX 10 14 0 0
BITMAP
000005EC80
000001BB20
0000194A00
0000000000
0029CDDA10
07D5772EB0
6E2CE20BF1
B97F900BF2
66DF300CF1
03FD001FD0
06FA006F80
07F901DE10
04FC3BF400
008EEB3000
ENDCHAR
STARTCHAR uni1ED7
ENCODING 7895
SWIDTH 433 0
DWIDTH 6 0
BBX 9 12 -1 0
BITMAP
0001BE8200
0000000000
00004C0000
0006993000
0001001000
004CEA0000
03FC1D4040
0BF53FB710
1FF10E3000
4FD03E0000
3FD0A70000
08ED700000
ENDCHAR
STARTCHAR uni1ED8
ENCODING 7896
SWIDTH 665 0
DWIDTH 9 0
BBX 10 17 0 -3
BITMAP
000001B300
00002CA800
0000510400
0000000000
0029CDDA10
07D5772EB0
6E2CE20BF1
B97F900BF2
66DF300CF1
03FD001FD0
06FA006F80
07F901DE10
04FC3BF400
008EEB3000
0001000000
005F900000
004E700000
ENDCHAR
STARTCHAR uni1ED9
ENCODING 7897
SWIDTH 433 0
DWIDTH 6 0
BBX 9 13 -1 -3
BITMAP
00006B0000
0009AB2000
0022012000
004CEA0000
03FC1D4040
0BF53FB710
1FF10E3000
4FD03E0000
3FD0A70000
08ED700000
0020000000
07F6000000
06E5000000
ENDCHAR
STARTCHAR uni1EDA
ENCODING 7898
SWIDTH 665 0
DWIDTH 9 0
BBX 11 14 0 0
BITMAP
0000006E1000
000000C70000
000003D03E10
000000003E00
0029CDD89800
07D5772ED000
6E2CE20BF100
B97F900BF200
66DF300CF100
03FD001FD000
06FA006F9000
07F901DE2000
04FC3BF50000
008EEB400000
ENDCHAR
STARTCHAR uni1EDB
ENCODING 7899
SWIDTH 439 0
DWIDTH 6 0
BBX 8 10 -1 0
BITMAP
00001D70
00007B37
0000416B
003BEBD3
03ED1C60
0BF60B60
1FF10D50
2FE02F10
1FE0A800
07ED7000
ENDCHAR
STARTCHAR uni1EDC
ENCODING 7900
SWIDTH 665 0
DWIDTH 9 0
BBX 11 14 0 0
BITMAP
00009C000000
00005E000300
00001D103F10
000000004E00
0029CDD89800
07D5772ED000
6E2CE20BF100
B97F900BF200
66DF300CF100
03FD001FD000
06FA006F9000
07F901DE2000
04FC3BF50000
008EEB400000
ENDCHAR
STARTCHAR uni1EDD
ENCODING 7901
SWIDTH 439 0
DWIDTH 6 0
BBX 8 10 -1 0
BITMAP
0005F100
0001F313
0000A46C
003BEBC4
03ED1C60
0BF60B60
1FF10D50
2FE02F10
1FE0A800
07ED7000
ENDCHAR
STARTCHAR uni1EDE
ENCODING 7902
SWIDTH 665 0
DWIDTH 9 0
BBX 11 14 0 0
BITMAP
000005DB1000
0000010C2000
000000B13D10
000000004E10
0029CDD89800
07D5772ED000
6E2CE20BF100
B97F900BF200
66DF300CF100
03FD001FD000
06FA006F9000
07F901DE2000
04FC3BF50000
008EEB400000
ENDCHAR
STARTCHAR uni1EDF
ENCODING 7903
SWIDTH 439 0
DWIDTH 6 0
BBX 8 10 -1 0
BITMAP
0000BD70
0000777A
0000007A
003BEBD3
03ED1C60
0BF60B60
1FF10D50
2FE02F10
1FE0A800
07ED7000
ENDCHAR
STARTCHAR uni1EE0
ENCODING 7904
SWIDTH 665 0
DWIDTH 9 0
BBX 11 13 0 0
BITMAP
0002CEB81000
000115723E10
000000004E00
0029CDD89800
07D5772ED000
6E2CE20BF100
B97F900BF200
66DF300CF100
03FD001FD000
06FA006F9000
07F901DE2000
04FC3BF50000
008EEB400000
ENDCHAR
STARTCHAR uni1EE1
ENCODING 7905
SWIDTH 439 0
DWIDTH 6 0
BBX 8 10 -1 0
BITMAP
004EC724
0048D66C
00000079
003BEBC2
03ED1B60
0BF50B60
1FF10E50
2FE04F10
1FF6D700
07ED7000
ENDCHAR
STARTCHAR uni1EE2
ENCODING 7906
SWIDTH 665 0
DWIDTH 9 0
BBX 11 16 0 -3
BITMAP
000000001600
000000003F10
000000004E00
0029CDD89700
07D5772EC000
6E2CE20BF100
B97F900BF200
66DF300CF100
03FD001FD000
06FA006F9000
07F901DE2000
04FC3BF50000
008EEB400000
000100000000
005F90000000
004E70000000
ENDCHAR
STARTCHAR uni1EE3
ENCODING 7907
SWIDTH 439 0
DWIDTH 6 0
BBX 8 12 -1 -3
BITMAP
0000005B
0000007A
003BEBD3
03ED1C60
0BF60B60
1FF10D50
2FE02F10
1FE0A800
07ED7000
00200000
07F60000
06E50000
ENDCHAR
STARTCHAR uni1EE4
ENCODING 7908
SWIDTH 716 0
DWIDTH 10 0
BBX 11 13 0 -3
BITMAP
006BEB008F70
2C67F700BF40
C80BF300EF10
F40FE003FC00
634F9007F900
008F500AF500
00BF200EF100
00DF006FA000
00CF86EE2000
004CFEB30000
000010000000
0009F4000000
0008E3000000
ENDCHAR
STARTCHAR uni1EE5
ENCODING 7909
SWIDTH 505 0
DWIDTH 7 0
BBX 9 10 -1 -3
BITMAP
02FD0BF500
06FA0EF200
09F62FD000
0CF35FA000
0FF09F7140
1FF6EFA930
0AEA4ED500
0002000000
00BF300000
009E200000
ENDCHAR
STARTCHAR uni1EE6
ENCODING 7910
SWIDTH 716 0
DWIDTH 10 0
BBX 11 14 0 0
BITMAP
0000005DB100
00000010C200
0000000B2000
000000000000
006BEB008F70
2C67F700BF40
C80BF300EF10
F40FE003FC00
634F9007F900
008F500AF500
00BF200EF100
00DF006FA000
00CF86EE2000
004CFEB30000
ENDCHAR
STARTCHAR uni1EE7
ENCODING 7911
SWIDTH 505 0
DWIDTH 7 0
BBX 9 10 -1 0
BITMAP
0002CD4000
0000A61000
0000000000
02FD0BF500
06FA0EF200
09F62FD000
0CF35FA000
0FF09F7140
1FF6EFA930
0AEA4ED500
ENDCHAR
STARTCHAR uni1EE8
ENCODING 7912
SWIDTH 716 0
DWIDTH 10 0
BBX 13 14 0 0
BITMAP
00000001E50000
00000008A02E20
00000007102E10
00000000007600
006BEB008F7000
2C67F700BF2000
C80BF300EE0000
F40FE003FB0000
634F9007F80000
008F500AF40000
00BF200EE00000
00DF006F900000
00CF86EE200000
004CFEA3000000
ENDCHAR
STARTCHAR uni1EE9
ENCODING 7913
SWIDTH 505 0
DWIDTH 7 0
BBX 9 10 -1 0
BITMAP
00000AB000
00003D1890
0000220B60
02FD0BFA00
06FA0EF200
09F62FE000
0CF35FA000
0FF09F7140
1FF6EFA930
0AEA4ED500
ENDCHAR
STARTCHAR uni1EEA
ENCODING 7914
SWIDTH 716 0
DWIDTH 10 0
BBX 13 14 0 0
BITMAP
000003F3000000
000000D5002E20
00000086002E10
00000000007600
006BEB008F7000
2C67F700BF3000
C80BF300EE0000
F40FE003FB0000
634F9007F80000
008F500AF40000
00BF200EE00000
00DF006F900000
00CF86EE200000
004CFEA3000000
ENDCHAR
STARTCHAR uni1EEB
ENCODING 7915
SWIDTH 505 0
DWIDTH 7 0
BBX 9 10 -1 0
BITMAP
0004F20000
0000E40560
0000950B70
02FD0BFC10
06FA0EF200
09F62FE000
0CF35FB000
0FF09F7140
1FF6EFA930
0AEA4ED500
ENDCHAR
STARTCHAR uni1EEC
ENCODING 7916
SWIDTH 716 0
DWIDTH 10 0
BBX 13 14 0 0
BITMAP
0000005DB10000
00000010C21B10
0000000B202F10
00000000006800
006BEB008F8000
2C67F700BF3000
C80BF300EE0000
F40FE003FB0000
634F9007F80000
008F500AF40000
00BF200EE10000
00DF006F900000
00CF86EE200000
004CFEA3000000
ENDCHAR
STARTCHAR uni1EED
ENCODING 7917
SWIDTH 505 0
DWIDTH 7 0
BBX 9 10 -1 0
BITMAP
0002CD4000
0000A61880
0000000C60
02FD0BFA00
06FA0EF200
09F62FE000
0CF35FA000
0FF09F7140
1FF6EFA930
0AEA4ED500
ENDCHAR
STARTCHAR uni1EEE
ENCODING 7918
SWIDTH 716 0
DWIDTH 10 0
BBX 13 13 0 0
BITMAP
000008EEB83E20
00001126622E10
00000000007600
006BEB008F7000
2C67F700BF2000
C80BF300EE0000
F40FE003FB0000
634F9007F80000
008F500AF40000
00BF200EE00000
00DF006F900000
00CF86EE200000
004CFEA3000000
ENDCHAR
STARTCHAR uni1EEF
ENCODING 7919
SWIDTH 505 0
DWIDTH 7 0
BBX 9 10 -1 0
BITMAP
0009EA5660
0015AB2980
0000000B20
02FD0BF400
06FA0EF100
09F62FD000
0CF35FA000
0FF09F7140
1FF6EFA930
0AEA4ED500
ENDCHAR
STARTCHAR uni1EF0
ENCODING 7920
SWIDTH 716 0
DWIDTH 10 0
BBX 13 16 0 -3
BITMAP
00000000002E20
00000000002E10
00000000007600
006BEB008F7000
2C67F700BF2000
C80BF300EE0000
F40FE003FB0000
634F9007F80000
008F500AF40000
00BF200EE00000
00DF006F900000
00CF86EE200000
004CFEA3000000
00001000000000
0009F400000000
0008E300000000
ENDCHAR
STARTCHAR uni1EF1
ENCODING 7921
SWIDTH 505 0
DWIDTH 7 0
BBX 9 13 -1 -3
BITMAP
0000000340
0000000990
0000000C30
02FD0BF600
06FA0EF100
09F62FD000
0CF35FA000
0FF09F7140
1FF6EFA930
0AEA4ED500
0002000000
00BF300000
009E200000
ENDCHAR
STARTCHAR Ygrave
ENCODING 7922
SWIDTH 620 0
DWIDTH 9 0
BBX 10 14 0 0
BITMAP
000000C500
000000B800
0000006B00
0000000000
006BEA0068
1B86FE00B1
9B02FF3390
D700DF6920
65009FBA00
00005FF300
00005FE000
00008FA000
0000CF7000
0000FF4000
ENDCHAR
STARTCHAR ygrave
ENCODING 7923
SWIDTH 505 0
DWIDTH 7 0
BBX 9 13 -1 -3
BITMAP
0005F10000
0001F30000
0000950000
02FD0BF500
06FA0EF100
09F62FD000
0CF35FA000
0FF09F7220
1FF7FF4800
0AEBFF7200
007BFC0000
059AF70000
02DE900000
ENDCHAR
STARTCHAR uni1EF4
ENCODING 7924
SWIDTH 620 0
DWIDTH 9 0
BBX 10 13 0 -3
BITMAP
006BEA0068
1B86FE00B1
9B02FF3390
D700DF6920
65009FBA00
00005FF300
00005FE000
00008FA000
0000CF7000
0000FF4000
0000100000
0005F80000
0004E70000
ENDCHAR
STARTCHAR uni1EF5
ENCODING 7925
SWIDTH 505 0
DWIDTH 7 0
BBX 9 10 -1 -3
BITMAP
02FD0BF500
06FA0EF100
09F62FD000
0CF35FA000
0FF09F7220
1FF7FF4800
0AEBFF7200
007BFC0000
058AF7B600
02DE91E800
ENDCHAR
STARTCHAR uni1EF6
ENCODING 7926
SWIDTH 620 0
DWIDTH 9 0
BBX 10 14 0 0
BITMAP
0000005DB1
00000010C2
0000000B20
0000000000
006BEA0068
1B86FE00B1
9B02FF3390
D700DF6920
65009FBA00
00005FF300
00005FE000
00008FA000
0000CF7000
0000FF4000
ENDCHAR
STARTCHAR uni1EF7
ENCODING 7927
SWIDTH 505 0
DWIDTH 7 0
BBX 9 13 -1 -3
BITMAP
0002CD4000
0000A61000
0000000000
02FD0BF500
06FA0EF100
09F62FD000
0CF35FA000
0FF09F7220
1FF7FF4800
0AEBFF7200
007BFC0000
059AF70000
02DE900000
ENDCHAR
STARTCHAR uni1EF8
ENCODING 7928
SWIDTH 620 0
DWIDTH 9 0
BBX 10 13 0 0
BITMAP
00002BFD95
0000114750
0000000000
006BEA0068
1B86FE00B1
9B02FF3390
D700DF6920
65009FBA00
00005FF300
00005FE000
00008FA000
0000CF7000
0000FF4000
ENDCHAR
STARTCHAR uni1EF9
ENCODING 7929
SWIDTH 505 0
DWIDTH 7 0
BBX 9 13 -1 -3
BITMAP
001BFC8500
00459C9100
0000000000
02FD0BF500
06FA0EF100
09F62FD000
0CF35FA000
0FF09F7220
1FF7FF4800
0AEBFF7200
007BFC0000
059AF70000
02DE900000
ENDCHAR
STARTCHAR uni2010
ENCODING 8208
SWIDTH 290 0
DWIDTH 4 0
BBX 4 1 0 3
BITMAP
8DD2
ENDCHAR
STARTCHAR endash
ENCODING 8211
SWIDTH 352 0
DWIDTH 5 0
BBX 5 1 0 3
BITMAP
8DDD10
ENDCHAR
STARTCHAR emdash
ENCODING 8212
SWIDTH 444 0
DWIDTH 6 0
BBX 6 1 0 3
BITMAP
8DDDD4
ENDCHAR
STARTCHAR quoteleft
ENCODING 8216
SWIDTH 209 0
DWIDTH 3 0
BBX 3 4 1 7
BITMAP
0100
1900
8D10
8E10
ENDCHAR
STARTCHAR quoteright
ENCODING 8217
SWIDTH 238 0
DWIDTH 3 0
BBX 3 4 1 6
BITMAP
8E10
7F10
4700
1000
ENDCHAR
STARTCHAR quotesinglbase
ENCODING 8218
SWIDTH 220 0
DWIDTH 3 0
BBX 3 4 -1 -2
BITMAP
1D90
0DA0
0920
0100
ENDCHAR
STARTCHAR quotedblleft
ENCODING 8220
SWIDTH 429 0
DWIDTH 6 0
BBX 5 4 1 7
BITMAP
010010
190470
8D1DA0
8E1CB0
ENDCHAR
STARTCHAR quotedblright
ENCODING 8221
SWIDTH 426 0
DWIDTH 6 0
BBX 6 4 1 6
BITMAP
4E48D1
4F48E1
190560
100100
ENDCHAR
STARTCHAR quotedblbase
ENCODING 8222
SWIDTH 440 0
DWIDTH 6 0
BBX 6 4 -1 -2
BITMAP
1D94E5
0DA3E5
092190
010100
ENDCHAR
STARTCHAR dagger
ENCODING 8224
SWIDTH 495 0
DWIDTH 7 0
BBX 6 13 1 -3
BITMAP
000D20
002D00
006900
68CB83
EFFFF3
02D000
05A000
087000
0B4000
0E1000
2D0000
6A0000
960000
ENDCHAR
STARTCHAR daggerdbl
ENCODING 8225
SWIDTH 495 0
DWIDTH 7 0
BBX 7 13 0 -3
BITMAP
0000D200
0002D000
00069000
068CB830
0EFFFF30
002D0000
5DDEDA00
9FFFF900
00B40000
00E10000
02D00000
06A00000
09600000
ENDCHAR
STARTCHAR bullet
ENCODING 8226
SWIDTH 434 0
DWIDTH 6 0
BBX 4 3 1 2
BITMAP
0AA1
4FF5
1CD1
ENDCHAR
STARTCHAR ellipsis
ENCODING 8230
SWIDTH 702 0
DWIDTH 10 0
BBX 10 3 0 0
BITMAP
0200100010
6F72FC0AF3
5E62DA09E3
ENDCHAR
STARTCHAR perthousand
ENCODING 8240
SWIDTH 1175 0
DWIDTH 16 0
BBX 17 10 0 0
BITMAP
01AE9002D100000000
0AA2F10A5000000000
2F43F24B0000000000
4F15E0C30000000000
3F1C7792BE7009EB00
0AD81D1C85E08C1F40
0000964F15F0E61F40
0003C06E08C2F33F10
000B406D1D61F39A00
005A001CD7009EA100
ENDCHAR
STARTCHAR minute
ENCODING 8242
SWIDTH 196 0
DWIDTH 3 0
BBX 3 4 1 6
BITMAP
3F30
7B00
B300
6000
ENDCHAR
STARTCHAR second
ENCODING 8243
SWIDTH 341 0
DWIDTH 5 0
BBX 5 4 1 6
BITMAP
3F5F30
7B6B00
B3B400
606000
ENDCHAR
STARTCHAR guilsinglleft
ENCODING 8249
SWIDTH 359 0
DWIDTH 5 0
BBX 5 6 0 1
BITMAP
000010
002960
18A200
990000
07B300
002800
ENDCHAR
STARTCHAR guilsinglright
ENCODING 8250
SWIDTH 344 0
DWIDTH 5 0
BBX 5 6 0 1
BITMAP
010000
0A5000
008A10
001A80
17A500
740000
ENDCHAR
STARTCHAR fraction
ENCODING 8260
SWIDTH 248 0
DWIDTH 3 0
BBX 8 10 -2 0
BITMAP
000000C2
00000780
00001D10
00009600
0003C000
000C3000
006A0000
01D20000
08700000
2D000000
ENDCHAR
STARTCHAR uni2052
ENCODING 8274
SWIDTH 796 0
DWIDTH 11 0
BBX 8 10 2 0
BITMAP
AD1002D1
CE200A50
11004B00
0000C300
00079000
001D1000
00960000
03C00110
0B401ED0
5A000CC0
ENDCHAR
STARTCHAR uni2070
ENCODING 8304
SWIDTH 379 0
DWIDTH 5 0
BBX 6 6 0 4
BITMAP
01AE90
0AA2F1
2F43F2
4F15E0
3F1C70
0AD800
ENDCHAR
STARTCHAR uni2074
ENCODING 8308
SWIDTH 352 0
DWIDTH 5 0
BBX 5 6 0 4
BITMAP
04B690
05BB70
093E40
1BAF60
006C00
004500
ENDCHAR
STARTCHAR uni2075
ENCODING 8309
SWIDTH 335 0
DWIDTH 5 0
BBX 5 7 0 4
BITMAP
001110
04CC50
083000
0ACC10
1D2E60
4A1E40
0AD600
ENDCHAR
STARTCHAR uni2076
ENCODING 8310
SWIDTH 351 0
DWIDTH 5 0
BBX 5 6 0 4
BITMAP
01AE70
0AB2A0
2F4000
4F4840
3F1C70
0AD910
ENDCHAR
STARTCHAR uni2077
ENCODING 8311
SWIDTH 329 0
DWIDTH 5 0
BBX 5 6 0 4
BITMAP
2CFF40
103900
01C100
0B7000
2F2000
1B2000
ENDCHAR
STARTCHAR uni2078
ENCODING 8312
SWIDTH 354 0
DWIDTH 5 0
BBX 5 7 0 3
BITMAP
01BE60
06D2B0
03FA40
04DD10
2E1D80
3E1C80
09D900
ENDCHAR
STARTCHAR uni2079
ENCODING 8313
SWIDTH 345 0
DWIDTH 5 0
BBX 5 6 0 4
BITMAP
04DD30
1E1A90
2D2AA0
0AAC60
263D10
177100
ENDCHAR
STARTCHAR uni2080
ENCODING 8320
SWIDTH 379 0
DWIDTH 5 0
BBX 6 6 0 0
BITMAP
01AE90
0AA2F1
1F43F2
4F15E0
3F1B80
0BE900
ENDCHAR
STARTCHAR uni2081
ENCODING 8321
SWIDTH 229 0
DWIDTH 3 0
BBX 3 6 0 0
BITMAP
0150
3ED0
0890
0C60
1F20
4E00
ENDCHAR
STARTCHAR uni2082
ENCODING 8322
SWIDTH 328 0
DWIDTH 5 0
BBX 5 6 0 0
BITMAP
04DD20
0B2E60
033D10
01A300
0A2000
4EDC20
ENDCHAR
STARTCHAR uni2083
ENCODING 8323
SWIDTH 336 0
DWIDTH 5 0
BBX 5 6 0 0
BITMAP
03CD30
086980
016A20
053D30
4C0E60
1A9900
ENDCHAR
STARTCHAR uni2084
ENCODING 8324
SWIDTH 352 0
DWIDTH 5 0
BBX 5 6 0 0
BITMAP
04B690
05BB70
093E40
1BAF60
005D00
008A00
ENDCHAR
STARTCHAR uni2085
ENCODING 8325
SWIDTH 335 0
DWIDTH 5 0
BBX 5 7 0 0
BITMAP
001120
04CC50
073000
0ACC10
1C2E60
4A1E40
1BD700
ENDCHAR
STARTCHAR uni2086
ENCODING 8326
SWIDTH 351 0
DWIDTH 5 0
BBX 5 6 0 0
BITMAP
01AE70
0AB2A0
1FBD30
4F4980
3F1C50
0BE800
ENDCHAR
STARTCHAR uni2087
ENCODING 8327
SWIDTH 329 0
DWIDTH 5 0
BBX 5 6 0 0
BITMAP
2DFF40
103900
01C100
0A7000
1F3000
1E2000
ENDCHAR
STARTCHAR uni2088
ENCODING 8328
SWIDTH 354 0
DWIDTH 5 0
BBX 5 6 0 0
BITMAP
01CE70
06D3B0
02EB20
0B6E50
4D0C80
1BEB10
ENDCHAR
STARTCHAR uni2089
ENCODING 8329
SWIDTH 345 0
DWIDTH 5 0
BBX 5 6 0 0
BITMAP
04DD20
1E1A90
2D2AA0
0BBC70
141E20
299400
ENDCHAR
STARTCHAR colonmonetary
ENCODING 8353
SWIDTH 384 0
DWIDTH 5 0
BBX 6 11 0 -1
BITMAP
000A74
002DE5
04B17C
2E4089
9E0000
CC0000
DC0000
9F3050
1DED50
0A6400
144100
ENDCHAR
STARTCHAR franc
ENCODING 8355
SWIDTH 529 0
DWIDTH 7 0
BBX 8 10 0 0
BITMAP
000DFDDB
000DF200
001FE000
004FB000
008FED50
00BF4000
00EF1000
ADFFD900
06FA0000
09F60000
ENDCHAR
STARTCHAR lira
ENCODING 8356
SWIDTH 455 0
DWIDTH 6 0
BBX 8 10 0 0
BITMAP
0004CEB0
002FB3F2
008F5260
00CF1000
4DFFDB00
8EFED700
08F50000
0CD10040
4FEEDED0
6117DE50
ENDCHAR
STARTCHAR uni20A6
ENCODING 8358
SWIDTH 723 0
DWIDTH 10 0
BBX 11 10 0 0
BITMAP
0008F8006E00
000CFB009B00
001FFE00D700
004FDF32F400
4ADEDFCCFB80
00AA6F98C000
ADFEDFFEED60
01F40EFE6000
06E00AFF2000
0AA006FD0000
ENDCHAR
STARTCHAR uni20A9
ENCODING 8361
SWIDTH 841 0
DWIDTH 12 0
BBX 13 10 0 0
BITMAP
03FE002FD005A0
02FE008FD00B30
01FE00EFD02C00
01FE05AFD08500
4AFFAECFEAEB80
00FF1B2FD39000
ADFFEEDFFEED60
00EF921FDB0000
00DFA00FE80000
00DF400FF20000
ENDCHAR
STARTCHAR Euro
ENCODING 8364
SWIDTH 507 0
DWIDTH 7 0
BBX 9 10 0 0
BITMAP
00008DEA00
001CE24F40
009F608F20
02FF101200
4EFFDD9000
8EFEDD4000
09F9000000
07FB000000
02FF649000
006DEC3000
ENDCHAR
STARTCHAR uni20AE
ENCODING 8366
SWIDTH 481 0
DWIDTH 7 0
BBX 10 10 0 0
BITMAP
04ACEFDDDA
5E30EF0000
C803FC0000
C606F93500
123BFD9500
2A7EF68400
27AFE74100
456FB00000
007F800000
00AF500000
ENDCHAR
STARTCHAR uni20B3
ENCODING 8371
SWIDTH 573 0
DWIDTH 8 0
BBX 9 10 0 0
BITMAP
006CDDB300
2D86729E10
BA1FF14F40
D74FB08F10
238F76F700
0AFFDB5000
00EF100000
3DFFDC0000
05FB000000
08F7000000
ENDCHAR
STARTCHAR uni20B4
ENCODING 8372
SWIDTH 570 0
DWIDTH 8 0
BBX 8 10 0 0
BITMAP
006CDEB2
06D108F6
02702DC1
2DDEFDD7
001CA000
6DEEDDD2
0BE23DA0
5FA00AF1
5FB00CC0
08DED910
ENDCHAR
STARTCHAR uni20B8
ENCODING 8376
SWIDTH 522 0
DWIDTH 7 0
BBX 11 10 0 0
BITMAP
0ADDDDDDDD70
006BDDA40320
1CA1AFCCDA00
AE10EF300000
DA02FE000000
7905FB000000
0008F8000000
000CF4000000
000FF1000000
003FC0000000
ENDCHAR
STARTCHAR uni20B9
ENCODING 8377
SWIDTH 544 0
DWIDTH 8 0
BBX 9 12 0 -1
BITMAP
06BDDCBB10
0002DD0000
0ABBDFC800
00008F3000
0005F80000
2BEFB10000
001BF70000
0007F80000
000BF50000
000FF10000
001FF10000
0003410000
ENDCHAR
STARTCHAR uni20BA
ENCODING 8378
SWIDTH 455 0
DWIDTH 6 0
BBX 8 10 0 0
BITMAP
000EF100
003FC000
007FC910
05CF8210
66EFBA20
2AFE1160
16FA00F5
08F703F3
0CF56E70
0EFD9300
ENDCHAR
STARTCHAR uni20BD
ENCODING 8381
SWIDTH 573 0
DWIDTH 8 0
BBX 9 10 0 0
BITMAP
006CDDB300
2D86729E10
BA1FF14F40
D74FB08F10
238F76F700
3DFFDB5000
00EF100000
7DFFD40000
05FB000000
09F7000000
ENDCHAR
STARTCHAR uni2116
ENCODING 8470
SWIDTH 996 0
DWIDTH 14 0
BBX 14 10 0 0
BITMAP
034AF7006E0000
4B0DFB009B1AD6
C81FFF00C88C39
C95FCF41F4C776
138E7F74F18D90
00BA3FB7C00000
00E70EEA96EEE3
02F30BFF512220
06E007FF200000
09B004FE000000
ENDCHAR
STARTCHAR uni2120
ENCODING 8480
SWIDTH 585 0
DWIDTH 8 0
BBX 7 5 1 6
BITMAP
05504140
0C41C770
0795BB50
74C6CA30
37436510
ENDCHAR
STARTCHAR trademark
ENCODING 8482
SWIDTH 379 0
DWIDTH 5 0
BBX 7 3 -1 6
BITMAP
17956710
2545AC00
0815B900
ENDCHAR
STARTCHAR uni2126
ENCODING 8486
SWIDTH 745 0
DWIDTH 10 0
BBX 10 12 0 -1
BITMAP
00005CED60
0009D648F4
007C1000BA
01F300007C
07C000008B
0A900000A8
0B800000E3
09900006B0
04D0002D20
009702C300
7FFD09FFE1
1221022220
ENDCHAR
STARTCHAR uni212A
ENCODING 8490
SWIDTH 601 0
DWIDTH 8 0
BBX 10 10 0 0
BITMAP
006CE709C1
1C7CF36C10
AA0FE3D200
D63FDC2000
447FEDB300
00AF55F900
00EF16F800
02FD0AF400
05FA0DF100
09F70CF200
ENDCHAR
STARTCHAR uni212B
ENCODING 8491
SWIDTH 668 0
DWIDTH 9 0
BBX 10 14 0 -2
BITMAP
0000000077
0000000198
00000017E8
000002ABF7
00002C1DF4
0000C61FF1
2ACEF97FC0
CC2F61AF90
559E10AF50
01FA00EF20
06F502FD00
0AF105FA00
0CE0035300
06C0000000
ENDCHAR
STARTCHAR estimated
ENCODING 8494
SWIDTH 786 0
DWIDTH 11 0
BBX 11 10 0 0
BITMAP
0017CDC81000
02D91018D200
0CF40003FD00
4FF40003FF50
7FFDCCCCDD70
7FF400000000
4FF400000000
0CF400000000
02D81016C000
0017CDC71000
ENDCHAR
STARTCHAR uni2153
ENCODING 8531
SWIDTH 733 0
DWIDTH 10 0
BBX 11 11 0 0
BITMAP
026000000000
3ED0001D2000
089000870000
0B6002D00000
0E300A500000
3F004B08EA00
2400C30E1F10
000790039700
001D10248A00
009600A55E00
03C0005AB400
ENDCHAR
STARTCHAR uni2154
ENCODING 8532
SWIDTH 852 0
DWIDTH 12 0
BBX 12 10 0 0
BITMAP
04DD20004B00
0B2E6000C300
033D10079000
01A2001D1000
0A2000961CE5
4EDC23C05A6B
00000C4005A3
00005A0042C5
0001D200E1A9
0008700098B2
ENDCHAR
STARTCHAR oneeighth
ENCODING 8539
SWIDTH 741 0
DWIDTH 10 0
BBX 11 11 0 0
BITMAP
026000000000
3ED0001D2000
089000870000
0B6002D00000
0E300A500000
3F004B08EC10
2400C30F4B20
0007900AD600
001D1069BC00
009600C56F00
03C0006DD500
ENDCHAR
STARTCHAR threeeighths
ENCODING 8540
SWIDTH 828 0
DWIDTH 12 0
BBX 12 10 0 0
BITMAP
04DD4000B400
076A7005B000
005A000D2000
2D1E50780000
3A1E42D15ED3
08950A60B885
00003C006E90
0000C303B8E1
0006900982F3
001D1003DD80
ENDCHAR
STARTCHAR fiveeighths
ENCODING 8541
SWIDTH 827 0
DWIDTH 12 0
BBX 12 11 0 0
BITMAP
001110000000
04CC5000B400
08300005A000
0ACC101D2000
1D2E60780000
4A1E42D15ED2
0AD60A50C785
00004C007E90
0000C303B8E1
0006900982F3
001D1004DD80
ENDCHAR
STARTCHAR seveneighths
ENCODING 8542
SWIDTH 761 0
DWIDTH 11 0
BBX 11 10 0 0
BITMAP
2CFF400A5000
1039004B0000
01C100C30000
0B7006900000
2F201D14DD30
1B20970A8760
0003C005E900
000B403B8E20
005A00891F40
01D2003DD800
ENDCHAR
STARTCHAR partialdiff
ENCODING 8706
SWIDTH 597 0
DWIDTH 8 0
BBX 9 12 0 -1
BITMAP
0002BEC400
000973AE10
0000001F40
0000000D50
0000000E30
004BED7F10
07D534AC00
2E1000A600
6C0004C000
4E305D2000
0AFFC20000
0011000000
ENDCHAR
STARTCHAR uni2206
ENCODING 8710
SWIDTH 619 0
DWIDTH 9 0
BBX 9 12 0 -1
BITMAP
0000035100
00000DF300
00007CF600
0001E4D800
0009A0BA00
003E209D00
00B8007F00
05D1005F20
1D50003F40
7C00001F70
CFFFFFFF80
2222222210
ENDCHAR
STARTCHAR product
ENCODING 8719
SWIDTH 661 0
DWIDTH 9 0
BBX 9 11 0 0
BITMAP
4FFFFFFFE0
12D623F320
01F104D000
04D007A000
07A00B6000
0B600E3000
0E302F0000
2F005C0000
5C00880000
8900C50000
7400920000
ENDCHAR
STARTCHAR summation
ENCODING 8721
SWIDTH 605 0
DWIDTH 8 0
BBX 9 11 0 -1
BITMAP
00AFFFFF90
009D222210
001E600000
0007D10000
0000D80000
0001D70000
001D700000
01C8000000
1C80000000
8FFFFFB000
1222221000
ENDCHAR
STARTCHAR minus
ENCODING 8722
SWIDTH 471 0
DWIDTH 7 0
BBX 6 2 0 3
BITMAP
4EEEE8
122221
ENDCHAR
STARTCHAR uni2215
ENCODING 8725
SWIDTH 488 0
DWIDTH 7 0
BBX 7 11 0 0
BITMAP
00000250
00000B40
00004B00
0000C300
00069000
001D2000
00880000
02D10000
09600000
3C000000
B4000000
ENDCHAR
STARTCHAR uni2219
ENCODING 8729
SWIDTH 434 0
DWIDTH 6 0
BBX 4 3 1 2
BITMAP
0880
4FF5
1DD2
ENDCHAR
STARTCHAR radical
ENCODING 8730
SWIDTH 660 0
DWIDTH 9 0
BBX 9 11 0 -1
BITMAP
000005FFC0
00000B8220
00002E1000
00007A0000
0000D40000
0003D00000
9F39700000
1C6E100000
08DA000000
05F4000000
0020000000
ENDCHAR
STARTCHAR infinity
ENCODING 8734
SWIDTH 833 0
DWIDTH 12 0
BBX 11 6 0 1
BITMAP
02BD801AD900
0D63D9D54F20
5C006F400F20
5D14DBB16C00
1DFC21CFC200
001000010000
ENDCHAR
STARTCHAR integral
ENCODING 8747
SWIDTH 305 0
DWIDTH 4 0
BBX 8 14 -2 -2
BITMAP
000009C3
00007C00
0000B700
0000E400
0002F100
0005C000
00089000
000C6000
000E3000
003F0000
006C0000
00990000
01E40000
4C800000
ENDCHAR
STARTCHAR approxequal
ENCODING 8776
SWIDTH 441 0
DWIDTH 6 0
BBX 7 5 0 1
BITMAP
0AEFFF40
05222100
00000000
4DFFFA00
43222000
ENDCHAR
STARTCHAR notequal
ENCODING 8800
SWIDTH 500 0
DWIDTH 7 0
BBX 7 8 0 -1
BITMAP
00046000
068CA840
0CFFFF50
000A0000
29AC9800
7FFFFB00
00A10000
00100000
ENDCHAR
STARTCHAR lessequal
ENCODING 8804
SWIDTH 405 0
DWIDTH 6 0
BBX 6 8 0 1
BITMAP
000046
004CC3
1CD500
18E710
002AC0
000020
DFFFE1
222220
ENDCHAR
STARTCHAR greaterequal
ENCODING 8805
SWIDTH 405 0
DWIDTH 6 0
BBX 6 8 0 1
BITMAP
046000
03CD40
0007F8
029E71
1E7100
110000
BFFFF2
222220
ENDCHAR
STARTCHAR lozenge
ENCODING 9674
SWIDTH 619 0
DWIDTH 9 0
BBX 8 11 0 0
BITMAP
00003810
0002EE60
000C77C0
009A01F3
07D100B9
3E20005E
2F2000B8
0B7008B0
06D05D10
01E6D200
009F4000
ENDCHAR
STARTCHAR uni27E8
ENCODING 10216
SWIDTH 456 0
DWIDTH 6 0
BBX 7 14 0 -2
BITMAP
00000920
00005800
0002B000
000B2000
00850000
05900000
1B000000
2B000000
07600000
00B20000
003B0000
00086000
0000B100
00003700
ENDCHAR
STARTCHAR uni27E9
ENCODING 10217
SWIDTH 456 0
DWIDTH 6 0
BBX 6 14 0 -2
BITMAP
180000
094000
01C100
005800
000A30
0002B0
000067
000076
0003A0
001B10
00A300
077000
3A0000
A10000
ENDCHAR
STARTCHAR ff
ENCODING 64256
SWIDTH 508 0
DWIDTH 7 0
BBX 12 13 -3 -3
BITMAP
00001AEB9ED6
00008F65FC07
0000DF18F800
0002FFDFFD90
0005FB0EF200
0009F72FD000
000CF45FA000
001FF19F7000
004FC0CF3000
019FB5FE0000
6BCF63FB0000
D1DF28F60000
7ED9CE900000
ENDCHAR
STARTCHAR fi
ENCODING 64257
SWIDTH 534 0
DWIDTH 7 0
BBX 11 13 -3 -3
BITMAP
000007DDD500
00006F90DC00
0000DF205200
0001FFD7F900
0005FB0AF600
0008F80DF300
000BF41FE000
000FF14FB040
003FC05FC680
019F901DE900
5ACF50000000
C1DF10000000
7DD500000000
ENDCHAR
STARTCHAR fl
ENCODING 64258
SWIDTH 548 0
DWIDTH 8 0
BBX 12 13 -3 -3
BITMAP
00001AECB610
00008F60BF50
0000DF20EF10
0002FFD5FD00
0005FB06FA00
0009F709F600
000CF40CF300
001FF11FE031
004FC02FE5A0
019F900BEA10
6ACF50000000
C1DE10000000
7ED400000000
ENDCHAR
STARTCHAR ffi
ENCODING 64259
SWIDTH 764 0
DWIDTH 11 0
BBX 15 13 -3 -3
BITMAP
00001AEB5CED8000
00008F74FC0BF000
0000DF2AF5033000
0002FFDFFDDFC000
0005FB1FE05F9000
0009F85FB09F6000
000CF48F80CF3000
001FF1BF41FE0310
004FD0EF12FE5A00
019FC7FC00BEB200
6BBF66F900000000
D1DF2BF400000000
7ED9CE7000000000
ENDCHAR
STARTCHAR ffl
ENCODING 64260
SWIDTH 780 0
DWIDTH 11 0
BBX 15 13 -3 -3
BITMAP
00001AEC9EDB7200
00008F75FA07F800
0000DF2AF50AF500
0002FFDFFD6EF200
0005FB1FE02FD000
0009F84FB05FA000
000CF48F809F7000
001FF1BF40CF3130
004FD0EF10EF6A10
019FC7FC008EC300
6BBF66F900000000
D1DF2BF400000000
7ED8CE7000000000
ENDCHAR
STARTCHAR .notdef
ENCODING -1
SWIDTH 810 0
DWIDTH 11 0
BBX 12 18 0 -4
BITMAP
0004988888A3
000810000071
000900000080
000800000080
003600000260
006317A40530
0080858B0800
008045B60800
018006700800
045009003500
071002006200
080076008000
080010009000
170000018000
540000044000
810000071000
800000090000
A88888870000
ENDCHAR
STARTCHAR A.salt
ENCODING -1
SWIDTH 590 0
DWIDTH 8 0
BBX 9 12 0 -2
BITMAP
000004BE70
000068BF50
000490EF20
002C13FD00
00ADBDFA00
04F10AF700
0CB00DF300
4F601FE000
9F204FB000
CE007F8000
CC00000000
2600000000
ENDCHAR
STARTCHAR B.salt
ENCODING -1
SWIDTH 633 0
DWIDTH 9 0
BBX 9 10 0 0
BITMAP
017CDDD600
3E88A27F20
C90FD2BA00
963FEFF800
007F61EF30
00AF30BF50
00EF00DF30
02FC01FD00
05FB09F500
09FCDE6000
ENDCHAR
STARTCHAR E.salt
ENCODING -1
SWIDTH 554 0
DWIDTH 8 0
BBX 9 10 0 0
BITMAP
038CFFFF30
4C1EF12100
B82FD00000
C75FA00000
239FEE7000
00CF411000
00FF100000
03FD000000
07FA000000
0AFEDD7000
ENDCHAR
STARTCHAR N.salt
ENCODING -1
SWIDTH 669 0
DWIDTH 9 0
BBX 10 10 0 0
BITMAP
005BECCE50
1B4FF51FE0
993FE01FF0
D67FB04FC0
65AF807F80
00DF40BF50
01FF10EF10
05FD02FC01
08FA04FA18
0BF701CE91
ENDCHAR
STARTCHAR i.loclTRK
ENCODING -1
SWIDTH 267 0
DWIDTH 4 0
BBX 6 10 -1 0
BITMAP
008E30
009F40
000100
02FD00
06FA00
09F600
0CF300
0FF032
1FF6A0
0AEB20
ENDCHAR
STARTCHAR a.end
ENCODING -1
SWIDTH 467 0
DWIDTH 7 0
BBX 8 7 -1 0
BITMAP
004CECF9
03ED1AF6
0AF60CF3
1FF20FF1
2FE03FD0
1FE09FB0
08EC7DD3
ENDCHAR
STARTCHAR aacute.end
ENCODING -1
SWIDTH 461 0
DWIDTH 6 0
BBX 8 10 -1 0
BITMAP
000008C0
00002E20
00002300
004CECF8
03FC1BF5
0BF50DF2
1FF11FE0
3FD04FB0
2FD0AF90
09EB7DD2
ENDCHAR
STARTCHAR c.end
ENCODING -1
SWIDTH 341 0
DWIDTH 5 0
BBX 6 7 -1 0
BITMAP
004CEA
03FC2F
0CF515
1FF100
4FD000
3FD021
08ED80
ENDCHAR
STARTCHAR d.end
ENCODING -1
SWIDTH 476 0
DWIDTH 7 0
BBX 9 10 -1 0
BITMAP
0000006920
000000EF10
000003FD00
004CECFA00
03ED1AF700
0AF60CF400
1FF20FF100
2FE03FD000
1FE09FA000
08EC7DE500
ENDCHAR
STARTCHAR e.end
ENCODING -1
SWIDTH 366 0
DWIDTH 5 0
BBX 7 7 -1 0
BITMAP
003CEB00
03EC1F10
0AF5AA00
1FFD8100
3FD00000
1FF12200
07ED8000
ENDCHAR
STARTCHAR eacute.end
ENCODING -1
SWIDTH 367 0
DWIDTH 5 0
BBX 7 10 -1 0
BITMAP
00002E40
0000A900
00005000
003CEC00
02EC1F10
0AF59A00
0FFD8100
2FE00000
1FF12200
07ED8000
ENDCHAR
STARTCHAR uni0292.end
ENCODING -1
SWIDTH 391 0
DWIDTH 5 0
BBX 6 10 0 -3
BITMAP
4DDFF3
B76F80
02ED00
0BF400
1DF500
01FE10
00CF40
48DF40
C1EE00
9ED400
ENDCHAR
STARTCHAR g.end
ENCODING -1
SWIDTH 480 0
DWIDTH 7 0
BBX 8 10 -1 -3
BITMAP
004CECF9
03ED1AF6
0AF60CF2
1FF20FE0
2FE03FB0
1FE09F80
08ECDF40
0055EF10
02A3FB00
00BEB200
ENDCHAR
STARTCHAR uni01E5.end
ENCODING -1
SWIDTH 507 0
DWIDTH 7 0
BBX 8 10 -1 -3
BITMAP
004CECF9
03ED1AF6
0AF60CF3
1FF20FF0
2FE03FC0
1FE09F90
08ECDF50
0045EF20
07EBFE80
01BEC400
ENDCHAR
STARTCHAR h.end
ENCODING -1
SWIDTH 453 0
DWIDTH 6 0
BBX 8 10 -1 0
BITMAP
00485000
00BF4000
00EF1000
02FEBE80
05FB1FE0
09F62FD0
0CF35FA0
0FE08F60
3FC09FA2
7F904EC1
ENDCHAR
STARTCHAR i.end
ENCODING -1
SWIDTH 209 0
DWIDTH 3 0
BBX 5 10 -1 0
BITMAP
008E30
009F40
000100
02FD00
06FA00
09F600
0CF300
0FF000
1FF500
0AE700
ENDCHAR
STARTCHAR iacute.end
ENCODING -1
SWIDTH 209 0
DWIDTH 3 0
BBX 6 10 -1 0
BITMAP
0007D1
001E30
001300
02FD00
06FA00
09F600
0CF300
0FF000
1FF500
0AE700
ENDCHAR
STARTCHAR ij.end
ENCODING -1
SWIDTH 480 0
DWIDTH 7 0
BBX 9 14 -1 -3
BITMAP
0001001100
009F40EE10
008E30CC00
0000000000
02FD06F900
06FA0AF600
09F60DF200
0CF31FE000
0FF05FB000
1FF58F8000
0AEACF4000
0097EF1000
02B7FB0000
00AEB20000
ENDCHAR
STARTCHAR j.end
ENCODING -1
SWIDTH 213 0
DWIDTH 3 0
BBX 7 14 -3 -3
BITMAP
00000100
0000AF40
00009E30
00000000
0002FD00
0006FA00
0009F600
000CF300
001FF000
004FC000
02AF8000
6BCF5000
C1EE1000
7ED40000
ENDCHAR
STARTCHAR k.end
ENCODING -1
SWIDTH 472 0
DWIDTH 7 0
BBX 8 10 -1 0
BITMAP
00495000
00BF4000
00EF1000
02FD06C2
05FA9800
09FFFE60
0CF76FC0
0FF15FA0
3FC07FB2
6F902DD3
ENDCHAR
STARTCHAR l.end
ENCODING -1
SWIDTH 207 0
DWIDTH 3 0
BBX 5 10 -1 0
BITMAP
000120
00AF60
00DF30
01FE00
05FB00
08F800
0CF500
0FF100
2FE000
0BE700
ENDCHAR
STARTCHAR m.end
ENCODING -1
SWIDTH 701 0
DWIDTH 10 0
BBX 11 7 -1 0
BITMAP
02FEBFB8ED20
06FC1FF49F60
09F63FD0AF50
0CF36FA0DF20
0FF09F71FD00
3FC0CF42FE50
6F90EF10BE50
ENDCHAR
STARTCHAR n.end
ENCODING -1
SWIDTH 454 0
DWIDTH 6 0
BBX 8 7 -1 0
BITMAP
02FEBE90
06FC1FF0
09F61FD0
0CF34FA0
0FF07F60
3FC08FA2
6F904EC1
ENDCHAR
STARTCHAR o.end
ENCODING -1
SWIDTH 487 0
DWIDTH 7 0
BBX 8 7 -1 0
BITMAP
003CEB00
03ED1D67
0AF61FB1
1FF20E40
3FE02F10
1FE09800
07ED8000
ENDCHAR
STARTCHAR oacute.end
ENCODING -1
SWIDTH 487 0
DWIDTH 7 0
BBX 8 10 -1 0
BITMAP
00001D70
00007B00
00004100
003CEB00
02ED1C77
0AF61FC1
0FF20D40
2FF02F10
1FE09900
07ED8000
ENDCHAR
STARTCHAR s.end
ENCODING -1
SWIDTH 316 0
DWIDTH 4 0
BBX 6 8 -1 0
BITMAP
000571
004FF2
008EF3
018CF4
082BF5
3E3AF6
660CF3
1ADD60
ENDCHAR
STARTCHAR t.end
ENCODING -1
SWIDTH 276 0
DWIDTH 4 0
BBX 5 10 -1 0
BITMAP
000110
009F50
00DF20
07FFA0
04FB00
07F800
0BF500
0EF100
1FF300
0AE500
ENDCHAR
STARTCHAR u.end
ENCODING -1
SWIDTH 459 0
DWIDTH 6 0
BBX 8 7 -1 0
BITMAP
02FD0BF5
06FA0EF2
09F62FD0
0CF35FA0
0FF09F70
1FF6EFA2
0AFA4EC1
ENDCHAR
STARTCHAR uacute.end
ENCODING -1
SWIDTH 459 0
DWIDTH 6 0
BBX 8 10 -1 0
BITMAP
00001D70
00008A00
00003100
02FD0BF5
06FA0EF2
09F62FD0
0CF35FA0
0FF09F70
1FF6EFA2
0AFA4EC1
ENDCHAR
STARTCHAR x.end
ENCODING -1
SWIDTH 500 0
DWIDTH 7 0
BBX 7 7 0 0
BITMAP
03CE57B0
082FC3D0
620EFC20
800DF300
407EF500
0597FB30
3B01CD30
ENDCHAR
STARTCHAR y.end
ENCODING -1
SWIDTH 460 0
DWIDTH 6 0
BBX 8 10 -1 -3
BITMAP
02FD0BF5
06FA0EF2
09F62FD0
0CF35FA0
0FF09F70
1FF6FF30
0AEBFF00
0199FC00
0667F700
02CE9000
ENDCHAR
STARTCHAR k.salt
ENCODING -1
SWIDTH 518 0
DWIDTH 7 0
BBX 9 10 -1 0
BITMAP
0038500000
00AF500000
00EF200000
02FE07E300
05FB9BB100
08FFDB4000
0CF98FB000
0FF15FA030
3FC07FB760
6F903DE800
ENDCHAR
STARTCHAR p.salt
ENCODING -1
SWIDTH 482 0
DWIDTH 7 0
BBX 10 12 -2 -4
BITMAP
0007700000
002FEBE700
006FE5DF00
009F709F10
00CF30AFB4
01FF2AFA00
03FCB7F300
07F9AE6000
0AF5000000
0DF2000000
1FE0000000
1300000000
ENDCHAR
STARTCHAR E_x
ENCODING -1
SWIDTH 797 0
DWIDTH 11 0
BBX 12 10 0 0
BITMAP
002BED700000
00ED15C00000
01FB033218A0
01BF708F70D0
0BFA005F9680
6FE1003FDB10
CFA0001FF100
DF80004FF216
AFC006BAF9A3
2BEDA503ED50
ENDCHAR
STARTCHAR F_i
ENCODING -1
SWIDTH 726 0
DWIDTH 10 0
BBX 11 10 0 0
BITMAP
029CFFFFFE00
3D29F87BD500
B80DF3000000
D71FF00BF400
554FFD7EF100
007F802FD000
00BF506FA000
00EF109F7040
02FD00AF8840
06FA004ED600
ENDCHAR
STARTCHAR T_h
ENCODING -1
SWIDTH 971 0
DWIDTH 14 0
BBX 14 10 0 0
BITMAP
039CEFDCBC3000
5E40EF13FD0000
C802FD04F90000
C606FA07FBED20
0109F60AF57F70
000CF30EE09F60
001FE02FB0CF40
004FB05F90EF12
007F808F61FE08
00AF50CF309EB2
ENDCHAR
STARTCHAR T_i
ENCODING -1
SWIDTH 744 0
DWIDTH 10 0
BBX 11 10 0 0
BITMAP
03ACEFFFFF20
4E30EF8CFD10
C802FD001000
D605FA07F800
3309F60AF500
000CF30EF200
001FF02FE000
004FC05FA050
007F806FB670
00AF502DE800
ENDCHAR
STARTCHAR a_x
ENCODING -1
SWIDTH 899 0
DWIDTH 13 0
BBX 14 7 -1 0
BITMAP
004CEBF93FB3D3
03ED1AF60FE094
0AF50CF30DF5A0
1FF11FE00AFB10
2FE04FC00AF804
1FF6CFD6B9FD69
08EC3BFC40AEA1
ENDCHAR
STARTCHAR a_z
ENCODING -1
SWIDTH 906 0
DWIDTH 13 0
BBX 14 7 -1 0
BITMAP
004CECF92CDFF6
03ED1AF67C2FD0
0AF60CF311AF40
1FF20FF104FB00
2FE03FD00DF300
1FE08FB07F92B0
08EC6DD4EFED90
ENDCHAR
STARTCHAR b_s
ENCODING -1
SWIDTH 799 0
DWIDTH 11 0
BBX 13 10 -1 0
BITMAP
00485000000000
00BF5000000000
00EF1000034000
02FFDD308FF000
05FB2E957FF000
09F70DD50FF100
0CF40D800DF200
0FF12F4B5CF540
1FE09B2A0DF900
08ED910ADD6000
ENDCHAR
STARTCHAR b_s_x
ENCODING -1
SWIDTH 1144 0
DWIDTH 16 0
BBX 18 10 -1 0
BITMAP
006C60000000000000
00BF30000000000000
00EF10001560000A70
03FD6D407FF0CF31C0
06F80DB71FF09F6780
09F50DB00EF16FAC10
0CF20E700DF34FE300
0FE04F3B5CF47FE014
1FF6D92A0EFA3CF8A2
08EE800ADD4004EC40
ENDCHAR
STARTCHAR b_s_z
ENCODING -1
SWIDTH 1158 0
DWIDTH 16 0
BBX 18 10 -1 0
BITMAP
004850000000000000
00BF50000000000000
00EF10000340000000
02FFDD308FF07DDFD1
05FB2E958FF0E49F60
09F70DD50FF113FC00
0CF40D900EF20BF400
0FF12F4B5CF35FA110
1FE09B2A0DF2DF2A80
08ED910ADD57FFDC20
ENDCHAR
STARTCHAR c_x
ENCODING -1
SWIDTH 755 0
DWIDTH 11 0
BBX 12 7 -1 0
BITMAP
004CEA3FB3D2
04FC2E1FE0A4
0CF5130DF5A0
1FE0000AFB00
4FC0000BF704
2FE103A8FD69
07EEB710BEA1
ENDCHAR
STARTCHAR c_z
ENCODING -1
SWIDTH 769 0
DWIDTH 11 0
BBX 12 7 -1 0
BITMAP
004CEA08EEF7
03FC2F1F4ED1
0CF515069F60
1FF10003FC00
4FD0000BF400
3FD0215FB1B1
08ED81DFEEA0
ENDCHAR
STARTCHAR e_x
ENCODING -1
SWIDTH 762 0
DWIDTH 11 0
BBX 13 7 -1 0
BITMAP
003CEC2FD2D400
02EC1F1EF19400
0AF49A0BFA8000
0FFD8108F90000
2FE0000BF90510
1FF302A6FE6900
06DEB8109EA100
ENDCHAR
STARTCHAR e_z
ENCODING -1
SWIDTH 788 0
DWIDTH 11 0
BBX 12 7 -1 0
BITMAP
004CEB0ADEFB
03FB2F1C1BF3
0CF4A9005FA0
1FFC7001DE20
4FC00008F810
3FE0312EE1C5
08ED70AFEDB1
ENDCHAR
STARTCHAR eacute_x
ENCODING -1
SWIDTH 760 0
DWIDTH 11 0
BBX 13 10 -1 0
BITMAP
00000C90000000
00004E10000000
00009600000000
004CEB2FD2D400
03EB1F1EF19400
0AF5AA0CFA8000
1FFD8009F90000
3FD0000BF90510
1FF203A6FE6900
06DEB8109EA100
ENDCHAR
STARTCHAR f_f_t
ENCODING -1
SWIDTH 780 0
DWIDTH 11 0
BBX 15 13 -3 -3
BITMAP
00001AEC9EDB7200
00008F75FA07F800
0000DF2AF50BF400
0002FFDFFDDFFC00
0005FB1FE02FD000
0009F84FB05FA000
000CF48F809F7000
001FF1BF40CF3130
004FD0EF10EF6A10
019FC7FC008EC300
6BBF66F900000000
D1DF2BF400000000
7ED8CE7000000000
ENDCHAR
STARTCHAR f_i_x
ENCODING -1
SWIDTH 898 0
DWIDTH 13 0
BBX 16 13 -3 -3
BITMAP
000007DDD5000000
00006F90DC000000
0000DF2052000281
0001FFD7F93FB3E4
0005FB0AF61FE092
0008F80DF30DF580
000BF41FE00AFA00
000FF14FB00BF704
003FC05FC6B7FD69
019F901DEA20AEA1
5ACF500000000000
C1DF100000000000
7DD5000000000000
ENDCHAR
STARTCHAR f_i_z
ENCODING -1
SWIDTH 904 0
DWIDTH 13 0
BBX 16 13 -3 -3
BITMAP
000007DDD5000000
00006F90DC000000
0000DF2052000000
0001FFD7F92CDFF6
0005FB0AF67B2FC0
0008F80DF301BF40
000BF41FE005FA00
000FF14FC00DF200
003FC05FB27F83E0
019F901DE6EFED80
5ACF500000000000
C1DF100000000000
7DD5000000000000
ENDCHAR
STARTCHAR f_l_x
ENCODING -1
SWIDTH 912 0
DWIDTH 13 0
BBX 17 13 -3 -3
BITMAP
00001AECA610000000
00008F60BF50000000
0000DF20EF10000000
0002FFD5FD1FE1C500
0005FB06FA0DF26700
0009F709F60AF6B100
000CF40CF307FD1000
001FF11FE008FA0320
004FC02FE6A8FE6B00
019F900BEB408EB200
6ACF50000000000000
C1EE10000000000000
7ED400000000000000
ENDCHAR
STARTCHAR f_l_z
ENCODING -1
SWIDTH 938 0
DWIDTH 13 0
BBX 16 13 -3 -3
BITMAP
00001AECB6100000
00008F60BF500000
0000DF20EF100000
0002FFD5FD08DEFC
0005FB06FA0F3AF4
0009F709F6014FB0
000CF40CF300CF20
001FF11FF006F900
004FC02FE21EE1A7
019F900BE79FFDC2
6ACF500000000000
C1DE100000000000
7ED4000000000000
ENDCHAR
STARTCHAR f_t
ENCODING -1
SWIDTH 548 0
DWIDTH 8 0
BBX 12 13 -3 -3
BITMAP
00001AECB610
00008F60BF40
0000DF20EF10
0002FFDDFF90
0005FB06FA00
0009F709F600
000CF40CF300
001FF11FE031
004FC02FE5A0
019F900BEA10
6ACF50000000
C1EE10000000
7ED400000000
ENDCHAR
STARTCHAR f_u
ENCODING -1
SWIDTH 772 0
DWIDTH 11 0
BBX 15 13 -3 -3
BITMAP
00001AEC20000000
00008F6340000000
0000DF1000000000
0002FFDEF90EF100
0005FB09F63FD000
0008F70CF36F9000
000CF41FE09F6000
001FF14FB0DF3220
004FC05FC8FF6A00
019F801DE77EC300
5ACF500000000000
C1EE100000000000
7DD4000000000000
ENDCHAR
STARTCHAR f_x
ENCODING -1
SWIDTH 663 0
DWIDTH 9 0
BBX 13 13 -3 -3
BITMAP
00001AEB100000
00008F65500000
0000DF10000000
0002FFDEF76C00
0005FB06F90D00
0008F703FC9700
000CF401FF7000
001FF11AEF2010
004FC0B59F6270
019F80C72DE800
56CF5000000000
B1EE1000000000
7DD40000000000
ENDCHAR
STARTCHAR g_p
ENCODING -1
SWIDTH 975 0
DWIDTH 14 0
BBX 15 11 -1 -3
BITMAP
000000000EF20000
004CECF92FFAEA00
03ED1AF65FC0BF30
0AF60CF38F80AF40
1FF20FE0BF50CF20
2FE03FB0EF22FD00
1FE09F82FE2BF600
08EBDFCDFFFD7000
004BFF39F7000000
00C4FC0CF3000000
00AEC21DA0000000
ENDCHAR
STARTCHAR g_x
ENCODING -1
SWIDTH 892 0
DWIDTH 12 0
BBX 14 10 -1 -3
BITMAP
004CEBF95FA4D2
03ED1AF62FD0B2
0AF50CF30EF690
1FF11FE00BFA00
2FE04FB01CF605
1FF6DF82A8FC78
08ECDFA710BE90
004AFF10000000
00C4FB00000000
00AEC200000000
ENDCHAR
STARTCHAR g_z
ENCODING -1
SWIDTH 907 0
DWIDTH 13 0
BBX 14 10 -1 -3
BITMAP
004CECF91CDFF6
03ED1AF67C2FD0
0BF60CF211AF50
1FF10FE004FB00
3FE03FB00CF300
2FE09F706F92B1
08EBDF41EFED90
0067FF10000000
02A3FB00000000
00AEB200000000
ENDCHAR
STARTCHAR i_x
ENCODING -1
SWIDTH 631 0
DWIDTH 9 0
BBX 11 10 -1 0
BITMAP
008E30000000
009F40000000
00010000C500
02FD0EF15900
06FA0BF4B300
09F609FC8000
0CF306FB0000
0FF009FC0430
1FF6A7EF7B00
0AEB407EB200
ENDCHAR
STARTCHAR i_z
ENCODING -1
SWIDTH 637 0
DWIDTH 9 0
BBX 10 10 -1 0
BITMAP
008E300000
009F400000
0001000000
02FD0ADEFA
06FA3F1DE2
09F7017F80
0CF401ED10
0FF109F600
1FE33FC0D4
0AE8CFEDB1
ENDCHAR
STARTCHAR iacute_x
ENCODING -1
SWIDTH 631 0
DWIDTH 9 0
BBX 11 10 -1 0
BITMAP
0007D1000000
002D20000000
00000000C500
02FD0EF15900
06FA0BF4B300
09F609FC8000
0CF306FB0000
0FF009FC0430
1FF6A7EF7B00
0AEB407EB200
ENDCHAR
STARTCHAR iacute_z
ENCODING -1
SWIDTH 637 0
DWIDTH 9 0
BBX 10 10 -1 0
BITMAP
0007D10000
001E300000
0013000000
02FD0BDEFA
06FA3D1DE2
09F7007F80
0CF401ED10
0FF109F600
1FE33FC0E4
0AE8CFEDB1
ENDCHAR
STARTCHAR j_x
ENCODING -1
SWIDTH 624 0
DWIDTH 9 0
BBX 13 14 -3 -3
BITMAP
00000100000000
0000BF30000000
00009E20000000
0000000001C400
0002FD1FE06700
0006FA0DF2C200
0009F60AFC6000
000CF307FA0000
001FF00BFA0520
004FC2A6FE6A00
008FB6108EB200
3CEF5000000000
B2EE1000000000
7ED40000000000
ENDCHAR
STARTCHAR j_z
ENCODING -1
SWIDTH 618 0
DWIDTH 9 0
BBX 12 14 -3 -3
BITMAP
000001000000
00009F400000
00008E300000
000000000000
0002FE2CDFF5
0005FA7B2FC0
0008F700BF30
000CF405F900
000FF10DE110
003FC07F73F0
029F91EFFE80
6BCF50000000
C1DF10000000
6DD500000000
ENDCHAR
STARTCHAR l_x
ENCODING -1
SWIDTH 631 0
DWIDTH 9 0
BBX 11 10 -1 0
BITMAP
006C60000000
00BF40000000
00EF1000C500
02FD0EF15900
06FA0BF4B300
09F608FC8000
0CF306FB0000
0FF009FC0430
1FF6A7EF7B00
0AEB407EB200
ENDCHAR
STARTCHAR l_z
ENCODING -1
SWIDTH 635 0
DWIDTH 9 0
BBX 10 10 -1 0
BITMAP
0059500000
00BF400000
00EF100000
03FD0ADEF9
06FA4E1DE1
09F7027F70
0DF402ED10
1FF10AF600
2FE04FC0A2
0AE7CFEDB1
ENDCHAR
STARTCHAR m_x
ENCODING -1
SWIDTH 1124 0
DWIDTH 16 0
BBX 18 7 -1 0
BITMAP
02FE9EA7ED21FE1C50
06FC1FF49F60DF2860
09F63FD0AF50AF9B00
0CF36FA0DF208FB100
0FF09F71FD009FA042
3FC0CF42FE5A7FE5A0
6F90EF10AEB308EB20
ENDCHAR
STARTCHAR m_z
ENCODING -1
SWIDTH 1125 0
DWIDTH 16 0
BBX 17 7 -1 0
BITMAP
02FE9EA7ED22CDEF70
06FC1FF49F6491ED00
09F63FD0AF5009F500
0CF36FA0DF203FB000
0FF09F71FE00CF3100
3FC0CF42FD35F92F10
6F90EF10BE7DFED900
ENDCHAR
STARTCHAR n_z
ENCODING -1
SWIDTH 882 0
DWIDTH 12 0
BBX 14 7 -1 0
BITMAP
02FE9E806DDFE2
06FC1FE0847F70
09F61FD001ED10
0CF34FA009F500
0FF07F703FC010
3FC08F81CF38A0
6F904EC7FFED40
ENDCHAR
STARTCHAR o_ae
ENCODING -1
SWIDTH 1089 0
DWIDTH 15 0
BBX 17 7 -1 0
BITMAP
003CEB004CED8CEA00
02ED1D58810EFA2E00
0AF61FB3000EF4B800
0EF20D42ADEFFC7000
2FF02F1CF55FC00040
1FE0980EF1AFD01810
07ED8007EC6BFC9100
ENDCHAR
STARTCHAR o_s
ENCODING -1
SWIDTH 786 0
DWIDTH 11 0
BBX 13 8 -1 0
BITMAP
00000000023000
003CEB00AFC000
03ED1D479FD000
0AF61FC52FE000
1FF20E401FF000
3FE02F3C3FF420
1FE098571FF700
07ED801BEC4000
ENDCHAR
STARTCHAR o_s_x
ENCODING -1
SWIDTH 1132 0
DWIDTH 16 0
BBX 18 7 -1 0
BITMAP
003CEB007DB0EF1C60
02ED1C559FD0BF3580
0AF51FC62FE09F6C20
0FF10E401FF06FE300
2FE03F3C3FF29FB022
1FF6D9471FF92EF6A1
07EE801BDC3006EC30
ENDCHAR
STARTCHAR o_s_z
ENCODING -1
SWIDTH 1139 0
DWIDTH 16 0
BBX 17 8 -1 0
BITMAP
000000000230000000
003CEB00AFC0ADEFA0
03ED1D479FD3F1CF20
0AF61FC52FE016F800
1FF20E401FF01EE100
3FE02F3B3FF09F6200
1FE098571FD3FD0E40
07ED801BEC4BFEDA10
ENDCHAR
STARTCHAR o_x
ENCODING -1
SWIDTH 851 0
DWIDTH 12 0
BBX 14 7 -1 0
BITMAP
003BEB00EF1B70
02ED1C55EF3490
0AF61FB59F7C20
1FF10D406FE300
2FE02F13CFB001
1FE0982C2EE172
07ED804D27EB40
ENDCHAR
STARTCHAR oacute_s
ENCODING -1
SWIDTH 787 0
DWIDTH 11 0
BBX 13 10 -1 0
BITMAP
00001D70000000
00007B00000000
00004100012000
003CEB009FC000
02ED1D569FD000
0AF61FC52FE000
0FF20D401FF000
2FF02F3C3FF430
1FE098471FF700
07ED801BEC4000
ENDCHAR
STARTCHAR oacute_s_x
ENCODING -1
SWIDTH 1141 0
DWIDTH 16 0
BBX 17 10 -1 0
BITMAP
00000D700000000000
00007B000000000000
000041000120000000
003CEB109FC0ADEFA0
02ED1C569FD2F1CF20
0AF61FC52FE016F900
0EF20D501FF01EE100
2FF02F3B3FF19F7210
1FE099471FE2FD0E50
07ED801BEC4BFEDB10
ENDCHAR
STARTCHAR oacute_s_z
ENCODING -1
SWIDTH 1140 0
DWIDTH 16 0
BBX 17 10 -1 0
BITMAP
00001D700000000000
00007B000000000000
000041000120000000
003CEB009FC0ADEFA0
02ED1D569FD3F1CF20
0AF61FC52FE016F800
0FF20D401FF01EE100
2FF02F3C3FF19F7200
1FE098471FD3FD0E50
07ED801BEC4BFEDB10
ENDCHAR
STARTCHAR oacute_x
ENCODING -1
SWIDTH 852 0
DWIDTH 12 0
BBX 14 10 -1 0
BITMAP
00000D80000000
00005D10000000
0000A500000000
003BEB00EF1B70
02ED1C55EF4490
0AF61FB58F8C20
1FF20D506FE300
2FE02F13CFB001
1FE0982C2EE162
07ED804D26EC40
ENDCHAR
STARTCHAR r_x
ENCODING -1
SWIDTH 784 0
DWIDTH 11 0
BBX 13 8 -1 0
BITMAP
0000000000A700
02FFAE4FE02B00
06F91E4CF38700
09F50008FAC000
0CF20006FD1000
0FE0004CFD0020
3FC002D1DF2630
6F9003E45EC400
ENDCHAR
STARTCHAR r_z
ENCODING -1
SWIDTH 654 0
DWIDTH 9 0
BBX 10 7 -1 0
BITMAP
02FE9FEEFD
06FD6F5AF4
09F7014FB0
0CF300CF20
0FF106F800
3FC01EE1A7
6F908FFEC2
ENDCHAR
STARTCHAR s_x
ENCODING -1
SWIDTH 727 0
DWIDTH 10 0
BBX 12 8 -1 0
BITMAP
0004710007A0
004FF29F60D0
007DF36F9690
017CF43FDB10
082BF51FF200
3E3AF68FF206
660DFC59FA93
1ADD5002ED50
ENDCHAR
STARTCHAR s_z
ENCODING -1
SWIDTH 744 0
DWIDTH 10 0
BBX 12 8 -1 0
BITMAP
000351000000
003FF24DDFF2
008EF3B76F90
01ACF411EE10
074BF508F700
3F2AF62FD000
681CF3BF56B0
1ADD64FFDD50
ENDCHAR
STARTCHAR t_x
ENCODING -1
SWIDTH 631 0
DWIDTH 9 0
BBX 11 9 -1 0
BITMAP
002520000000
00DF20000000
07FFDFF1C600
04FB0DF25800
08F80AF5C200
0BF507FE5000
0EF205FB0010
1FF03BFE0720
0AFB608FB400
ENDCHAR
STARTCHAR t_z
ENCODING -1
SWIDTH 704 0
DWIDTH 10 0
BBX 11 10 -1 0
BITMAP
000110000000
009F50000000
00DF20000000
07FFA1BDEF90
04FB04E1DE10
07F80018F700
0BF5002FD000
0EF200AF5000
1FF204FB1E30
0AE60CFEDA00
ENDCHAR
STARTCHAR u_v
ENCODING -1
SWIDTH 923 0
DWIDTH 13 0
BBX 14 7 -1 0
BITMAP
02FD0BF45FE0C5
06FA0EF15FB048
09F62FD08F8067
0CF35FA0BF40B3
0FF09F70EF13C0
1FF6FF40FF6D40
0AEAFF109ED500
ENDCHAR
STARTCHAR u_x
ENCODING -1
SWIDTH 878 0
DWIDTH 12 0
BBX 14 8 -1 0
BITMAP
000000000006B0
02FD0BF57F70D0
06FA0EF25FA4A0
09F62FD02FEC10
0CF35FA00EF300
0FF09F703EF407
1FF6EFA7C9FB85
0AEA3DEA11DE70
ENDCHAR
STARTCHAR y_p
ENCODING -1
SWIDTH 954 0
DWIDTH 13 0
BBX 14 11 -1 -3
BITMAP
000000003FC000
02FD0BF56FDCE6
06FA0EF19F80EE
09F62FD0CF30EF
0CF35FA1FF01FD
0FF09F73FC07F9
1FF7FF36FA3DF2
0AEBFFBEFFFC40
007CFC1DF20000
049AF72FE00000
02DEA15C700000
ENDCHAR
STARTCHAR y_x
ENCODING -1
SWIDTH 871 0
DWIDTH 12 0
BBX 14 11 -1 -3
BITMAP
000000000007A0
02FD0BF59F60D0
06FA0EF16F9690
09F62FD03FDC10
0CF35FA01FF200
0FF09F704FF206
1FF6EF46AAFA94
0AEBFF8402DD60
007BFB00000000
058AF700000000
02DE9000000000
ENDCHAR
STARTCHAR y_z
ENCODING -1
SWIDTH 888 0
DWIDTH 12 0
BBX 14 10 -1 -3
BITMAP
02FD0BF54DDFF2
06FA0EF2B75F90
09F62FD001DE10
0CF35FA008F700
0FF09F702FD110
1FF6FF30AF46C0
0AEBFF04FFED50
0188FC00000000
0667F700000000
02CE9000000000
ENDCHAR
STARTCHAR a_x.end
ENCODING -1
SWIDTH 884 0
DWIDTH 12 0
BBX 14 7 -1 0
BITMAP
004CEBF93FB3D3
03ED1AF61FE094
0AF50CF30DF5A0
1FF11FE00AFB10
2FE04FC00AF700
1FF6CFD6B9FD40
08EC3BFC40AE60
ENDCHAR
STARTCHAR b_s.end
ENCODING -1
SWIDTH 731 0
DWIDTH 10 0
BBX 12 10 -1 0
BITMAP
004850000000
00BF50000000
00EF10000340
02FFDD308FF0
05FB2E957FF0
09F70DD50FF1
0CF40D800DF2
0FF12F4B5CF3
1FE09B2A0DF1
08ED910ADD50
ENDCHAR
STARTCHAR e_x.end
ENCODING -1
SWIDTH 747 0
DWIDTH 10 0
BBX 12 7 -1 0
BITMAP
003CEC2FD2D4
02EC1F1EF194
0AF49A0BFA80
0FFD8108F900
2FE0000BF900
1FF302A8FD20
06DEB8209E80
ENDCHAR
STARTCHAR f_u.end
ENCODING -1
SWIDTH 724 0
DWIDTH 10 0
BBX 14 13 -3 -3
BITMAP
00001AEC200000
00008F63400000
0000DF10000000
0002FFDEF90EF1
0005FB09F63FD0
0008F70CF36F90
000CF41FE09F60
001FF14FB0DF30
004FC05FC8FF60
019F801DE86EA0
5ACF5000000000
C1EE1000000000
7DD40000000000
ENDCHAR
STARTCHAR fi.end
ENCODING -1
SWIDTH 479 0
DWIDTH 7 0
BBX 10 13 -3 -3
BITMAP
000007DDD5
00006F90DC
0000DF2052
0001FFD7F9
0005FB0AF6
0008F80DF3
000BF41FE0
000FF14FB0
003FC05FC3
019F901DE4
5ACF500000
C1DF100000
7DD5000000
ENDCHAR
STARTCHAR fl.end
ENCODING -1
SWIDTH 490 0
DWIDTH 7 0
BBX 11 13 -3 -3
BITMAP
00001AECB610
00008F60BF50
0000DF20EF10
0002FFD5FD00
0005FB06FA00
0009F709F600
000CF40CF300
001FF11FE000
004FC02FE400
019F900BE600
6ACF50000000
C1DE10000000
7ED400000000
ENDCHAR
STARTCHAR i_x.end
ENCODING -1
SWIDTH 616 0
DWIDTH 9 0
BBX 10 10 -1 0
BITMAP
008E300000
009F400000
00010000C5
02FD0EF159
06FA0BF4B3
09F609FC80
0CF306FB00
0FF009FC00
1FF6A7EF60
0AEB407E90
ENDCHAR
STARTCHAR o_s.end
ENCODING -1
SWIDTH 718 0
DWIDTH 10 0
BBX 11 8 -1 0
BITMAP
000000000230
003CEB00AFC0
03ED1D479FD0
0AF61FC52FE0
1FF20E401FF0
3FE02F3C3FF0
1FE098571FD0
07ED801BEC40
ENDCHAR
STARTCHAR oacute_s.end
ENCODING -1
SWIDTH 719 0
DWIDTH 10 0
BBX 12 10 -1 0
BITMAP
00001D700000
00007B000000
000041000120
003CEB009FC0
02ED1D569FD0
0AF61FC52FE0
0FF20D401FF0
2FF02F3C3FF1
1FE098471FD0
07ED801BEC40
ENDCHAR
STARTCHAR u_x.end
ENCODING -1
SWIDTH 863 0
DWIDTH 12 0
BBX 13 7 -1 0
BITMAP
02FD0BF58F76B0
06FA0EF25F90D0
09F72FD02FC770
0CF35FA00EF800
0FF09F701DF300
1FF6EFA6CBF920
0AEA3DEA22DD30
ENDCHAR
STARTCHAR uni0424.loclBGR
ENCODING -1
SWIDTH 840 0
DWIDTH 12 0
BBX 12 13 0 -2
BITMAP
0018CDDC2000
00AD20EF1000
005603FD0000
0029ACFCCA20
07F60AF60BE2
4FA00DF205F8
AF401FE004F9
BF305FB008F7
9F508F701EE1
3FD1CF43CE40
03ADFFDC9200
0002FD000000
000264000000
ENDCHAR
STARTCHAR uni0492.loclBSH
ENCODING -1
SWIDTH 459 0
DWIDTH 6 0
BBX 9 10 0 0
BITMAP
028CFFFF30
3C1EF12100
A82FD00000
D75FB00000
659FFF8000
00CF400000
00FF100000
03FC000000
07F9000000
0AF5000000
ENDCHAR
STARTCHAR uni04AA.loclCHU
ENCODING -1
SWIDTH 497 0
DWIDTH 7 0
BBX 8 13 0 -3
BITMAP
001AEDA1
01DF60B6
09FB01E5
1FF40020
6FE00000
9FB00000
BF900000
AFA00011
6FE304A1
09EFFB20
000B3000
003DE000
00675000
ENDCHAR
STARTCHAR uni0418.loclSRB
ENCODING -1
SWIDTH 705 0
DWIDTH 10 0
BBX 11 10 0 0
BITMAP
005BE800DF30
0A9BF502FE00
8C0EF11CFB00
C82FD0BFF700
565FA9CCF400
009FDD2EF100
00CFE33FC000
01FF406F9000
04FB00AF6000
07F800DF2000
ENDCHAR
STARTCHAR uni0419.loclSRB
ENCODING -1
SWIDTH 705 0
DWIDTH 10 0
BBX 11 14 0 0
BITMAP
000001000100
00001E818400
000009DB5000
000000000000
005BE800DF30
0A9BF502FE00
8C0EF11CFB00
C82FD0BFF700
565FA9CCF400
009FDD2EF100
00CFE33FC000
01FF406F9000
04FB00AF6000
07F800DF2000
ENDCHAR
STARTCHAR uni0430.end
ENCODING -1
SWIDTH 467 0
DWIDTH 7 0
BBX 8 7 -1 0
BITMAP
004CECF9
03ED1AF6
0AF60CF3
1FF20FF1
2FE03FD0
1FE09FB0
08EC7DD3
ENDCHAR
STARTCHAR uni0432.end
ENCODING -1
SWIDTH 406 0
DWIDTH 6 0
BBX 7 10 -1 0
BITMAP
0003DD50
001E94A0
009F2670
02FB0C10
08F8BC00
0CF5EF50
1FF10D60
3FE00E40
1FE15C00
06EDA100
ENDCHAR
STARTCHAR uni0434.end
ENCODING -1
SWIDTH 480 0
DWIDTH 7 0
BBX 8 10 -1 -3
BITMAP
004CECF9
03ED1AF6
0AF60CF2
1FF20FE0
2FE03FB0
1FE09F80
08ECDF40
0055EF10
02A3FB00
00BEB200
ENDCHAR
STARTCHAR uni0435.end
ENCODING -1
SWIDTH 366 0
DWIDTH 5 0
BBX 7 7 -1 0
BITMAP
003CEB00
03EC1F10
0AF5AA00
1FFD8100
3FD00000
1FF12200
07ED8000
ENDCHAR
STARTCHAR uni0451.end
ENCODING -1
SWIDTH 366 0
DWIDTH 5 0
BBX 7 10 -1 0
BITMAP
002C2780
002E39A0
00000000
003CEB00
03EC1F10
0AF5AA00
1FFD8100
3FD00000
1FF12200
07ED8000
ENDCHAR
STARTCHAR uni0436.end
ENCODING -1
SWIDTH 848 0
DWIDTH 12 0
BBX 14 7 -1 0
BITMAP
02BE905F809EB0
0A17F38F57E2F1
0106F5BF3E9040
0007FDFFDF6000
140AE3FB6F4000
7A2F86F76F6030
3DC809F41BEC40
ENDCHAR
STARTCHAR uni0437.end
ENCODING -1
SWIDTH 426 0
DWIDTH 6 0
BBX 6 10 0 -3
BITMAP
03BED5
2A14FD
8204FD
701BF4
05FF40
005FB0
006FF0
1B5FE0
485F90
1BEA10
ENDCHAR
STARTCHAR uni0438.end
ENCODING -1
SWIDTH 459 0
DWIDTH 6 0
BBX 8 7 -1 0
BITMAP
02FD0BF5
06FA0EF2
09F62FD0
0CF35FA0
0FF09F70
1FF6EFA2
0AFA4EC1
ENDCHAR
STARTCHAR uni0439.end
ENCODING -1
SWIDTH 459 0
DWIDTH 6 0
BBX 8 10 -1 0
BITMAP
001D6036
002F81A1
0008BA20
02FD0BF5
06FA0EF2
09F62FD0
0CF35FA0
0FF09F70
1FF6EFA2
0AFA4EC1
ENDCHAR
STARTCHAR uni043A.end
ENCODING -1
SWIDTH 501 0
DWIDTH 7 0
BBX 8 7 -1 0
BITMAP
02FD06E9
05F98988
09FDE910
0CF58F70
0FE08F60
3FB09F82
6F903ED2
ENDCHAR
STARTCHAR uni043B.end
ENCODING -1
SWIDTH 511 0
DWIDTH 7 0
BBX 9 7 -1 0
BITMAP
00005DFF10
0001D3FD00
000594F900
000958F600
280C1BF300
7C3C0CF700
3DD406EA00
ENDCHAR
STARTCHAR uni043C.end
ENCODING -1
SWIDTH 780 0
DWIDTH 11 0
BBX 12 7 -1 0
BITMAP
00004DB009FC
0001CEC02FF9
00057DD09DF6
00083CE2CBF2
270A0BE95EE0
7C1A0AFC1FE5
2CC309F50AE6
ENDCHAR
STARTCHAR uni043D.end
ENCODING -1
SWIDTH 460 0
DWIDTH 6 0
BBX 8 7 -1 0
BITMAP
02FD08F5
06FA0BF2
09F70EE0
0CFDDFB0
0FF16F80
3FC08F60
6F903EC2
ENDCHAR
STARTCHAR uni043E.end
ENCODING -1
SWIDTH 439 0
DWIDTH 6 0
BBX 7 7 -1 0
BITMAP
003BEB10
02ED1C50
0AF60C60
1FF20E50
2FE02F10
1FE09800
07ED8000
ENDCHAR
STARTCHAR uni043F.end
ENCODING -1
SWIDTH 454 0
DWIDTH 6 0
BBX 8 7 -1 0
BITMAP
02FEBE90
06FC1FF0
09F61FD0
0CF34FA0
0FF07F60
3FC08FA2
6F904EC1
ENDCHAR
STARTCHAR uni0441.end
ENCODING -1
SWIDTH 341 0
DWIDTH 5 0
BBX 6 7 -1 0
BITMAP
004CEA
03FC2F
0CF515
1FF100
4FD000
3FD021
08ED80
ENDCHAR
STARTCHAR uni0442.end
ENCODING -1
SWIDTH 701 0
DWIDTH 10 0
BBX 11 7 -1 0
BITMAP
02FEBFB8ED20
06FC1FF49F60
09F63FD0AF50
0CF36FA0DF20
0FF09F71FD00
3FC0CF42FE50
6F90EF10BE50
ENDCHAR
STARTCHAR uni0443.end
ENCODING -1
SWIDTH 460 0
DWIDTH 6 0
BBX 8 10 -1 -3
BITMAP
02FD0BF5
06FA0EF2
09F62FD0
0CF35FA0
0FF09F70
1FF6FF30
0AEBFF00
0199FC00
0667F700
02CE9000
ENDCHAR
STARTCHAR uni0445.end
ENCODING -1
SWIDTH 500 0
DWIDTH 7 0
BBX 7 7 0 0
BITMAP
03CE57B0
082FC3D0
620EFC20
800DF300
407EF500
0597FB30
3B01CD30
ENDCHAR
STARTCHAR uni0447.end
ENCODING -1
SWIDTH 459 0
DWIDTH 6 0
BBX 7 7 0 0
BITMAP
2FD0AF50
5FA0EF20
8F72FD00
9FABFA00
4EDCF700
0009F920
0004EC10
ENDCHAR
STARTCHAR uni0448.end
ENCODING -1
SWIDTH 706 0
DWIDTH 10 0
BBX 11 7 -1 0
BITMAP
02FD0BF53FC0
06FA0EF27F80
09F62FD0AF50
0CF35FA0DF20
0FF09F72FE00
1FF6EFAAFE40
0AEA4ED4BE60
ENDCHAR
STARTCHAR uni044B.end
ENCODING -1
SWIDTH 608 0
DWIDTH 9 0
BBX 9 7 0 0
BITMAP
3FC0004D60
6F802AEF30
9F7CD2DE00
CF22F2FB00
FE05E5F800
FD3D86FA20
7EE802DD20
ENDCHAR
STARTCHAR uni0455.end
ENCODING -1
SWIDTH 316 0
DWIDTH 4 0
BBX 6 8 -1 0
BITMAP
000571
004FF2
008EF3
018CF4
082BF5
3E3AF6
660CF3
1ADD60
ENDCHAR
STARTCHAR uni0456.end
ENCODING -1
SWIDTH 209 0
DWIDTH 3 0
BBX 5 10 -1 0
BITMAP
008E30
009F40
000100
02FD00
06FA00
09F600
0CF300
0FF000
1FF500
0AE700
ENDCHAR
STARTCHAR uni0458.end
ENCODING -1
SWIDTH 213 0
DWIDTH 3 0
BBX 7 14 -3 -3
BITMAP
00000100
0000AF40
00009E30
00000000
0002FD00
0006FA00
0009F600
000CF300
001FF000
004FC000
02AF8000
6BCF5000
C1EE1000
7ED40000
ENDCHAR
STARTCHAR uni044E.end
ENCODING -1
SWIDTH 675 0
DWIDTH 9 0
BBX 10 7 -1 0
BITMAP
02FD019ED3
06FA0BF47A
09F74FB07B
0CFDEF6099
0FF1DF30D5
3FC0CF44C0
6F904DEA20
ENDCHAR
STARTCHAR uni044F.end
ENCODING -1
SWIDTH 480 0
DWIDTH 7 0
BBX 8 7 -1 0
BITMAP
002BDEF9
00DD18F6
01FC0BF3
006EDFE0
3A0E3FB0
7C4B4FD4
2DD31BE4
ENDCHAR
STARTCHAR uni0437.init
ENCODING -1
SWIDTH 455 0
DWIDTH 6 0
BBX 7 10 0 -3
BITMAP
08CE9000
740DF400
100DF400
006FA020
0DFA0090
00DF3930
01CFB200
4BDF4000
B2EE1000
6ED40000
ENDCHAR
STARTCHAR uni0445.init
ENCODING -1
SWIDTH 390 0
DWIDTH 5 0
BBX 7 8 -1 0
BITMAP
00004C10
07F70A30
04FB3D00
01FEC300
01EF5000
1BCF5030
A75F9180
9B0BE800
ENDCHAR
STARTCHAR uni0436.loclBGR
ENCODING -1
SWIDTH 882 0
DWIDTH 12 0
BBX 14 10 -1 0
BITMAP
00000005810000
0000000DF00000
0000001FC00000
02BE904F909EB0
0A17F38F67E2F1
0106F5BF3E9040
0007FDFFDF6000
140AE3FB6F4003
7A2F86F76F6055
3DC809F41BEB40
ENDCHAR
STARTCHAR uni043A.loclBGR
ENCODING -1
SWIDTH 518 0
DWIDTH 7 0
BBX 9 10 -1 0
BITMAP
0049500000
00BF400000
00EF100000
02FD06B200
05FA980000
09FFFF6000
0CF76FC000
0FF15FA040
3FC07FB760
6F902DE800
ENDCHAR
STARTCHAR uni044E.loclBGR
ENCODING -1
SWIDTH 675 0
DWIDTH 9 0
BBX 13 10 -1 0
BITMAP
00484000000000
00AF5000000000
00DF2000000000
02FE019ED30000
05FB0BF4790310
08F74FB0CD7400
0CFDEF60990000
0EF1DF30C50000
3FC0CF44C00000
6F904DEA100000
ENDCHAR
STARTCHAR uni0493.loclBSH
ENCODING -1
SWIDTH 398 0
DWIDTH 6 0
BBX 7 7 -1 0
BITMAP
07EFFFC0
0BF9BC50
0EF00000
3FEAA100
6F901000
7F736000
3DE70000
ENDCHAR
STARTCHAR uni04AB.loclCHU
ENCODING -1
SWIDTH 384 0
DWIDTH 5 0
BBX 7 10 -1 -3
BITMAP
003CEB00
02ED1F10
0AF60400
0EF10000
2FE00030
1FF21840
07EFD400
000A0000
001CF200
00577000
ENDCHAR
STARTCHAR uni0453.loclMKD
ENCODING -1
SWIDTH 267 0
DWIDTH 4 0
BBX 6 13 -1 0
BITMAP
000064
0003E2
000A40
08DDD1
000000
000000
02FD00
06FA00
09F600
0CF300
0FF032
1FF6A0
0AEB20
ENDCHAR
STARTCHAR uni0433.loclSRB
ENCODING -1
SWIDTH 267 0
DWIDTH 4 0
BBX 6 10 -1 0
BITMAP
08DDD1
000000
000000
02FD00
06FA00
09F600
0CF300
0FF032
1FF6A0
0AEB20
ENDCHAR
STARTCHAR uni043F.loclSRB
ENCODING -1
SWIDTH 505 0
DWIDTH 7 0
BBX 9 10 -1 0
BITMAP
004DDDD200
0000000000
0000000000
02FD0BF500
06FA0EF200
09F62FD000
0CF35FA000
0FF09F7140
1FF6EFA930
0AEA4ED500
ENDCHAR
STARTCHAR uni0442.loclSRB
ENCODING -1
SWIDTH 752 0
DWIDTH 11 0
BBX 12 9 -1 0
BITMAP
002DDDDDDD70
000000000000
02FD0BF53FC0
06FA0EF27F80
09F62FD0AF50
0CF35FA0DF20
0FF09F72FE05
1FF6EFAAFE68
0AEA4ED4AEA1
ENDCHAR
STARTCHAR uni04150437
ENCODING -1
SWIDTH 940 0
DWIDTH 13 0
BBX 14 13 0 -3
BITMAP
002AED60000000
00DD14D0000000
02FA0770000000
00BE50008DE700
07ED200621FF10
4FF3001501FF10
BFB0005009F602
DF800152EF6017
AFC006002FB072
2BED81000DF730
00000004AFF100
0000000C3FC000
0000000AEC2000
ENDCHAR
STARTCHAR uni04150445
ENCODING -1
SWIDTH 797 0
DWIDTH 11 0
BBX 12 10 0 0
BITMAP
002BED700000
00ED15C00000
01FB033218A0
01BF708F70D0
0BFA005F9680
6FE1003FDB10
CFA0001FF100
DF80004FF216
AFC006BAF9A3
2BEDA503ED50
ENDCHAR
STARTCHAR uni04010437
ENCODING -1
SWIDTH 940 0
DWIDTH 13 0
BBX 14 17 0 -3
BITMAP
0005A0B4000000
0007D1D5000000
00000000000000
00000000000000
002AED60000000
00DD14D0000000
02FA0770000000
00BE50008DE700
07ED200621FF10
4FF3001501FF10
BFB0005009F602
DF800152EF6017
AFC006002FB072
2BED81000DF730
00000004AFF100
0000000C3FC000
0000000AEC2000
ENDCHAR
STARTCHAR uni04010445
ENCODING -1
SWIDTH 797 0
DWIDTH 11 0
BBX 12 13 0 0
BITMAP
0007D1D50000
0005A0B40000
000000000000
002BED700000
00ED15C00000
01FB033218A0
01BF708F70D0
0BFA005F9680
6FE1003FDB10
CFA0001FF100
DF80004FF216
AFC006BAF9A3
2BEDA503ED50
ENDCHAR
STARTCHAR uni04210437
ENCODING -1
SWIDTH 973 0
DWIDTH 14 0
BBX 14 13 0 -3
BITMAP
001AEDB1000000
01DF60B6000000
09FB01B3000000
2FF400003BEB10
6FE00002609F80
9FB00006009F70
BFA0001503EC11
AFA00060AFC108
6FD104300AF327
08DEA20006FA60
000000019CF800
000000075BF400
00000004DE7000
ENDCHAR
STARTCHAR uni04210445
ENCODING -1
SWIDTH 814 0
DWIDTH 11 0
BBX 12 10 0 0
BITMAP
001AEDB20000
01DF60C60000
09FA005315C0
2FF4004FA0B2
6FE0002FD3C0
9FB0000EFC20
BF90000CF500
AFA0002EF507
6FE537C8FB56
09EEC611CE80
ENDCHAR
STARTCHAR uni04040437
ENCODING -1
SWIDTH 973 0
DWIDTH 14 0
BBX 14 13 0 -3
BITMAP
001AEDB1000000
01DE30B6000000
09F501B3000000
2FFDD7003BEB10
6FB00002609F80
9FA00006009F70
BF90001503EC11
AFA00060AFC108
6FE204300AF327
08DEA20006FA60
000000019CF800
000000075BF400
00000004DE7000
ENDCHAR
STARTCHAR uni04040445
ENCODING -1
SWIDTH 814 0
DWIDTH 11 0
BBX 12 10 0 0
BITMAP
001AEDB20000
01DF60C60000
09FA005315C0
2FF3004FA0B2
6FFDD72FC1D0
9FB0000FE940
BF90000CF700
AFA0002DF504
6FF536C9FA57
09EEC711CE80
ENDCHAR
STARTCHAR uni04300445
ENCODING -1
SWIDTH 899 0
DWIDTH 13 0
BBX 14 7 -1 0
BITMAP
004CEBF93FB3D3
03ED1AF60FE094
0AF50CF30DF5A0
1FF11FE00AFB10
2FE04FC00AF804
1FF6CFD6B9FD69
08EC3BFC40AEA1
ENDCHAR
STARTCHAR uni04300447
ENCODING -1
SWIDTH 993 0
DWIDTH 14 0
BBX 16 7 -1 0
BITMAP
004CECF95FA0DF20
03ED1AF68F71FE00
0AF60CF3BF45FC00
1FF20FF1CF9DF900
2FE03FD06ECDF612
1FE08FB0000CF461
08EC7DD30006EB30
ENDCHAR
STARTCHAR uni04310433
ENCODING -1
SWIDTH 816 0
DWIDTH 11 0
BBX 13 10 -1 0
BITMAP
0007DDDDA00000
0009FFFD200000
0000A300000000
004CED019ED400
03FC0C5A16FB00
0CF60CE21BF800
1FF10E82DFC100
2FD03E1CFA0030
1FE0960EF40540
06ED7007EEA300
ENDCHAR
STARTCHAR uni04310453
ENCODING -1
SWIDTH 816 0
DWIDTH 11 0
BBX 13 10 -1 0
BITMAP
0007DDDDA0AA00
0009FFFD24D100
0000A300032000
004CED019ED400
03FC0C5A16FB00
0CF60CE21BF800
1FF10E82DFC100
2FD03E1CFA0030
1FE0960EF40540
06ED7007EEA300
ENDCHAR
STARTCHAR uni04310451
ENCODING -1
SWIDTH 814 0
DWIDTH 11 0
BBX 13 10 -1 0
BITMAP
0007DDDE5C2780
0009FFF92E39B0
0001B300000000
003BEC003CEC00
03EC1C42EC1F20
0BF60C6AF59B00
1FF10E5EFD8100
2FD04E3FE00050
1FE3B81FF43A20
06EE8007EEA200
ENDCHAR
STARTCHAR uni04310436
ENCODING -1
SWIDTH 1261 0
DWIDTH 18 0
BBX 20 10 -1 0
BITMAP
0007DDDDA00000000000
0009FFFD200000000000
0001B300000000000000
003BED06DE509F42BE80
03ED1C870CE0CF1BC4C0
0BF60CD00AF1FD4F5010
1FF10E600CFDFEEF2000
2FE03E100EB7F7AF0011
1FE097586F4AF3AF2180
06ED804DD60DF03CEA10
ENDCHAR
STARTCHAR uni04310439
ENCODING -1
SWIDTH 935 0
DWIDTH 13 0
BBX 15 10 -1 0
BITMAP
0007DDDD6B502600
0009FFFB2F81A100
0001B30008BA3000
003BEC02FD0AF500
03ED1C45FA0DF200
0BF60C69F71FE000
1FF10E5CF44FB000
2FE03E1FF27F8020
1FE0981FF0CF6440
06ED800AEB7ED500
ENDCHAR
STARTCHAR uni0431045E
ENCODING -1
SWIDTH 916 0
DWIDTH 13 0
BBX 15 13 -1 -3
BITMAP
0009FFFF7D706500
0009FDD919BA5000
0000A40000000000
003BED02FD0AF500
03ED1C55FA0DF200
0BF60C69F71FE000
1FF10E5CF44FB000
2FE03E1FF27F8110
1FE0971FF0DF5710
06ED800AFBFF7300
0000000048FC0000
000000039AF70000
00000002DEA00000
ENDCHAR
STARTCHAR uni0431044D
ENCODING -1
SWIDTH 860 0
DWIDTH 12 0
BBX 13 10 -1 0
BITMAP
0007DDDDA00000
0009FFFD200000
0001B300000000
003BEC018CEA00
03ED1C4930CF50
0BF60CD4009F70
1FF10E905DEF40
2FE03E2200ED00
1FE0976B07F400
06ED803CBC4000
ENDCHAR
STARTCHAR uni04310456
ENCODING -1
SWIDTH 697 0
DWIDTH 10 0
BBX 12 10 -1 0
BITMAP
0009FFFE8E40
0009FDC49F50
0000A4000100
003BED02FD00
03ED1C55FA00
0BF60C69F700
1FF10E5CF400
2FE03E1FF211
1FE0971FF080
06ED800AEA20
ENDCHAR
STARTCHAR uni04310457
ENCODING -1
SWIDTH 697 0
DWIDTH 10 0
BBX 12 10 -1 0
BITMAP
0007DDDBB4B5
0009FFD4E5D6
0001B3000000
003BEC02FD00
03ED1C45FA00
0BF60C69F700
1FF10E5CF400
2FE03E1FF211
1FE0981FF080
06ED800AEA20
ENDCHAR
STARTCHAR uni04310458
ENCODING -1
SWIDTH 669 0
DWIDTH 9 0
BBX 11 14 -1 -3
BITMAP
000022210100
000BFFFEBF30
0008FBA39E20
0000A5000000
003BEE12FD00
03ED1C56FA00
0BF60C69F700
1FF10E4CF400
2FE03E1FF130
1FE0974FD170
06ED709FC600
00003CEF5000
0000B2EF1000
00007ED50000
ENDCHAR
STARTCHAR uni04320433
ENCODING -1
SWIDTH 837 0
DWIDTH 12 0
BBX 13 10 -1 0
BITMAP
0003DD50000000
001E94A0000000
009F2670000000
02FB0C129DE700
08F8BC8914FE00
0CF5EF6009FB00
1FF10D61BFD200
3FE00E49FC1030
1FE15C0CF60450
06EDA105DEB400
ENDCHAR
STARTCHAR uni04320453
ENCODING -1
SWIDTH 837 0
DWIDTH 12 0
BBX 13 10 -1 0
BITMAP
0003DD50008D10
001E94A001E300
009F2670023000
02FB0C129DE700
08F8BC8914FE00
0CF5EF6009FB00
1FF10D61BFD200
3FE00E49FC1030
1FE15C0CF60450
06EDA105DEB400
ENDCHAR
STARTCHAR uni04320436
ENCODING -1
SWIDTH 1279 0
DWIDTH 18 0
BBX 20 10 -1 0
BITMAP
0003DD50000000000000
001E94A0000000000000
009F2680000000000000
02FB0C26CE805F809EC0
08F8BB9807F38F58E2E0
0CF5EF8006F5BF2E9000
1FF10D6008FDFFDF6000
3FE00E500BE3FA7F4001
1FE15D2B2F76F76F6072
06EDA22DC80AF41BEB30
ENDCHAR
STARTCHAR uni04320437
ENCODING -1
SWIDTH 824 0
DWIDTH 12 0
BBX 13 13 -1 -3
BITMAP
0003DD50000000
001E94A0000000
009F2670000000
02FB0C16CFB100
08F8BCB50AF700
0CF5EF500BF600
1FF10D604FB110
3FE00E4BFB1090
1FE15C00BF2270
06EDA1008FA700
00000018CF8000
00000084CF3000
0000005DD70000
ENDCHAR
STARTCHAR uni04320445
ENCODING -1
SWIDTH 851 0
DWIDTH 12 0
BBX 14 10 -1 0
BITMAP
0003DD50000000
001E94A0000000
009F2670000000
02FB0C28ED1A80
08F8BCB49F65A0
0CF5EF505FCC10
1FF10D603FD100
3FE00E40BFC012
1FE15C0A5DE171
06EDA18705EB30
ENDCHAR
STARTCHAR uni04330437
ENCODING -1
SWIDTH 840 0
DWIDTH 12 0
BBX 14 10 -1 -3
BITMAP
01AED4019ED300
0A16FB0717FA00
011BF85207F900
04DFB1702DD211
1EF60528FD2072
4FE036008F5180
0AEC60004FC810
00000007BFB000
000000579F7000
0000003CE90000
ENDCHAR
STARTCHAR uni04330445
ENCODING -1
SWIDTH 740 0
DWIDTH 10 0
BBX 12 8 -1 0
BITMAP
0000000005C0
019ED49F60B2
0826FB6F93D0
051BF83FDC30
04DFB10EF500
1EF6004EF302
4FE007A8F727
0AEDA401DE80
ENDCHAR
STARTCHAR uni04330447
ENCODING -1
SWIDTH 880 0
DWIDTH 12 0
BBX 14 7 -1 0
BITMAP
019ED40DF27F90
0926FB1FD0AF50
041BF85FA0EF20
04DFB1AFDAFE00
1EF6038CEAFB04
4FE0280006FB46
0AEC700002DE80
ENDCHAR
STARTCHAR uni04530437
ENCODING -1
SWIDTH 840 0
DWIDTH 12 0
BBX 14 13 -1 -3
BITMAP
00002F40000000
0000A800000000
00005000000000
01AED4019ED300
0A16FB0717FA00
011BF85207F900
04DFB1702DD211
1EF60528FD2072
4FE036008F5180
0AEC60004FC810
00000007BFB000
000000579F7000
0000003CE90000
ENDCHAR
STARTCHAR uni04530445
ENCODING -1
SWIDTH 740 0
DWIDTH 10 0
BBX 12 10 -1 0
BITMAP
00003E300000
0000C5000000
0000000005C0
019ED49F60B2
0826FB6F93D0
051BF83FDC30
04DFB10EF500
1EF6004EF302
4FE007A8F727
0AEDA401DE80
ENDCHAR
STARTCHAR uni04530447
ENCODING -1
SWIDTH 880 0
DWIDTH 12 0
BBX 14 10 -1 0
BITMAP
00002F40000000
0000A800000000
00005000000000
019ED40EF27F90
0926FB2FD0AF50
041BF85FA0EF20
04DFB1AFDAFE00
1EF6038CEAFB04
4FE0280006FB46
0AEC700002DE80
ENDCHAR
STARTCHAR uni04340447
ENCODING -1
SWIDTH 1010 0
DWIDTH 14 0
BBX 16 10 -1 -3
BITMAP
004CECF91FE09F60
03ED1AF64FB0DF30
0AF60CF37F81FF00
1FF20FF0AFBAFC00
2FE03FC0BEDBF904
1FE09F853008F734
08ECDF840003ED50
0027EF1000000000
00B4FB0000000000
00BEC20000000000
ENDCHAR
STARTCHAR uni04340458
ENCODING -1
SWIDTH 746 0
DWIDTH 10 0
BBX 12 14 -1 -3
BITMAP
000000000010
000000000AF4
0000000008E3
000000000000
004CECF91FE0
03ED1AF64FB0
0AF60CF37F80
1FF20FE0BF50
2FE03FB0EF21
1FE09F82FE08
08ECDF67FD81
0023EF2AF700
00B8FD5EF200
00BEB7ED6000
ENDCHAR
STARTCHAR uni04350437
ENCODING -1
SWIDTH 876 0
DWIDTH 12 0
BBX 14 10 -1 -3
BITMAP
003CEC007DE800
02EB1F1530EF30
0AF49A0600FF20
0FFD815108F800
2FE00061EF8009
1FF107101ED054
07ED91000BF860
000000029EF400
0000000B2FE100
00000009EC4000
ENDCHAR
STARTCHAR uni04350445
ENCODING -1
SWIDTH 762 0
DWIDTH 11 0
BBX 13 7 -1 0
BITMAP
003CEC2FD2D400
02EC1F1EF19400
0AF49A0BFA8000
0FFD8108F90000
2FE0000BF90510
1FF302A6FE6900
06DEB8109EA100
ENDCHAR
STARTCHAR uni04350447
ENCODING -1
SWIDTH 889 0
DWIDTH 12 0
BBX 14 7 -1 0
BITMAP
003CEC0CF35FA0
02EB1F1EE09F70
0AF49A3FC1EF40
0FFD817FFFFF10
2FE0016BE9FD05
1FF1270004FC37
07ED700000CE90
ENDCHAR
STARTCHAR uni04510437
ENCODING -1
SWIDTH 876 0
DWIDTH 12 0
BBX 14 13 -1 -3
BITMAP
002E39A0000000
002C2780000000
00000000000000
003CEC007DE800
02EB1F1530EF30
0AF49A0600FF20
0FFD815108F800
2FE00061EF8009
1FF107101ED054
07ED91000BF860
000000029EF400
0000000B2FE100
00000009EC4000
ENDCHAR
STARTCHAR uni04510445
ENCODING -1
SWIDTH 762 0
DWIDTH 11 0
BBX 13 10 -1 0
BITMAP
002C2780000000
002E39A0000000
00000000000000
003CEC2FD2D400
02EC1F1EF19400
0AF49A0BFA8000
0FFD8108F90000
2FE0000BF90510
1FF302A6FE6900
06DEB8109EA100
ENDCHAR
ENDFONT
